<?xml version="1.0" encoding="utf-8" standalone="no"?>
<!DOCTYPE svg PUBLIC "-//W3C//DTD SVG 1.1//EN"
  "http://www.w3.org/Graphics/SVG/1.1/DTD/svg11.dtd">
<svg xmlns:xlink="http://www.w3.org/1999/xlink" width="1080pt" height="648pt" viewBox="0 0 1080 648" xmlns="http://www.w3.org/2000/svg" version="1.1">
 <metadata>
  <rdf:RDF xmlns:dc="http://purl.org/dc/elements/1.1/" xmlns:cc="http://creativecommons.org/ns#" xmlns:rdf="http://www.w3.org/1999/02/22-rdf-syntax-ns#">
   <cc:Work>
    <dc:type rdf:resource="http://purl.org/dc/dcmitype/StillImage"/>
    <dc:date>2024-09-25T22:05:18.895130</dc:date>
    <dc:format>image/svg+xml</dc:format>
    <dc:creator>
     <cc:Agent>
      <dc:title>Matplotlib v3.9.2, https://matplotlib.org/</dc:title>
     </cc:Agent>
    </dc:creator>
   </cc:Work>
  </rdf:RDF>
 </metadata>
 <defs>
  <style type="text/css">*{stroke-linejoin: round; stroke-linecap: butt}</style>
 </defs>
 <g id="figure_1">
  <g id="patch_1">
   <path d="M 0 648 
L 1080 648 
L 1080 0 
L 0 0 
z
" style="fill: #ffffff; stroke: #ffffff; stroke-width: 2.3; stroke-linejoin: miter"/>
  </g>
  <g id="axes_1">
   <g id="patch_2">
    <path d="M 135 576.72 
L 972 576.72 
L 972 77.76 
L 135 77.76 
z
" style="fill: #ffffff"/>
   </g>
   <g id="matplotlib.axis_1">
    <g id="xtick_1">
     <g id="line2d_1">
      <defs>
       <path id="m249bb85fc3" d="M 0 0 
L 0 3.5 
" style="stroke: #000000; stroke-width: 0.8"/>
      </defs>
      <g>
       <use xlink:href="#m249bb85fc3" x="173.045455" y="576.72" style="stroke: #000000; stroke-width: 0.8"/>
      </g>
     </g>
     <g id="text_1">
      <!-- $\mathdefault{0}$ -->
      <g transform="translate(168.749066 596.016205) scale(0.1725 -0.1725)">
       <defs>
        <path id="URWPalladioL-Roma-30" d="M 1683 4416 
C 691 4416 186 3628 186 2077 
C 186 1326 320 680 544 366 
C 768 51 1126 -128 1523 -128 
C 2490 -128 2976 705 2976 2346 
C 2976 3749 2560 4416 1683 4416 
z
M 1568 4192 
C 2189 4192 2438 3564 2438 2025 
C 2438 661 2195 96 1606 96 
C 986 96 723 744 723 2308 
C 723 3660 960 4192 1568 4192 
z
" transform="scale(0.015625)"/>
       </defs>
       <use xlink:href="#URWPalladioL-Roma-30" transform="scale(0.996264)"/>
      </g>
     </g>
    </g>
    <g id="xtick_2">
     <g id="line2d_2">
      <g>
       <use xlink:href="#m249bb85fc3" x="274.5" y="576.72" style="stroke: #000000; stroke-width: 0.8"/>
      </g>
     </g>
     <g id="text_2">
      <!-- $\mathdefault{100}$ -->
      <g transform="translate(261.610834 596.016205) scale(0.1725 -0.1725)">
       <defs>
        <path id="URWPalladioL-Roma-31" d="M 429 3584 
L 493 3584 
L 1318 3956 
C 1325 3962 1331 3962 1338 3962 
C 1376 3962 1389 3905 1389 3751 
L 1389 613 
C 1389 276 1318 205 973 205 
L 614 205 
L 614 0 
C 1600 0 1600 0 1670 0 
C 1754 0 1894 0 2112 0 
C 2189 0 2413 0 2675 0 
L 2675 205 
L 2342 205 
C 1990 205 1926 276 1926 612 
L 1926 4443 
L 1837 4475 
C 1421 4257 966 4065 384 3860 
L 429 3584 
z
" transform="scale(0.015625)"/>
       </defs>
       <use xlink:href="#URWPalladioL-Roma-31" transform="scale(0.996264)"/>
       <use xlink:href="#URWPalladioL-Roma-30" transform="translate(49.8132 0) scale(0.996264)"/>
       <use xlink:href="#URWPalladioL-Roma-30" transform="translate(99.626401 0) scale(0.996264)"/>
      </g>
     </g>
    </g>
    <g id="xtick_3">
     <g id="line2d_3">
      <g>
       <use xlink:href="#m249bb85fc3" x="375.954545" y="576.72" style="stroke: #000000; stroke-width: 0.8"/>
      </g>
     </g>
     <g id="text_3">
      <!-- $\mathdefault{200}$ -->
      <g transform="translate(363.06538 596.016205) scale(0.1725 -0.1725)">
       <defs>
        <path id="URWPalladioL-Roma-32" d="M 102 160 
L 102 0 
C 1299 0 1299 0 1530 0 
C 1760 0 1760 0 2995 0 
C 2982 125 2982 186 2982 269 
C 2982 348 2982 407 2995 539 
C 2259 539 1965 539 781 539 
L 1946 1761 
C 2566 2414 2758 2763 2758 3238 
C 2758 3966 2259 4416 1446 4416 
C 986 4416 672 4288 358 3969 
L 250 3099 
L 435 3099 
L 518 3393 
C 621 3763 851 3923 1280 3923 
C 1830 3923 2182 3577 2182 3035 
C 2182 2555 1914 2083 1190 1316 
L 102 160 
z
" transform="scale(0.015625)"/>
       </defs>
       <use xlink:href="#URWPalladioL-Roma-32" transform="scale(0.996264)"/>
       <use xlink:href="#URWPalladioL-Roma-30" transform="translate(49.8132 0) scale(0.996264)"/>
       <use xlink:href="#URWPalladioL-Roma-30" transform="translate(99.626401 0) scale(0.996264)"/>
      </g>
     </g>
    </g>
    <g id="xtick_4">
     <g id="line2d_4">
      <g>
       <use xlink:href="#m249bb85fc3" x="477.409091" y="576.72" style="stroke: #000000; stroke-width: 0.8"/>
      </g>
     </g>
     <g id="text_4">
      <!-- $\mathdefault{300}$ -->
      <g transform="translate(464.519925 596.016205) scale(0.1725 -0.1725)">
       <defs>
        <path id="URWPalladioL-Roma-33" d="M 275 3197 
L 474 3197 
L 589 3554 
C 659 3770 1062 3987 1395 3987 
C 1811 3987 2150 3649 2150 3248 
C 2150 2770 1773 2368 1318 2368 
C 1267 2368 1197 2368 1114 2381 
L 1018 2381 
L 941 2047 
L 986 2008 
C 1229 2118 1350 2150 1523 2150 
C 2054 2150 2362 1809 2362 1222 
C 2362 566 1971 135 1376 135 
C 1082 135 819 231 627 411 
C 474 553 390 701 269 1049 
L 96 985 
C 230 593 282 361 320 39 
C 659 -77 941 -128 1178 -128 
C 1690 -128 2278 161 2630 593 
C 2848 857 2957 1140 2957 1442 
C 2957 1751 2829 2022 2598 2182 
C 2438 2298 2291 2350 1971 2407 
C 2483 2803 2675 3096 2675 3472 
C 2675 4040 2202 4416 1491 4416 
C 1056 4416 768 4295 461 3989 
L 275 3197 
z
" transform="scale(0.015625)"/>
       </defs>
       <use xlink:href="#URWPalladioL-Roma-33" transform="scale(0.996264)"/>
       <use xlink:href="#URWPalladioL-Roma-30" transform="translate(49.8132 0) scale(0.996264)"/>
       <use xlink:href="#URWPalladioL-Roma-30" transform="translate(99.626401 0) scale(0.996264)"/>
      </g>
     </g>
    </g>
    <g id="xtick_5">
     <g id="line2d_5">
      <g>
       <use xlink:href="#m249bb85fc3" x="578.863636" y="576.72" style="stroke: #000000; stroke-width: 0.8"/>
      </g>
     </g>
     <g id="text_5">
      <!-- $\mathdefault{400}$ -->
      <g transform="translate(565.974471 596.016205) scale(0.1725 -0.1725)">
       <defs>
        <path id="URWPalladioL-Roma-34" d="M 1792 1152 
L 1792 673 
C 1792 289 1722 199 1408 199 
L 1011 199 
L 1011 0 
C 1862 0 1862 0 2016 0 
C 2170 0 2170 0 3021 0 
L 3021 199 
L 2714 199 
C 2400 199 2330 282 2330 669 
L 2330 1152 
C 2707 1152 2842 1152 3021 1133 
L 3021 1588 
C 2720 1563 2598 1563 2502 1563 
L 2483 1563 
L 2330 1563 
L 2330 2457 
C 2330 3600 2342 4152 2374 4416 
L 2298 4448 
L 1824 4275 
L 13 1299 
L 83 1152 
L 1792 1152 
z
M 1792 1563 
L 416 1563 
L 1792 3826 
L 1792 1563 
z
" transform="scale(0.015625)"/>
       </defs>
       <use xlink:href="#URWPalladioL-Roma-34" transform="scale(0.996264)"/>
       <use xlink:href="#URWPalladioL-Roma-30" transform="translate(49.8132 0) scale(0.996264)"/>
       <use xlink:href="#URWPalladioL-Roma-30" transform="translate(99.626401 0) scale(0.996264)"/>
      </g>
     </g>
    </g>
    <g id="xtick_6">
     <g id="line2d_6">
      <g>
       <use xlink:href="#m249bb85fc3" x="680.318182" y="576.72" style="stroke: #000000; stroke-width: 0.8"/>
      </g>
     </g>
     <g id="text_6">
      <!-- $\mathdefault{500}$ -->
      <g transform="translate(667.429016 596.016205) scale(0.1725 -0.1725)">
       <defs>
        <path id="URWPalladioL-Roma-35" d="M 813 3877 
C 1638 3877 1997 3877 2765 3877 
L 2797 3907 
C 2784 4016 2784 4064 2784 4144 
C 2784 4229 2784 4277 2797 4386 
L 2765 4416 
C 2285 4416 1997 4416 1651 4416 
C 1299 4416 1018 4416 538 4416 
L 506 4403 
C 512 4011 518 3729 518 3523 
C 518 2977 499 2360 480 2077 
L 608 2038 
C 909 2341 1082 2432 1395 2432 
C 2010 2432 2394 1993 2394 1296 
C 2394 580 1984 160 1286 160 
C 941 160 621 277 531 444 
L 237 973 
L 83 883 
C 230 516 307 310 397 27 
C 576 -71 832 -128 1107 -128 
C 1536 -128 1990 59 2342 368 
C 2733 716 2938 1154 2938 1630 
C 2938 2359 2419 2874 1690 2874 
C 1382 2874 1152 2791 755 2554 
L 813 3877 
z
" transform="scale(0.015625)"/>
       </defs>
       <use xlink:href="#URWPalladioL-Roma-35" transform="scale(0.996264)"/>
       <use xlink:href="#URWPalladioL-Roma-30" transform="translate(49.8132 0) scale(0.996264)"/>
       <use xlink:href="#URWPalladioL-Roma-30" transform="translate(99.626401 0) scale(0.996264)"/>
      </g>
     </g>
    </g>
    <g id="xtick_7">
     <g id="line2d_7">
      <g>
       <use xlink:href="#m249bb85fc3" x="781.772727" y="576.72" style="stroke: #000000; stroke-width: 0.8"/>
      </g>
     </g>
     <g id="text_7">
      <!-- $\mathdefault{600}$ -->
      <g transform="translate(768.883562 596.016205) scale(0.1725 -0.1725)">
       <defs>
        <path id="URWPalladioL-Roma-36" d="M 2662 4310 
L 2426 4419 
C 1811 4214 1549 4086 1222 3804 
C 563 3246 205 2464 205 1585 
C 205 526 717 -128 1542 -128 
C 2374 -128 2995 532 2995 1405 
C 2995 2143 2554 2624 1875 2624 
C 1555 2624 1363 2540 986 2239 
C 915 2181 909 2175 838 2124 
C 973 3284 1510 3913 2662 4259 
L 2662 4310 
z
M 1632 2239 
C 2118 2239 2445 1816 2445 1181 
C 2445 513 2118 83 1626 83 
C 1082 83 787 551 787 1412 
C 787 1636 813 1758 883 1867 
C 1024 2085 1325 2239 1632 2239 
z
" transform="scale(0.015625)"/>
       </defs>
       <use xlink:href="#URWPalladioL-Roma-36" transform="scale(0.996264)"/>
       <use xlink:href="#URWPalladioL-Roma-30" transform="translate(49.8132 0) scale(0.996264)"/>
       <use xlink:href="#URWPalladioL-Roma-30" transform="translate(99.626401 0) scale(0.996264)"/>
      </g>
     </g>
    </g>
    <g id="xtick_8">
     <g id="line2d_8">
      <g>
       <use xlink:href="#m249bb85fc3" x="883.227273" y="576.72" style="stroke: #000000; stroke-width: 0.8"/>
      </g>
     </g>
     <g id="text_8">
      <!-- $\mathdefault{700}$ -->
      <g transform="translate(870.338107 596.016205) scale(0.1725 -0.1725)">
       <defs>
        <path id="URWPalladioL-Roma-37" d="M 358 32 
L 416 -51 
C 666 -32 666 -32 710 -32 
C 755 -32 755 -32 1005 -51 
C 1274 649 1587 1317 2010 2087 
L 3181 4199 
L 3181 4372 
C 2490 4372 2266 4372 1747 4372 
C 1280 4372 966 4372 346 4372 
L 282 4359 
C 301 3750 301 3750 301 3685 
C 301 3614 301 3614 282 3031 
L 474 3031 
L 518 3390 
C 570 3789 614 3840 909 3840 
L 2618 3840 
C 2362 3313 2163 2941 1920 2549 
L 358 32 
z
" transform="scale(0.015625)"/>
       </defs>
       <use xlink:href="#URWPalladioL-Roma-37" transform="scale(0.996264)"/>
       <use xlink:href="#URWPalladioL-Roma-30" transform="translate(49.8132 0) scale(0.996264)"/>
       <use xlink:href="#URWPalladioL-Roma-30" transform="translate(99.626401 0) scale(0.996264)"/>
      </g>
     </g>
    </g>
    <g id="text_9">
     <!-- $\Omega t$ -->
     <g transform="translate(539.877744 621.257382) scale(0.23 -0.23)">
      <defs>
       <path id="PazoMath-57" d="M 218 1025 
C 256 751 262 311 262 0 
C 397 0 781 0 1024 0 
C 1171 0 1651 0 1786 0 
L 1926 0 
L 1926 244 
C 1869 302 1773 328 1683 392 
C 1645 417 1587 481 1523 577 
C 1350 834 1018 1571 1018 2160 
C 1018 3525 1530 4288 2662 4288 
C 3795 4288 4301 3519 4301 2160 
C 4301 1571 3968 834 3795 577 
C 3731 481 3674 417 3635 392 
C 3539 328 3450 302 3392 244 
L 3392 0 
L 3533 0 
C 3667 0 4147 0 4294 0 
C 4538 0 4922 0 5056 0 
C 5056 311 5062 751 5101 1025 
L 4934 1025 
L 4890 691 
C 4864 506 4781 455 4659 455 
L 3923 455 
C 4326 794 4986 1545 4986 2390 
C 4986 3711 4102 4557 2662 4557 
C 1222 4557 333 3717 333 2390 
C 333 1545 992 794 1395 455 
L 659 455 
C 538 455 454 506 429 691 
L 384 1025 
L 218 1025 
z
" transform="scale(0.015625)"/>
       <path id="URWPalladioL-Ital-74" d="M 800 2465 
L 442 671 
C 435 626 429 615 410 538 
C 371 361 358 265 358 190 
C 358 31 429 -64 550 -64 
C 774 -64 998 62 1498 463 
L 1594 538 
L 1696 621 
L 1632 735 
L 1344 538 
C 1158 412 1030 348 960 348 
C 902 348 870 399 870 474 
C 870 639 960 1153 1146 2072 
L 1229 2465 
L 1914 2465 
L 1984 2784 
C 1741 2752 1523 2752 1280 2752 
C 1382 3348 1453 3659 1568 4001 
L 1498 4097 
C 1370 4021 1197 3944 998 3868 
L 838 2784 
C 557 2650 390 2580 275 2548 
L 262 2465 
L 800 2465 
z
" transform="scale(0.015625)"/>
      </defs>
      <use xlink:href="#PazoMath-57" transform="scale(0.996264)"/>
      <use xlink:href="#URWPalladioL-Ital-74" transform="translate(85.279232 0) scale(0.996264)"/>
     </g>
    </g>
   </g>
   <g id="matplotlib.axis_2">
    <g id="ytick_1">
     <g id="line2d_9">
      <defs>
       <path id="mbbc9af8ad9" d="M 0 0 
L -3.5 0 
" style="stroke: #000000; stroke-width: 0.8"/>
      </defs>
      <g>
       <use xlink:href="#mbbc9af8ad9" x="135" y="561.1275" style="stroke: #000000; stroke-width: 0.8"/>
      </g>
     </g>
     <g id="text_10">
      <!-- $\mathdefault{−3}$ -->
      <g transform="translate(105.272271 567.275602) scale(0.1725 -0.1725)">
       <defs>
        <path id="CMSY10-0" d="M 4218 1472 
C 4326 1472 4442 1472 4442 1600 
C 4442 1728 4326 1728 4218 1728 
L 755 1728 
C 646 1728 531 1728 531 1600 
C 531 1472 646 1472 755 1472 
L 4218 1472 
z
" transform="scale(0.015625)"/>
       </defs>
       <use xlink:href="#CMSY10-0" transform="scale(1.038107)"/>
       <use xlink:href="#URWPalladioL-Roma-33" transform="translate(81.941696 0) scale(0.996264)"/>
      </g>
     </g>
    </g>
    <g id="ytick_2">
     <g id="line2d_10">
      <g>
       <use xlink:href="#mbbc9af8ad9" x="135" y="483.165" style="stroke: #000000; stroke-width: 0.8"/>
      </g>
     </g>
     <g id="text_11">
      <!-- $\mathdefault{−2}$ -->
      <g transform="translate(105.272271 489.313102) scale(0.1725 -0.1725)">
       <use xlink:href="#CMSY10-0" transform="scale(1.038107)"/>
       <use xlink:href="#URWPalladioL-Roma-32" transform="translate(81.941696 0) scale(0.996264)"/>
      </g>
     </g>
    </g>
    <g id="ytick_3">
     <g id="line2d_11">
      <g>
       <use xlink:href="#mbbc9af8ad9" x="135" y="405.2025" style="stroke: #000000; stroke-width: 0.8"/>
      </g>
     </g>
     <g id="text_12">
      <!-- $\mathdefault{−1}$ -->
      <g transform="translate(105.272271 411.350602) scale(0.1725 -0.1725)">
       <use xlink:href="#CMSY10-0" transform="scale(1.038107)"/>
       <use xlink:href="#URWPalladioL-Roma-31" transform="translate(81.941696 0) scale(0.996264)"/>
      </g>
     </g>
    </g>
    <g id="ytick_4">
     <g id="line2d_12">
      <g>
       <use xlink:href="#mbbc9af8ad9" x="135" y="327.24" style="stroke: #000000; stroke-width: 0.8"/>
      </g>
     </g>
     <g id="text_13">
      <!-- $\mathdefault{0}$ -->
      <g transform="translate(119.407223 333.388102) scale(0.1725 -0.1725)">
       <use xlink:href="#URWPalladioL-Roma-30" transform="scale(0.996264)"/>
      </g>
     </g>
    </g>
    <g id="ytick_5">
     <g id="line2d_13">
      <g>
       <use xlink:href="#mbbc9af8ad9" x="135" y="249.2775" style="stroke: #000000; stroke-width: 0.8"/>
      </g>
     </g>
     <g id="text_14">
      <!-- $\mathdefault{1}$ -->
      <g transform="translate(119.407223 255.425602) scale(0.1725 -0.1725)">
       <use xlink:href="#URWPalladioL-Roma-31" transform="scale(0.996264)"/>
      </g>
     </g>
    </g>
    <g id="ytick_6">
     <g id="line2d_14">
      <g>
       <use xlink:href="#mbbc9af8ad9" x="135" y="171.315" style="stroke: #000000; stroke-width: 0.8"/>
      </g>
     </g>
     <g id="text_15">
      <!-- $\mathdefault{2}$ -->
      <g transform="translate(119.407223 177.463102) scale(0.1725 -0.1725)">
       <use xlink:href="#URWPalladioL-Roma-32" transform="scale(0.996264)"/>
      </g>
     </g>
    </g>
    <g id="ytick_7">
     <g id="line2d_15">
      <g>
       <use xlink:href="#mbbc9af8ad9" x="135" y="93.3525" style="stroke: #000000; stroke-width: 0.8"/>
      </g>
     </g>
     <g id="text_16">
      <!-- $\mathdefault{3}$ -->
      <g transform="translate(119.407223 99.500602) scale(0.1725 -0.1725)">
       <use xlink:href="#URWPalladioL-Roma-33" transform="scale(0.996264)"/>
      </g>
     </g>
    </g>
    <g id="text_17">
     <!-- $\theta_X$ -->
     <g transform="translate(94.810632 338.996215) rotate(-90) scale(0.23 -0.23)">
      <defs>
       <path id="PazoMath-Italic-71" d="M 2029 4544 
C 1754 4544 1472 4410 1178 4123 
C 608 3581 186 2616 186 1443 
C 186 428 390 -64 928 -64 
C 1267 -64 1664 172 1965 556 
C 2400 1111 2797 2164 2797 3128 
C 2797 4015 2554 4544 2029 4544 
z
M 1478 2112 
C 1914 2112 2093 2093 2202 2042 
C 2061 1398 1824 825 1619 492 
C 1491 295 1318 181 1126 181 
C 742 181 672 671 672 1430 
C 672 1627 685 1831 717 2036 
C 851 2093 1024 2112 1478 2112 
z
M 1869 4300 
C 2272 4300 2310 3777 2310 2987 
C 2310 2808 2298 2624 2272 2445 
C 2144 2401 1946 2382 1523 2382 
C 1088 2382 902 2401 787 2446 
C 954 3198 1248 3886 1478 4153 
C 1568 4249 1715 4300 1869 4300 
z
" transform="scale(0.015625)"/>
       <path id="URWPalladioL-Ital-58" d="M 2662 172 
L 2662 0 
C 2970 0 3258 0 3526 0 
C 3782 0 4070 0 4378 0 
L 4378 172 
L 4218 185 
C 3955 204 3872 249 3782 402 
L 2688 2361 
L 4102 3970 
C 4294 4181 4352 4219 4518 4238 
L 4698 4251 
L 4698 4416 
L 3968 4416 
C 3891 4416 3802 4416 3232 4416 
L 3232 4238 
L 3443 4238 
C 3648 4238 3731 4206 3731 4129 
C 3731 4058 3699 4000 3584 3858 
L 2554 2597 
L 1888 3877 
C 1830 3994 1798 4071 1798 4122 
C 1798 4200 1882 4238 2074 4238 
L 2310 4238 
L 2310 4416 
L 2016 4416 
C 1754 4416 1562 4416 1459 4416 
C 1350 4416 1158 4416 896 4416 
L 608 4416 
L 608 4251 
L 774 4238 
C 1088 4206 1165 4161 1293 3926 
L 2227 2202 
L 704 402 
C 608 287 461 211 307 191 
L 128 172 
L 128 0 
C 442 0 704 0 928 0 
C 1158 0 1414 0 1690 0 
L 1690 172 
L 1485 191 
C 1242 217 1133 254 1133 331 
C 1133 382 1158 439 1197 490 
L 2362 1966 
L 3123 523 
C 3181 408 3213 325 3213 268 
C 3213 212 3168 191 3008 191 
L 2906 191 
L 2662 172 
z
" transform="scale(0.015625)"/>
      </defs>
      <use xlink:href="#PazoMath-Italic-71" transform="scale(0.996264)"/>
      <use xlink:href="#URWPalladioL-Ital-58" transform="translate(47.561649 -18.085743) scale(0.757155)"/>
     </g>
    </g>
   </g>
   <g id="line2d_16">
    <path d="M 173.045455 265.694448 
L 173.045455 440.113124 
L 174.061355 440.113124 
L 174.061355 556.0211 
L 175.077255 556.0211 
L 175.077255 561.526278 
L 176.093155 561.526278 
L 176.093155 192.95548 
L 177.109054 192.95548 
L 177.109054 138.153281 
L 178.124954 138.153281 
L 178.124954 264.384055 
L 179.140854 264.384055 
L 179.140854 218.517468 
L 180.156754 218.517468 
L 180.156754 300.543784 
L 181.172654 300.543784 
L 181.172654 117.187773 
L 182.188554 117.187773 
L 182.188554 175.845435 
L 183.204454 175.845435 
L 183.204454 570.596249 
L 184.220354 570.596249 
L 184.220354 144.667759 
L 185.236254 144.667759 
L 185.236254 552.967524 
L 186.252154 552.967524 
L 186.252154 241.193914 
L 187.268054 241.193914 
L 187.268054 474.985099 
L 188.283954 474.985099 
L 188.283954 163.785178 
L 189.299854 163.785178 
L 189.299854 302.296845 
L 190.315754 302.296845 
L 190.315754 457.356609 
L 191.331654 457.356609 
L 191.331654 372.294094 
L 192.347554 372.294094 
L 192.347554 556.354962 
L 193.363454 556.354962 
L 193.363454 493.953901 
L 194.379354 493.953901 
L 194.379354 247.262921 
L 195.395254 247.262921 
L 195.395254 232.056808 
L 196.411154 232.056808 
L 196.411154 254.903455 
L 197.427054 254.903455 
L 197.427054 389.337496 
L 198.442954 389.337496 
L 198.442954 84.256984 
L 199.458854 84.256984 
L 199.458854 91.375152 
L 200.474754 91.375152 
L 200.474754 218.851796 
L 201.490654 218.851796 
L 201.490654 246.003355 
L 202.506554 246.003355 
L 202.506554 232.058568 
L 203.522454 232.058568 
L 203.522454 395.467407 
L 204.538354 395.467407 
L 204.538354 516.846295 
L 205.554254 516.846295 
L 205.554254 198.804378 
L 206.570154 198.804378 
L 206.570154 311.464324 
L 207.586054 311.464324 
L 207.586054 412.704076 
L 208.601954 412.704076 
L 208.601954 334.881876 
L 209.617854 334.881876 
L 209.617854 124.531628 
L 210.633754 124.531628 
L 210.633754 111.56106 
L 211.649654 111.56106 
L 211.649654 398.737743 
L 212.665554 398.737743 
L 212.665554 285.137891 
L 213.681454 285.137891 
L 213.681454 427.146727 
L 214.697354 427.146727 
L 214.697354 276.019803 
L 215.713254 276.019803 
L 215.713254 400.38398 
L 216.729154 400.38398 
L 216.729154 375.507074 
L 217.745054 375.507074 
L 217.745054 145.067879 
L 218.760954 145.067879 
L 218.760954 436.328475 
L 219.776854 436.328475 
L 219.776854 263.257273 
L 220.792754 263.257273 
L 220.792754 522.677573 
L 221.808654 522.677573 
L 221.808654 172.012047 
L 222.824554 172.012047 
L 222.824554 196.924961 
L 223.840454 196.924961 
L 223.840454 435.456042 
L 224.856354 435.456042 
L 224.856354 152.74429 
L 225.872254 152.74429 
L 225.872254 542.39168 
L 226.888154 542.39168 
L 226.888154 409.808048 
L 227.904054 409.808048 
L 227.904054 485.229304 
L 228.919954 485.229304 
L 228.919954 355.6726 
L 229.935854 355.6726 
L 229.935854 217.401698 
L 230.951754 217.401698 
L 230.951754 442.392134 
L 231.967654 442.392134 
L 231.967654 545.023621 
L 232.983554 545.023621 
L 232.983554 366.50729 
L 233.999454 366.50729 
L 233.999454 479.54329 
L 235.015354 479.54329 
L 235.015354 525.49665 
L 236.031254 525.49665 
L 236.031254 297.237979 
L 237.047154 297.237979 
L 237.047154 421.729174 
L 238.063054 421.729174 
L 238.063054 228.2739 
L 239.078954 228.2739 
L 239.078954 474.154579 
L 240.094854 474.154579 
L 240.094854 114.120001 
L 241.110754 114.120001 
L 241.110754 399.685624 
L 242.126654 399.685624 
L 242.126654 515.557457 
L 243.142554 515.557457 
L 243.142554 257.031457 
L 244.158454 257.031457 
L 244.158454 120.529533 
L 245.174354 120.529533 
L 245.174354 362.506176 
L 246.190254 362.506176 
L 246.190254 102.011616 
L 247.206154 102.011616 
L 247.206154 327.29925 
L 248.222054 327.29925 
L 248.222054 358.376995 
L 249.237954 358.376995 
L 249.237954 267.575464 
L 250.253854 267.575464 
L 250.253854 85.532221 
L 251.269754 85.532221 
L 251.269754 107.761384 
L 252.285654 107.761384 
L 252.285654 350.282941 
L 253.301554 350.282941 
L 253.301554 181.095906 
L 254.317454 181.095906 
L 254.317454 329.108961 
L 255.333354 329.108961 
L 255.333354 313.970889 
L 256.349254 313.970889 
L 256.349254 194.809073 
L 257.365154 194.809073 
L 257.365154 366.941838 
L 258.381054 366.941838 
L 258.381054 199.210818 
L 259.396954 199.210818 
L 259.396954 213.187356 
L 260.412854 213.187356 
L 260.412854 123.229348 
L 261.428753 123.229348 
L 261.428753 509.767509 
L 262.444653 509.767509 
L 262.444653 181.740937 
L 263.460553 181.740937 
L 263.460553 115.886598 
L 264.476453 115.886598 
L 264.476453 100.740745 
L 265.492353 100.740745 
L 265.492353 565.214644 
L 266.508253 565.214644 
L 266.508253 159.79711 
L 267.524153 159.79711 
L 267.524153 94.206822 
L 268.540053 94.206822 
L 268.540053 98.462636 
L 269.555953 98.462636 
L 269.555953 493.546654 
L 270.571853 493.546654 
L 270.571853 96.187667 
L 271.587753 96.187667 
L 271.587753 137.951185 
L 272.603653 137.951185 
L 272.603653 171.940563 
L 273.619553 171.940563 
L 273.619553 336.150713 
L 274.635453 336.150713 
L 274.635453 468.292491 
L 275.651353 468.292491 
L 275.651353 199.451181 
L 276.667253 199.451181 
L 276.667253 138.731218 
L 277.683153 138.731218 
L 277.683153 453.911273 
L 278.699053 453.911273 
L 278.699053 306.863251 
L 279.714953 306.863251 
L 279.714953 361.092424 
L 280.730853 361.092424 
L 280.730853 121.335662 
L 281.746753 121.335662 
L 281.746753 554.609678 
L 282.762653 554.609678 
L 282.762653 215.609593 
L 283.778553 215.609593 
L 283.778553 277.049362 
L 284.794453 277.049362 
L 284.794453 555.773625 
L 285.810353 555.773625 
L 285.810353 217.431424 
L 286.826253 217.431424 
L 286.826253 561.420136 
L 287.842153 561.420136 
L 287.842153 191.1498 
L 288.858053 191.1498 
L 288.858053 319.754921 
L 289.873953 319.754921 
L 289.873953 112.252959 
L 290.889853 112.252959 
L 290.889853 539.82704 
L 291.905753 539.82704 
L 291.905753 171.836942 
L 292.921653 171.836942 
L 292.921653 536.823283 
L 293.937553 536.823283 
L 293.937553 427.383145 
L 294.953453 427.383145 
L 294.953453 380.396491 
L 295.969353 380.396491 
L 295.969353 102.161228 
L 296.985253 102.161228 
L 296.985253 305.580479 
L 298.001153 305.580479 
L 298.001153 407.117208 
L 299.017053 407.117208 
L 299.017053 436.784141 
L 300.032953 436.784141 
L 300.032953 134.644174 
L 301.048853 134.644174 
L 301.048853 440.996871 
L 302.064753 440.996871 
L 302.064753 490.434148 
L 303.080653 490.434148 
L 303.080653 392.027345 
L 304.096553 392.027345 
L 304.096553 284.85207 
L 305.112453 284.85207 
L 305.112453 291.785674 
L 306.128353 291.785674 
L 306.128353 188.577644 
L 307.144253 188.577644 
L 307.144253 286.10367 
L 308.160153 286.10367 
L 308.160153 426.574747 
L 309.176053 426.574747 
L 309.176053 366.392981 
L 310.191953 366.392981 
L 310.191953 171.13794 
L 311.207853 171.13794 
L 311.207853 231.945716 
L 312.223753 231.945716 
L 312.223753 101.784871 
L 313.239653 101.784871 
L 313.239653 424.299967 
L 314.255553 424.299967 
L 314.255553 297.839163 
L 315.271453 297.839163 
L 315.271453 279.650789 
L 316.287353 279.650789 
L 316.287353 159.542557 
L 317.303253 159.542557 
L 317.303253 491.738617 
L 318.319153 491.738617 
L 318.319153 379.994119 
L 319.335053 379.994119 
L 319.335053 140.046231 
L 320.350953 140.046231 
L 320.350953 550.897689 
L 321.366853 550.897689 
L 321.366853 173.453458 
L 322.382753 173.453458 
L 322.382753 362.705471 
L 323.398653 362.705471 
L 323.398653 164.551418 
L 324.414553 164.551418 
L 324.414553 567.207008 
L 325.430453 567.207008 
L 325.430453 389.010843 
L 326.446353 389.010843 
L 326.446353 521.789965 
L 327.462253 521.789965 
L 327.462253 281.756917 
L 328.478153 281.756917 
L 328.478153 456.851096 
L 329.494053 456.851096 
L 329.494053 196.99489 
L 330.509953 196.99489 
L 330.509953 112.326506 
L 331.525853 112.326506 
L 331.525853 513.149809 
L 332.541753 513.149809 
L 332.541753 139.426071 
L 333.557653 139.426071 
L 333.557653 545.848364 
L 334.573553 545.848364 
L 334.573553 380.639809 
L 335.589453 380.639809 
L 335.589453 376.710971 
L 336.605353 376.710971 
L 336.605353 331.361078 
L 337.621253 331.361078 
L 337.621253 93.919269 
L 338.637153 93.919269 
L 338.637153 215.198793 
L 339.653053 215.198793 
L 339.653053 395.580559 
L 340.668953 395.580559 
L 340.668953 419.065631 
L 341.684853 419.065631 
L 341.684853 147.280342 
L 342.700753 147.280342 
L 342.700753 143.209834 
L 343.716653 143.209834 
L 343.716653 322.435926 
L 344.732552 322.435926 
L 344.732552 415.547456 
L 345.748452 415.547456 
L 345.748452 84.290289 
L 346.764352 84.290289 
L 346.764352 413.097993 
L 347.780252 413.097993 
L 347.780252 442.30822 
L 348.796152 442.30822 
L 348.796152 171.98506 
L 349.812052 171.98506 
L 349.812052 179.086374 
L 350.827952 179.086374 
L 350.827952 262.423092 
L 351.843852 262.423092 
L 351.843852 105.851537 
L 352.859752 105.851537 
L 352.859752 127.13837 
L 353.875652 127.13837 
L 353.875652 228.054312 
L 354.891552 228.054312 
L 354.891552 172.843592 
L 355.907452 172.843592 
L 355.907452 459.069995 
L 356.923352 459.069995 
L 356.923352 504.710819 
L 357.939252 504.710819 
L 357.939252 243.380988 
L 358.955152 243.380988 
L 358.955152 219.735037 
L 359.971052 219.735037 
L 359.971052 480.286637 
L 360.986952 480.286637 
L 360.986952 376.499471 
L 362.002852 376.499471 
L 362.002852 118.487546 
L 363.018752 118.487546 
L 363.018752 300.522699 
L 364.034652 300.522699 
L 364.034652 270.84607 
L 365.050552 270.84607 
L 365.050552 482.360572 
L 366.066452 482.360572 
L 366.066452 312.999778 
L 367.082352 312.999778 
L 367.082352 314.835515 
L 368.098252 314.835515 
L 368.098252 525.859479 
L 369.114152 525.859479 
L 369.114152 93.445186 
L 370.130052 93.445186 
L 370.130052 303.971981 
L 371.145952 303.971981 
L 371.145952 568.443004 
L 372.161852 568.443004 
L 372.161852 209.441238 
L 373.177752 209.441238 
L 373.177752 93.315868 
L 374.193652 93.315868 
L 374.193652 291.597233 
L 375.209552 291.597233 
L 375.209552 442.601149 
L 376.225452 442.601149 
L 376.225452 483.842761 
L 377.241352 483.842761 
L 377.241352 213.290576 
L 378.257252 213.290576 
L 378.257252 475.636536 
L 379.273152 475.636536 
L 379.273152 290.436855 
L 380.289052 290.436855 
L 380.289052 283.841284 
L 381.304952 283.841284 
L 381.304952 102.623053 
L 382.320852 102.623053 
L 382.320852 528.152372 
L 383.336752 528.152372 
L 383.336752 327.250754 
L 384.352652 327.250754 
L 384.352652 210.69528 
L 385.368552 210.69528 
L 385.368552 479.910623 
L 386.384452 479.910623 
L 386.384452 378.446523 
L 387.400352 378.446523 
L 387.400352 525.381292 
L 388.416252 525.381292 
L 388.416252 255.13393 
L 389.432152 255.13393 
L 389.432152 508.037129 
L 390.448052 508.037129 
L 390.448052 390.508962 
L 391.463952 390.508962 
L 391.463952 157.185954 
L 392.479852 157.185954 
L 392.479852 344.779242 
L 393.495752 344.779242 
L 393.495752 126.953432 
L 394.511652 126.953432 
L 394.511652 194.715726 
L 395.527552 194.715726 
L 395.527552 139.544695 
L 396.543452 139.544695 
L 396.543452 492.553106 
L 397.559352 492.553106 
L 397.559352 521.025619 
L 398.575252 521.025619 
L 398.575252 544.605227 
L 399.591152 544.605227 
L 399.591152 141.199053 
L 400.607052 141.199053 
L 400.607052 251.968423 
L 401.622952 251.968423 
L 401.622952 328.825036 
L 402.638852 328.825036 
L 402.638852 490.724681 
L 403.654752 490.724681 
L 403.654752 218.370328 
L 404.670652 218.370328 
L 404.670652 439.910869 
L 405.686552 439.910869 
L 405.686552 214.981661 
L 406.702452 214.981661 
L 406.702452 346.528706 
L 407.718352 346.528706 
L 407.718352 321.598777 
L 408.734252 321.598777 
L 408.734252 169.54804 
L 409.750152 169.54804 
L 409.750152 522.742656 
L 410.766052 522.742656 
L 410.766052 283.908165 
L 411.781952 283.908165 
L 411.781952 451.296107 
L 412.797852 451.296107 
L 412.797852 183.66613 
L 413.813752 183.66613 
L 413.813752 333.791024 
L 414.829652 333.791024 
L 414.829652 88.253404 
L 415.845552 88.253404 
L 415.845552 478.697764 
L 416.861452 478.697764 
L 416.861452 102.998748 
L 417.877352 102.998748 
L 417.877352 195.590377 
L 418.893252 195.590377 
L 418.893252 335.390933 
L 419.909152 335.390933 
L 419.909152 195.917864 
L 420.925052 195.917864 
L 420.925052 278.206389 
L 421.940952 278.206389 
L 421.940952 243.119277 
L 422.956852 243.119277 
L 422.956852 132.281889 
L 423.972752 132.281889 
L 423.972752 536.929117 
L 424.988652 536.929117 
L 424.988652 166.821894 
L 426.004552 166.821894 
L 426.004552 397.751361 
L 427.020452 397.751361 
L 427.020452 418.329375 
L 428.036351 418.329375 
L 428.036351 85.156773 
L 429.052251 85.156773 
L 429.052251 197.226116 
L 430.068151 197.226116 
L 430.068151 338.240592 
L 431.084051 338.240592 
L 431.084051 371.215448 
L 432.099951 371.215448 
L 432.099951 151.932135 
L 433.115851 151.932135 
L 433.115851 524.856264 
L 434.131751 524.856264 
L 434.131751 238.867868 
L 435.147651 238.867868 
L 435.147651 202.11514 
L 436.163551 202.11514 
L 436.163551 174.64045 
L 437.179451 174.64045 
L 437.179451 405.858009 
L 438.195351 405.858009 
L 438.195351 200.155793 
L 439.211251 200.155793 
L 439.211251 430.429759 
L 440.227151 430.429759 
L 440.227151 408.687079 
L 441.243051 408.687079 
L 441.243051 373.468299 
L 442.258951 373.468299 
L 442.258951 309.1484 
L 443.274851 309.1484 
L 443.274851 508.49248 
L 444.290751 508.49248 
L 444.290751 380.762134 
L 445.306651 380.762134 
L 445.306651 571.977519 
L 446.322551 571.977519 
L 446.322551 180.112726 
L 447.338451 180.112726 
L 447.338451 145.874545 
L 448.354351 145.874545 
L 448.354351 492.354265 
L 449.370251 492.354265 
L 449.370251 226.45799 
L 450.386151 226.45799 
L 450.386151 196.820167 
L 451.402051 196.820167 
L 451.402051 92.650029 
L 452.417951 92.650029 
L 452.417951 163.011768 
L 453.433851 163.011768 
L 453.433851 356.840372 
L 454.449751 356.840372 
L 454.449751 92.044426 
L 455.465651 92.044426 
L 455.465651 99.86294 
L 456.481551 99.86294 
L 456.481551 325.461416 
L 457.497451 325.461416 
L 457.497451 204.840216 
L 458.513351 204.840216 
L 458.513351 122.808854 
L 459.529251 122.808854 
L 459.529251 342.077734 
L 460.545151 342.077734 
L 460.545151 152.490714 
L 461.561051 152.490714 
L 461.561051 223.720691 
L 462.576951 223.720691 
L 462.576951 461.505331 
L 463.592851 461.505331 
L 463.592851 172.222162 
L 464.608751 172.222162 
L 464.608751 279.732732 
L 465.624651 279.732732 
L 465.624651 519.567084 
L 466.640551 519.567084 
L 466.640551 366.935575 
L 467.656451 366.935575 
L 467.656451 534.013781 
L 468.672351 534.013781 
L 468.672351 341.644824 
L 469.688251 341.644824 
L 469.688251 371.160033 
L 470.704151 371.160033 
L 470.704151 372.810746 
L 471.720051 372.810746 
L 471.720051 252.07227 
L 472.735951 252.07227 
L 472.735951 515.87889 
L 473.751851 515.87889 
L 473.751851 116.107419 
L 474.767751 116.107419 
L 474.767751 250.135783 
L 475.783651 250.135783 
L 475.783651 172.68705 
L 476.799551 172.68705 
L 476.799551 129.808204 
L 477.815451 129.808204 
L 477.815451 273.221541 
L 478.831351 273.221541 
L 478.831351 554.68092 
L 479.847251 554.68092 
L 479.847251 222.104473 
L 480.863151 222.104473 
L 480.863151 296.544708 
L 481.879051 296.544708 
L 481.879051 160.961771 
L 482.894951 160.961771 
L 482.894951 314.034229 
L 483.910851 314.034229 
L 483.910851 171.939928 
L 484.926751 171.939928 
L 484.926751 84.149905 
L 485.942651 84.149905 
L 485.942651 398.805104 
L 486.958551 398.805104 
L 486.958551 465.652605 
L 487.974451 465.652605 
L 487.974451 379.656571 
L 488.990351 379.656571 
L 488.990351 194.809719 
L 490.006251 194.809719 
L 490.006251 360.744504 
L 491.022151 360.744504 
L 491.022151 296.290636 
L 492.038051 296.290636 
L 492.038051 476.195827 
L 493.053951 476.195827 
L 493.053951 221.761405 
L 494.069851 221.761405 
L 494.069851 437.237256 
L 495.085751 437.237256 
L 495.085751 496.16611 
L 496.101651 496.16611 
L 496.101651 160.046888 
L 497.117551 160.046888 
L 497.117551 303.112015 
L 498.133451 303.112015 
L 498.133451 337.57303 
L 499.149351 337.57303 
L 499.149351 153.939743 
L 500.165251 153.939743 
L 500.165251 524.178428 
L 501.181151 524.178428 
L 501.181151 213.054086 
L 502.197051 213.054086 
L 502.197051 439.874147 
L 503.212951 439.874147 
L 503.212951 494.676485 
L 504.228851 494.676485 
L 504.228851 242.766858 
L 505.244751 242.766858 
L 505.244751 381.62065 
L 506.260651 381.62065 
L 506.260651 388.489882 
L 507.276551 388.489882 
L 507.276551 118.657982 
L 508.292451 118.657982 
L 508.292451 454.645254 
L 509.308351 454.645254 
L 509.308351 320.048471 
L 510.324251 320.048471 
L 510.324251 561.698098 
L 511.340151 561.698098 
L 511.340151 487.583903 
L 512.35605 487.583903 
L 512.35605 150.759575 
L 513.37195 150.759575 
L 513.37195 198.584776 
L 514.38785 198.584776 
L 514.38785 284.178602 
L 515.40375 284.178602 
L 515.40375 446.53374 
L 516.41965 446.53374 
L 516.41965 301.50228 
L 517.43555 301.50228 
L 517.43555 565.370247 
L 518.45145 565.370247 
L 518.45145 201.449759 
L 519.46735 201.449759 
L 519.46735 216.928078 
L 520.48325 216.928078 
L 520.48325 245.348419 
L 521.49915 245.348419 
L 521.49915 276.427446 
L 522.51505 276.427446 
L 522.51505 535.629877 
L 523.53095 535.629877 
L 523.53095 457.060541 
L 524.54685 457.060541 
L 524.54685 283.863029 
L 525.56275 283.863029 
L 525.56275 392.123282 
L 526.57865 392.123282 
L 526.57865 86.851401 
L 527.59455 86.851401 
L 527.59455 134.119001 
L 528.61045 134.119001 
L 528.61045 488.18677 
L 529.62635 488.18677 
L 529.62635 279.269942 
L 530.64225 279.269942 
L 530.64225 239.326351 
L 531.65815 239.326351 
L 531.65815 501.276424 
L 532.67405 501.276424 
L 532.67405 404.246659 
L 533.68995 404.246659 
L 533.68995 236.820144 
L 534.70585 236.820144 
L 534.70585 130.885977 
L 535.72175 130.885977 
L 535.72175 426.613989 
L 536.73765 426.613989 
L 536.73765 466.482344 
L 537.75355 466.482344 
L 537.75355 195.894002 
L 538.76945 195.894002 
L 538.76945 295.444754 
L 539.78535 295.444754 
L 539.78535 336.822552 
L 540.80125 336.822552 
L 540.80125 449.417708 
L 541.81715 449.417708 
L 541.81715 546.274299 
L 542.83305 546.274299 
L 542.83305 564.439614 
L 543.84895 564.439614 
L 543.84895 288.153048 
L 544.86485 288.153048 
L 544.86485 496.392001 
L 545.88075 496.392001 
L 545.88075 92.266595 
L 546.89665 92.266595 
L 546.89665 524.691023 
L 547.91255 524.691023 
L 547.91255 345.727356 
L 548.92845 345.727356 
L 548.92845 367.066556 
L 549.94435 367.066556 
L 549.94435 461.89521 
L 550.96025 461.89521 
L 550.96025 183.875616 
L 551.97615 183.875616 
L 551.97615 232.7764 
L 552.99205 232.7764 
L 552.99205 202.523456 
L 554.00795 202.523456 
L 554.00795 526.222229 
L 555.02385 526.222229 
L 555.02385 400.307031 
L 556.03975 400.307031 
L 556.03975 314.278281 
L 557.05565 314.278281 
L 557.05565 371.259203 
L 558.07155 371.259203 
L 558.07155 546.646908 
L 559.08745 546.646908 
L 559.08745 469.188462 
L 560.10335 469.188462 
L 560.10335 109.451943 
L 561.11925 109.451943 
L 561.11925 499.169065 
L 562.13515 499.169065 
L 562.13515 149.569445 
L 563.15105 149.569445 
L 563.15105 166.637929 
L 564.16695 166.637929 
L 564.16695 398.948238 
L 565.18285 398.948238 
L 565.18285 347.191173 
L 566.19875 347.191173 
L 566.19875 168.305168 
L 567.21465 168.305168 
L 567.21465 241.580465 
L 568.23055 241.580465 
L 568.23055 178.900304 
L 569.24645 178.900304 
L 569.24645 193.893298 
L 570.26235 193.893298 
L 570.26235 249.129388 
L 571.27825 249.129388 
L 571.27825 132.793786 
L 572.29415 132.793786 
L 572.29415 171.786242 
L 573.31005 171.786242 
L 573.31005 490.632611 
L 574.32595 490.632611 
L 574.32595 210.422706 
L 575.34185 210.422706 
L 575.34185 515.34257 
L 576.35775 515.34257 
L 576.35775 359.163747 
L 577.37365 359.163747 
L 577.37365 384.214272 
L 578.38955 384.214272 
L 578.38955 446.87702 
L 579.40545 446.87702 
L 579.40545 121.150737 
L 580.42135 121.150737 
L 580.42135 531.088176 
L 581.43725 531.088176 
L 581.43725 570.172599 
L 582.45315 570.172599 
L 582.45315 428.748424 
L 583.46905 428.748424 
L 583.46905 87.703268 
L 584.48495 87.703268 
L 584.48495 438.193341 
L 585.50085 438.193341 
L 585.50085 176.451789 
L 586.51675 176.451789 
L 586.51675 497.507316 
L 587.53265 497.507316 
L 587.53265 279.811522 
L 588.54855 279.811522 
L 588.54855 105.038735 
L 589.56445 105.038735 
L 589.56445 228.016435 
L 590.58035 228.016435 
L 590.58035 94.997777 
L 591.59625 94.997777 
L 591.59625 286.501666 
L 592.61215 286.501666 
L 592.61215 93.028562 
L 593.62805 93.028562 
L 593.62805 160.81485 
L 594.64395 160.81485 
L 594.64395 188.11722 
L 595.659849 188.11722 
L 595.659849 136.036059 
L 596.675749 136.036059 
L 596.675749 259.847211 
L 597.691649 259.847211 
L 597.691649 397.408799 
L 598.707549 397.408799 
L 598.707549 318.688599 
L 599.723449 318.688599 
L 599.723449 466.650035 
L 600.739349 466.650035 
L 600.739349 207.771857 
L 601.755249 207.771857 
L 601.755249 474.727093 
L 602.771149 474.727093 
L 602.771149 292.798967 
L 603.787049 292.798967 
L 603.787049 311.083952 
L 604.802949 311.083952 
L 604.802949 227.817816 
L 605.818849 227.817816 
L 605.818849 217.69782 
L 606.834749 217.69782 
L 606.834749 509.486012 
L 607.850649 509.486012 
L 607.850649 239.439501 
L 608.866549 239.439501 
L 608.866549 371.164421 
L 609.882449 371.164421 
L 609.882449 269.437592 
L 610.898349 269.437592 
L 610.898349 263.44664 
L 611.914249 263.44664 
L 611.914249 300.4504 
L 612.930149 300.4504 
L 612.930149 197.507151 
L 613.946049 197.507151 
L 613.946049 318.024526 
L 614.961949 318.024526 
L 614.961949 345.074359 
L 615.977849 345.074359 
L 615.977849 426.082308 
L 616.993749 426.082308 
L 616.993749 473.700328 
L 618.009649 473.700328 
L 618.009649 226.541353 
L 619.025549 226.541353 
L 619.025549 225.94389 
L 620.041449 225.94389 
L 620.041449 497.296383 
L 621.057349 497.296383 
L 621.057349 91.281717 
L 622.073249 91.281717 
L 622.073249 235.106117 
L 623.089149 235.106117 
L 623.089149 308.960614 
L 624.105049 308.960614 
L 624.105049 150.8514 
L 625.120949 150.8514 
L 625.120949 333.150646 
L 626.136849 333.150646 
L 626.136849 341.025877 
L 627.152749 341.025877 
L 627.152749 465.943273 
L 628.168649 465.943273 
L 628.168649 479.531828 
L 629.184549 479.531828 
L 629.184549 243.358584 
L 630.200449 243.358584 
L 630.200449 176.741211 
L 631.216349 176.741211 
L 631.216349 205.709838 
L 632.232249 205.709838 
L 632.232249 388.524716 
L 633.248149 388.524716 
L 633.248149 296.366144 
L 634.264049 296.366144 
L 634.264049 294.790301 
L 635.279949 294.790301 
L 635.279949 103.577489 
L 636.295849 103.577489 
L 636.295849 371.848253 
L 637.311749 371.848253 
L 637.311749 511.337079 
L 638.327649 511.337079 
L 638.327649 127.209821 
L 639.343549 127.209821 
L 639.343549 129.154078 
L 640.359449 129.154078 
L 640.359449 550.268616 
L 641.375349 550.268616 
L 641.375349 506.810722 
L 642.391249 506.810722 
L 642.391249 254.7813 
L 643.407149 254.7813 
L 643.407149 197.266844 
L 644.423049 197.266844 
L 644.423049 272.342284 
L 645.438949 272.342284 
L 645.438949 469.890254 
L 646.454849 469.890254 
L 646.454849 504.895491 
L 647.470749 504.895491 
L 647.470749 324.161242 
L 648.486649 324.161242 
L 648.486649 188.308288 
L 649.502549 188.308288 
L 649.502549 447.226159 
L 650.518449 447.226159 
L 650.518449 530.959286 
L 651.534349 530.959286 
L 651.534349 297.020492 
L 652.550249 297.020492 
L 652.550249 451.143679 
L 653.566149 451.143679 
L 653.566149 533.861573 
L 654.582049 533.861573 
L 654.582049 198.354786 
L 655.597949 198.354786 
L 655.597949 172.207336 
L 656.613849 172.207336 
L 656.613849 370.698807 
L 657.629749 370.698807 
L 657.629749 442.785198 
L 658.645649 442.785198 
L 658.645649 463.591832 
L 659.661549 463.591832 
L 659.661549 401.708446 
L 660.677449 401.708446 
L 660.677449 286.192955 
L 661.693349 286.192955 
L 661.693349 311.912856 
L 662.709249 311.912856 
L 662.709249 387.888542 
L 663.725149 387.888542 
L 663.725149 253.99275 
L 664.741049 253.99275 
L 664.741049 202.870946 
L 665.756949 202.870946 
L 665.756949 297.550487 
L 666.772849 297.550487 
L 666.772849 398.047495 
L 667.788749 398.047495 
L 667.788749 256.902296 
L 668.804649 256.902296 
L 668.804649 278.098888 
L 669.820549 278.098888 
L 669.820549 427.420181 
L 670.836449 427.420181 
L 670.836449 430.3095 
L 671.852349 430.3095 
L 671.852349 297.150085 
L 672.868249 297.150085 
L 672.868249 247.351536 
L 673.884149 247.351536 
L 673.884149 257.353013 
L 674.900049 257.353013 
L 674.900049 391.83405 
L 675.915949 391.83405 
L 675.915949 288.400031 
L 676.931849 288.400031 
L 676.931849 93.362628 
L 677.947749 93.362628 
L 677.947749 363.326724 
L 678.963649 363.326724 
L 678.963649 171.304792 
L 679.979548 171.304792 
L 679.979548 528.770176 
L 680.995448 528.770176 
L 680.995448 135.949197 
L 682.011348 135.949197 
L 682.011348 118.976145 
L 683.027248 118.976145 
L 683.027248 426.058639 
L 684.043148 426.058639 
L 684.043148 565.71786 
L 685.059048 565.71786 
L 685.059048 335.270888 
L 686.074948 335.270888 
L 686.074948 493.953816 
L 687.090848 493.953816 
L 687.090848 95.653615 
L 688.106748 95.653615 
L 688.106748 120.208777 
L 689.122648 120.208777 
L 689.122648 103.8074 
L 690.138548 103.8074 
L 690.138548 263.211272 
L 691.154448 263.211272 
L 691.154448 320.830118 
L 692.170348 320.830118 
L 692.170348 174.985832 
L 693.186248 174.985832 
L 693.186248 267.287821 
L 694.202148 267.287821 
L 694.202148 462.25393 
L 695.218048 462.25393 
L 695.218048 120.804762 
L 696.233948 120.804762 
L 696.233948 348.575503 
L 697.249848 348.575503 
L 697.249848 214.444985 
L 698.265748 214.444985 
L 698.265748 326.708229 
L 699.281648 326.708229 
L 699.281648 462.010983 
L 700.297548 462.010983 
L 700.297548 444.454912 
L 701.313448 444.454912 
L 701.313448 291.863603 
L 702.329348 291.863603 
L 702.329348 504.961981 
L 703.345248 504.961981 
L 703.345248 566.459875 
L 704.361148 566.459875 
L 704.361148 361.848039 
L 705.377048 361.848039 
L 705.377048 214.031845 
L 706.392948 214.031845 
L 706.392948 266.360297 
L 707.408848 266.360297 
L 707.408848 441.000712 
L 708.424748 441.000712 
L 708.424748 188.586896 
L 709.440648 188.586896 
L 709.440648 337.280661 
L 710.456548 337.280661 
L 710.456548 82.560993 
L 711.472448 82.560993 
L 711.472448 189.707322 
L 712.488348 189.707322 
L 712.488348 162.389596 
L 713.504248 162.389596 
L 713.504248 455.249351 
L 714.520148 455.249351 
L 714.520148 510.092055 
L 715.536048 510.092055 
L 715.536048 463.843906 
L 716.551948 463.843906 
L 716.551948 359.934636 
L 717.567848 359.934636 
L 717.567848 318.602028 
L 718.583748 318.602028 
L 718.583748 483.217972 
L 719.599648 483.217972 
L 719.599648 190.129617 
L 720.615548 190.129617 
L 720.615548 152.840267 
L 721.631448 152.840267 
L 721.631448 440.595355 
L 722.647348 440.595355 
L 722.647348 323.187033 
L 723.663248 323.187033 
L 723.663248 287.653418 
L 724.679148 287.653418 
L 724.679148 207.457136 
L 725.695048 207.457136 
L 725.695048 500.013174 
L 726.710948 500.013174 
L 726.710948 429.834703 
L 727.726848 429.834703 
L 727.726848 211.641447 
L 728.742748 211.641447 
L 728.742748 285.907261 
L 729.758648 285.907261 
L 729.758648 135.172702 
L 730.774548 135.172702 
L 730.774548 359.940157 
L 731.790448 359.940157 
L 731.790448 367.157991 
L 732.806348 367.157991 
L 732.806348 443.700049 
L 733.822248 443.700049 
L 733.822248 467.081045 
L 734.838148 467.081045 
L 734.838148 258.004196 
L 735.854048 258.004196 
L 735.854048 433.821315 
L 736.869948 433.821315 
L 736.869948 177.449236 
L 737.885848 177.449236 
L 737.885848 399.660299 
L 738.901748 399.660299 
L 738.901748 252.829753 
L 739.917648 252.829753 
L 739.917648 290.810285 
L 740.933548 290.810285 
L 740.933548 283.371714 
L 741.949448 283.371714 
L 741.949448 139.062426 
L 742.965348 139.062426 
L 742.965348 461.749452 
L 743.981248 461.749452 
L 743.981248 490.104337 
L 744.997148 490.104337 
L 744.997148 509.607887 
L 746.013048 509.607887 
L 746.013048 530.233335 
L 747.028948 530.233335 
L 747.028948 305.440473 
L 748.044848 305.440473 
L 748.044848 483.203745 
L 749.060748 483.203745 
L 749.060748 191.607859 
L 750.076648 191.607859 
L 750.076648 561.919591 
L 751.092548 561.919591 
L 751.092548 406.369714 
L 752.108448 406.369714 
L 752.108448 341.738169 
L 753.124348 341.738169 
L 753.124348 482.841864 
L 754.140248 482.841864 
L 754.140248 400.475822 
L 755.156148 400.475822 
L 755.156148 475.81929 
L 756.172048 475.81929 
L 756.172048 438.936705 
L 757.187948 438.936705 
L 757.187948 121.55959 
L 758.203848 121.55959 
L 758.203848 362.428576 
L 759.219748 362.428576 
L 759.219748 383.860822 
L 760.235648 383.860822 
L 760.235648 279.819059 
L 761.251548 279.819059 
L 761.251548 271.37049 
L 762.267448 271.37049 
L 762.267448 234.768813 
L 763.283347 234.768813 
L 763.283347 529.751548 
L 764.299247 529.751548 
L 764.299247 279.858079 
L 765.315147 279.858079 
L 765.315147 212.381796 
L 766.331047 212.381796 
L 766.331047 181.312403 
L 767.346947 181.312403 
L 767.346947 296.600386 
L 768.362847 296.600386 
L 768.362847 511.798611 
L 769.378747 511.798611 
L 769.378747 538.90298 
L 770.394647 538.90298 
L 770.394647 413.139582 
L 771.410547 413.139582 
L 771.410547 110.573933 
L 772.426447 110.573933 
L 772.426447 344.743981 
L 773.442347 344.743981 
L 773.442347 132.842452 
L 774.458247 132.842452 
L 774.458247 356.600554 
L 775.474147 356.600554 
L 775.474147 182.749824 
L 776.490047 182.749824 
L 776.490047 335.369088 
L 777.505947 335.369088 
L 777.505947 208.174181 
L 778.521847 208.174181 
L 778.521847 440.394053 
L 779.537747 440.394053 
L 779.537747 146.667882 
L 780.553647 146.667882 
L 780.553647 440.390523 
L 781.569547 440.390523 
L 781.569547 568.335117 
L 782.585447 568.335117 
L 782.585447 224.634027 
L 783.601347 224.634027 
L 783.601347 266.708312 
L 784.617247 266.708312 
L 784.617247 269.70516 
L 785.633147 269.70516 
L 785.633147 234.686085 
L 786.649047 234.686085 
L 786.649047 298.243528 
L 787.664947 298.243528 
L 787.664947 504.001099 
L 788.680847 504.001099 
L 788.680847 235.849995 
L 789.696747 235.849995 
L 789.696747 568.658259 
L 790.712647 568.658259 
L 790.712647 494.670782 
L 791.728547 494.670782 
L 791.728547 376.770783 
L 792.744447 376.770783 
L 792.744447 383.822363 
L 793.760347 383.822363 
L 793.760347 522.841352 
L 794.776247 522.841352 
L 794.776247 374.72508 
L 795.792147 374.72508 
L 795.792147 234.638845 
L 796.808047 234.638845 
L 796.808047 404.506226 
L 797.823947 404.506226 
L 797.823947 219.231219 
L 798.839847 219.231219 
L 798.839847 477.022011 
L 799.855747 477.022011 
L 799.855747 513.419001 
L 800.871647 513.419001 
L 800.871647 229.082042 
L 801.887547 229.082042 
L 801.887547 261.584497 
L 802.903447 261.584497 
L 802.903447 365.197986 
L 803.919347 365.197986 
L 803.919347 491.778325 
L 804.935247 491.778325 
L 804.935247 227.290813 
L 805.951147 227.290813 
L 805.951147 213.105918 
L 806.967047 213.105918 
L 806.967047 478.147017 
L 807.982947 478.147017 
L 807.982947 196.837983 
L 808.998847 196.837983 
L 808.998847 406.695442 
L 810.014747 406.695442 
L 810.014747 121.801968 
L 811.030647 121.801968 
L 811.030647 219.513465 
L 812.046547 219.513465 
L 812.046547 436.522004 
L 813.062447 436.522004 
L 813.062447 104.935078 
L 814.078347 104.935078 
L 814.078347 560.080495 
L 815.094247 560.080495 
L 815.094247 463.684255 
L 816.110147 463.684255 
L 816.110147 478.054244 
L 817.126047 478.054244 
L 817.126047 183.231643 
L 818.141947 183.231643 
L 818.141947 313.285146 
L 819.157847 313.285146 
L 819.157847 346.349807 
L 820.173747 346.349807 
L 820.173747 484.462609 
L 821.189647 484.462609 
L 821.189647 209.649304 
L 822.205547 209.649304 
L 822.205547 489.754229 
L 823.221447 489.754229 
L 823.221447 443.52856 
L 824.237347 443.52856 
L 824.237347 165.92252 
L 825.253247 165.92252 
L 825.253247 359.923354 
L 826.269147 359.923354 
L 826.269147 138.568362 
L 827.285047 138.568362 
L 827.285047 290.071192 
L 828.300947 290.071192 
L 828.300947 175.847948 
L 829.316847 175.847948 
L 829.316847 474.130687 
L 830.332747 474.130687 
L 830.332747 400.776387 
L 831.348647 400.776387 
L 831.348647 406.801186 
L 832.364547 406.801186 
L 832.364547 330.952919 
L 833.380447 330.952919 
L 833.380447 342.574253 
L 834.396347 342.574253 
L 834.396347 161.668182 
L 835.412247 161.668182 
L 835.412247 473.809686 
L 836.428147 473.809686 
L 836.428147 178.095864 
L 837.444047 178.095864 
L 837.444047 145.737905 
L 838.459947 145.737905 
L 838.459947 538.14828 
L 839.475847 538.14828 
L 839.475847 568.246724 
L 840.491747 568.246724 
L 840.491747 426.388588 
L 841.507647 426.388588 
L 841.507647 381.543776 
L 842.523547 381.543776 
L 842.523547 100.633819 
L 843.539447 100.633819 
L 843.539447 533.933197 
L 844.555347 533.933197 
L 844.555347 193.097042 
L 845.571247 193.097042 
L 845.571247 337.914977 
L 846.587146 337.914977 
L 846.587146 496.814561 
L 847.603046 496.814561 
L 847.603046 408.851008 
L 848.618946 408.851008 
L 848.618946 378.534319 
L 849.634846 378.534319 
L 849.634846 441.095594 
L 850.650746 441.095594 
L 850.650746 421.93928 
L 851.666646 421.93928 
L 851.666646 368.677359 
L 852.682546 368.677359 
L 852.682546 101.917521 
L 853.698446 101.917521 
L 853.698446 348.293675 
L 854.714346 348.293675 
L 854.714346 111.901566 
L 855.730246 111.901566 
L 855.730246 557.239369 
L 856.746146 557.239369 
L 856.746146 543.590933 
L 857.762046 543.590933 
L 857.762046 556.304273 
L 858.777946 556.304273 
L 858.777946 212.84848 
L 859.793846 212.84848 
L 859.793846 451.277012 
L 860.809746 451.277012 
L 860.809746 290.25659 
L 861.825646 290.25659 
L 861.825646 179.743218 
L 862.841546 179.743218 
L 862.841546 445.515055 
L 863.857446 445.515055 
L 863.857446 481.302411 
L 864.873346 481.302411 
L 864.873346 194.518295 
L 865.889246 194.518295 
L 865.889246 341.200453 
L 866.905146 341.200453 
L 866.905146 500.682503 
L 867.921046 500.682503 
L 867.921046 520.864626 
L 868.936946 520.864626 
L 868.936946 229.067406 
L 869.952846 229.067406 
L 869.952846 162.4801 
L 870.968746 162.4801 
L 870.968746 132.445291 
L 871.984646 132.445291 
L 871.984646 323.382052 
L 873.000546 323.382052 
L 873.000546 496.046141 
L 874.016446 496.046141 
L 874.016446 458.341682 
L 875.032346 458.341682 
L 875.032346 346.800585 
L 876.048246 346.800585 
L 876.048246 168.60811 
L 877.064146 168.60811 
L 877.064146 255.429779 
L 878.080046 255.429779 
L 878.080046 439.40086 
L 879.095946 439.40086 
L 879.095946 197.625267 
L 880.111846 197.625267 
L 880.111846 355.028444 
L 881.127746 355.028444 
L 881.127746 91.640569 
L 882.143646 91.640569 
L 882.143646 358.262769 
L 883.159546 358.262769 
L 883.159546 156.040285 
L 884.175446 156.040285 
L 884.175446 563.330725 
L 885.191346 563.330725 
L 885.191346 247.15947 
L 886.207246 247.15947 
L 886.207246 373.383698 
L 887.223146 373.383698 
L 887.223146 327.662637 
L 888.239046 327.662637 
L 888.239046 436.255357 
L 889.254946 436.255357 
L 889.254946 123.262806 
L 890.270846 123.262806 
L 890.270846 490.417131 
L 891.286746 490.417131 
L 891.286746 292.622968 
L 892.302646 292.622968 
L 892.302646 280.290796 
L 893.318546 280.290796 
L 893.318546 171.337517 
L 894.334446 171.337517 
L 894.334446 346.442471 
L 895.350346 346.442471 
L 895.350346 170.988865 
L 896.366246 170.988865 
L 896.366246 315.254771 
L 897.382146 315.254771 
L 897.382146 107.709068 
L 898.398046 107.709068 
L 898.398046 207.122418 
L 899.413946 207.122418 
L 899.413946 123.826225 
L 900.429846 123.826225 
L 900.429846 121.735284 
L 901.445746 121.735284 
L 901.445746 206.156731 
L 902.461646 206.156731 
L 902.461646 491.668587 
L 903.477546 491.668587 
L 903.477546 498.864382 
L 904.493446 498.864382 
L 904.493446 255.935412 
L 905.509346 255.935412 
L 905.509346 428.974537 
L 906.525246 428.974537 
L 906.525246 373.425435 
L 907.541146 373.425435 
L 907.541146 495.059783 
L 908.557046 495.059783 
L 908.557046 182.080737 
L 909.572946 182.080737 
L 909.572946 154.357512 
L 910.588846 154.357512 
L 910.588846 504.688767 
L 911.604746 504.688767 
L 911.604746 319.220595 
L 912.620646 319.220595 
L 912.620646 386.328018 
L 913.636546 386.328018 
L 913.636546 191.251323 
L 914.652446 191.251323 
L 914.652446 344.070229 
L 915.668346 344.070229 
L 915.668346 231.25542 
L 916.684246 231.25542 
L 916.684246 291.821854 
L 917.700146 291.821854 
L 917.700146 94.661831 
L 918.716046 94.661831 
L 918.716046 386.112791 
L 919.731946 386.112791 
L 919.731946 89.510951 
L 920.747846 89.510951 
L 920.747846 372.572234 
L 921.763746 372.572234 
L 921.763746 476.123566 
L 922.779646 476.123566 
L 922.779646 208.289878 
L 923.795546 208.289878 
L 923.795546 440.770828 
L 924.811446 440.770828 
L 924.811446 286.149496 
L 925.827346 286.149496 
L 925.827346 241.675698 
L 926.843246 241.675698 
L 926.843246 485.833122 
L 927.859146 485.833122 
L 927.859146 555.393906 
L 928.875046 555.393906 
L 928.875046 88.62381 
L 929.890946 88.62381 
L 929.890946 149.791775 
L 930.906845 149.791775 
L 930.906845 525.08683 
L 931.922745 525.08683 
L 931.922745 166.853758 
L 932.938645 166.853758 
L 932.938645 426.736391 
L 933.954545 426.736391 
L 933.954545 426.736391 
" clip-path="url(#pc9073ae34a)" style="fill: none; stroke: #1f77b4; stroke-width: 2.3; stroke-linecap: square"/>
   </g>
   <g id="patch_3">
    <path d="M 135 576.72 
L 135 77.76 
" style="fill: none; stroke: #000000; stroke-width: 0.8; stroke-linejoin: miter; stroke-linecap: square"/>
   </g>
   <g id="patch_4">
    <path d="M 972 576.72 
L 972 77.76 
" style="fill: none; stroke: #000000; stroke-width: 0.8; stroke-linejoin: miter; stroke-linecap: square"/>
   </g>
   <g id="patch_5">
    <path d="M 135 576.72 
L 972 576.72 
" style="fill: none; stroke: #000000; stroke-width: 0.8; stroke-linejoin: miter; stroke-linecap: square"/>
   </g>
   <g id="patch_6">
    <path d="M 135 77.76 
L 972 77.76 
" style="fill: none; stroke: #000000; stroke-width: 0.8; stroke-linejoin: miter; stroke-linecap: square"/>
   </g>
   <g id="text_18">
    <!-- $\theta_X$ Waveforms (Final Cost: -0.8236610529368784) -->
    <g transform="translate(308.422808 67.76) scale(0.23 -0.23)">
     <defs>
      <path id="URWPalladioL-Roma-57" d="M 4698 -64 
C 4723 32 4742 122 4749 154 
C 4768 218 4819 411 4870 584 
L 5850 4032 
C 5888 4147 5952 4205 6093 4218 
L 6298 4237 
L 6298 4416 
L 5626 4416 
C 5562 4416 5562 4416 4954 4416 
L 4954 4237 
L 5210 4218 
C 5434 4199 5504 4167 5510 4063 
C 5510 4044 5510 4025 5504 4005 
L 4659 872 
L 3610 3826 
C 3469 4211 3450 4262 3398 4480 
L 3194 4480 
C 3059 4082 2950 3795 2618 2935 
L 1824 917 
L 1184 3795 
C 1165 3872 1158 3942 1158 4006 
C 1158 4147 1222 4205 1395 4218 
L 1664 4237 
L 1664 4416 
L 858 4416 
C 813 4416 544 4416 51 4416 
L 51 4237 
L 230 4218 
C 416 4199 493 4128 550 3897 
L 1312 597 
C 1395 231 1395 225 1459 -64 
L 1779 -64 
C 1837 141 1888 295 2010 597 
L 3123 3429 
L 3923 1256 
C 4134 687 4154 635 4378 -64 
L 4698 -64 
z
" transform="scale(0.015625)"/>
      <path id="URWPalladioL-Roma-61" d="M 2074 538 
L 2042 -1 
C 2458 -1 2458 -1 2541 -1 
C 2573 -1 2733 -1 3014 -1 
L 3014 192 
L 2765 192 
C 2611 192 2586 244 2586 558 
L 2586 1731 
C 2586 2668 2317 3008 1574 3008 
C 1299 3008 1043 2937 800 2791 
L 461 2585 
L 461 2171 
L 627 2126 
L 710 2323 
C 845 2623 909 2668 1203 2668 
C 1805 2668 2054 2431 2074 1852 
L 1440 1736 
C 570 1577 205 1277 205 722 
C 205 224 506 -64 1011 -64 
C 1126 -64 1235 -45 1280 -13 
L 2074 538 
z
M 2074 806 
C 1888 544 1485 302 1235 302 
C 979 302 755 538 755 812 
C 755 1048 883 1271 1075 1392 
C 1235 1488 1587 1577 2074 1648 
L 2074 806 
z
" transform="scale(0.015625)"/>
      <path id="URWPalladioL-Roma-76" d="M 3450 2752 
L 3450 2932 
C 3066 2932 2950 2932 2848 2932 
C 2746 2932 2630 2932 2246 2932 
L 2246 2752 
L 2509 2752 
C 2611 2752 2662 2694 2662 2591 
C 2662 2489 2618 2317 2541 2124 
L 2272 1445 
C 2195 1259 2118 1080 1875 549 
L 1114 2393 
C 1075 2482 1056 2566 1056 2636 
C 1056 2707 1114 2752 1216 2752 
L 1530 2752 
L 1530 2932 
C 902 2932 902 2932 781 2932 
C 659 2932 352 2932 38 2932 
L 38 2752 
L 256 2752 
C 352 2739 384 2701 454 2541 
L 1555 -32 
L 1875 -32 
C 1914 77 1978 243 1978 256 
C 2048 447 2131 664 2138 664 
L 2893 2324 
C 3034 2625 3123 2739 3251 2752 
L 3450 2752 
z
" transform="scale(0.015625)"/>
      <path id="URWPalladioL-Roma-65" d="M 2797 447 
L 2714 511 
C 2304 269 2157 212 1882 212 
C 1466 212 1120 398 941 711 
C 819 921 774 1101 762 1472 
L 1696 1472 
C 2138 1472 2413 1472 2854 1544 
C 2861 1634 2867 1693 2867 1771 
C 2867 2520 2394 3008 1677 3008 
C 1440 3008 1165 2924 902 2770 
C 378 2469 166 2071 166 1404 
C 166 1000 262 654 435 410 
C 691 71 1120 -128 1600 -128 
C 1837 -128 2074 -77 2336 37 
C 2509 108 2643 191 2669 230 
L 2797 447 
z
M 2298 1690 
C 1965 1690 1811 1690 1581 1690 
C 1286 1690 1120 1690 774 1722 
C 774 2027 800 2169 883 2337 
C 1018 2622 1293 2796 1600 2796 
C 1811 2796 1978 2711 2093 2534 
C 2234 2319 2278 2129 2298 1690 
z
" transform="scale(0.015625)"/>
      <path id="URWPalladioL-Roma-66" d="M 2182 4601 
C 2048 4652 1971 4672 1888 4672 
C 1683 4672 1459 4563 1318 4404 
L 947 3985 
C 762 3775 678 3490 678 3070 
L 678 2803 
L 237 2604 
L 237 2476 
L 678 2476 
L 678 651 
C 678 244 659 199 442 199 
L 147 199 
L 147 0 
C 787 0 787 0 947 0 
C 1107 0 1107 0 1747 0 
L 1747 199 
L 1453 199 
C 1235 199 1216 245 1216 653 
L 1216 2489 
L 2010 2489 
L 2054 2816 
L 1216 2816 
L 1216 3350 
C 1216 4073 1299 4248 1664 4248 
C 1837 4248 1952 4204 2106 4071 
L 2182 4109 
L 2182 4601 
z
" transform="scale(0.015625)"/>
      <path id="URWPalladioL-Roma-6f" d="M 1786 3008 
C 851 3008 205 2347 205 1392 
C 205 487 774 -128 1600 -128 
C 2586 -128 3290 558 3290 1520 
C 3290 2386 2662 3008 1786 3008 
z
M 1670 2796 
C 2259 2796 2694 2155 2694 1283 
C 2694 545 2368 83 1850 83 
C 1222 83 800 699 800 1610 
C 800 2379 1107 2796 1670 2796 
z
" transform="scale(0.015625)"/>
      <path id="URWPalladioL-Roma-72" d="M 147 2565 
L 384 2565 
C 640 2565 666 2520 666 2094 
L 666 643 
C 666 237 646 192 429 192 
L 134 192 
L 134 -7 
C 595 -7 762 -7 922 -7 
C 1050 -7 1050 -7 1837 -7 
L 1837 192 
L 1504 192 
C 1216 192 1203 211 1203 638 
L 1203 1751 
C 1203 2139 1459 2463 1773 2463 
C 1965 2463 2099 2373 2202 2169 
L 2336 2169 
L 2394 2937 
C 2323 2982 2208 3008 2093 3008 
C 1901 3008 1696 2905 1562 2745 
L 1203 2322 
L 1203 2982 
L 1146 3008 
C 819 2873 486 2783 147 2745 
L 147 2565 
z
" transform="scale(0.015625)"/>
      <path id="URWPalladioL-Roma-6d" d="M 115 2565 
L 352 2565 
C 608 2565 634 2520 634 2094 
L 634 643 
C 634 237 614 192 397 192 
L 102 192 
L 102 -7 
C 717 -7 736 -7 915 -7 
C 1094 -7 1261 -7 1677 -7 
L 1677 179 
L 1408 205 
C 1190 205 1171 250 1171 654 
L 1171 2014 
C 1171 2302 1594 2616 1978 2616 
C 2323 2616 2560 2287 2560 1798 
L 2560 643 
C 2560 237 2541 192 2323 192 
L 2029 192 
L 2029 -7 
C 2669 -7 2669 -7 2829 -7 
C 2989 -7 2989 -7 3629 -7 
L 3629 192 
L 3334 192 
C 3117 192 3098 237 3098 643 
L 3098 2011 
C 3098 2300 3520 2616 3904 2616 
C 4250 2616 4486 2291 4486 1806 
L 4486 -7 
C 4877 -7 4883 -7 4992 -7 
C 5075 -7 5075 -7 5562 -7 
L 5562 192 
L 5261 192 
C 5043 192 5024 237 5024 643 
L 5024 1970 
C 5024 2608 4653 3008 4064 3008 
C 3840 3008 3654 2950 3539 2847 
L 3053 2412 
C 2848 2834 2586 3008 2144 3008 
C 1907 3008 1728 2950 1613 2847 
L 1171 2437 
L 1171 2982 
L 1114 3008 
C 787 2873 454 2783 115 2745 
L 115 2565 
z
" transform="scale(0.015625)"/>
      <path id="URWPalladioL-Roma-73" d="M 262 917 
C 262 475 243 282 192 26 
C 525 -83 774 -128 1069 -128 
C 1907 -128 2502 321 2502 949 
C 2502 1148 2445 1295 2323 1424 
C 2157 1584 1946 1661 1382 1770 
C 858 1873 685 2001 685 2296 
C 685 2616 909 2796 1299 2796 
C 1728 2796 2054 2572 2054 2270 
L 2054 2123 
L 2234 2123 
C 2240 2495 2246 2648 2266 2847 
C 1926 2963 1696 3008 1434 3008 
C 691 3008 237 2655 237 2078 
C 237 1770 378 1552 672 1417 
C 845 1340 1184 1238 1619 1141 
C 1907 1077 2029 943 2029 699 
C 2029 353 1709 109 1254 109 
C 787 109 454 333 454 654 
L 454 917 
L 262 917 
z
" transform="scale(0.015625)"/>
      <path id="URWPalladioL-Roma-28" d="M 1926 -1244 
C 1466 -673 1299 -366 1133 212 
C 998 673 934 1161 934 1706 
C 934 2238 998 2693 1120 3110 
C 1286 3642 1459 3944 1926 4489 
L 1805 4656 
C 1139 4059 877 3707 634 3078 
C 467 2648 384 2193 384 1706 
C 384 1020 544 372 851 -205 
C 1075 -635 1280 -885 1805 -1379 
L 1926 -1244 
z
" transform="scale(0.015625)"/>
      <path id="URWPalladioL-Roma-46" d="M 1382 2100 
C 1562 2112 1754 2112 2042 2112 
C 2515 2112 2688 2094 2803 2040 
L 2854 1890 
L 2886 1536 
L 3078 1536 
C 3059 2132 3059 2132 3059 2247 
C 3059 2350 3059 2350 3078 2991 
L 2886 2991 
L 2854 2642 
C 2848 2581 2829 2521 2803 2467 
C 2688 2414 2509 2394 2086 2394 
C 1818 2394 1600 2394 1382 2394 
L 1382 4117 
C 1574 4160 1690 4160 2067 4160 
C 2374 4160 2733 4124 2931 4076 
C 3085 4039 3104 4008 3104 3868 
L 3104 3465 
L 3328 3465 
C 3328 3843 3360 4146 3430 4423 
C 3117 4423 2925 4423 2650 4423 
L 1965 4423 
C 1651 4423 1427 4423 1267 4423 
C 1082 4423 1082 4423 141 4423 
L 141 4224 
L 448 4224 
C 742 4224 774 4172 774 3663 
L 774 766 
C 774 256 742 205 448 205 
L 141 205 
L 141 0 
C 518 0 742 0 1075 0 
C 1408 0 1638 0 2016 0 
L 2016 205 
L 1709 205 
C 1414 205 1382 256 1382 766 
L 1382 2100 
z
" transform="scale(0.015625)"/>
      <path id="URWPalladioL-Roma-69" d="M 1203 2993 
L 1146 3019 
C 819 2884 486 2793 147 2755 
L 147 2576 
L 384 2576 
C 640 2576 666 2531 666 2105 
L 666 651 
C 666 244 646 199 429 199 
L 134 199 
L 134 0 
C 774 0 774 0 934 0 
C 1094 0 1094 0 1734 0 
L 1734 199 
L 1440 199 
C 1222 199 1203 244 1203 651 
L 1203 2993 
z
M 909 4416 
C 717 4416 550 4249 550 4056 
C 550 3870 717 3704 902 3704 
C 1088 3704 1261 3870 1261 4056 
C 1261 4236 1088 4416 909 4416 
z
" transform="scale(0.015625)"/>
      <path id="URWPalladioL-Roma-6e" d="M 2624 -7 
C 3014 -7 3021 -7 3130 -7 
C 3219 -7 3219 -7 3661 -7 
L 3661 179 
L 3398 205 
C 3181 205 3162 244 3162 654 
L 3162 1892 
C 3162 2642 2810 3008 2093 3008 
C 1856 3008 1722 2963 1587 2847 
L 1101 2424 
L 1101 2982 
L 1043 3008 
C 717 2873 384 2783 45 2745 
L 45 2565 
L 282 2565 
C 538 2565 563 2520 563 2094 
L 563 643 
C 563 237 544 192 326 192 
L 38 192 
L 38 -7 
C 474 -7 646 -7 832 -7 
C 1018 -7 1190 -7 1626 -7 
L 1626 192 
L 1338 192 
C 1120 192 1101 237 1101 643 
L 1101 2011 
C 1101 2300 1523 2616 1914 2616 
C 2342 2616 2624 2297 2624 1806 
L 2624 -7 
z
" transform="scale(0.015625)"/>
      <path id="URWPalladioL-Roma-6c" d="M 147 4256 
L 506 4256 
C 621 4256 666 4185 666 3992 
L 666 651 
C 666 244 646 199 429 199 
L 134 199 
L 134 0 
C 774 0 774 0 934 0 
C 1094 0 1094 0 1734 0 
L 1734 199 
L 1440 199 
C 1222 199 1203 244 1203 650 
L 1203 4621 
L 1146 4673 
C 864 4564 653 4512 147 4435 
L 147 4256 
z
" transform="scale(0.015625)"/>
      <path id="URWPalladioL-Roma-43" d="M 4288 539 
L 4230 603 
C 3834 346 3392 218 2906 218 
C 1658 218 826 1051 826 2313 
C 826 3493 1555 4274 2656 4274 
C 3283 4274 3930 4018 3930 3769 
L 3930 3307 
L 4128 3307 
C 4134 3627 4160 3857 4250 4280 
C 3706 4460 3238 4544 2771 4544 
C 2214 4544 1683 4409 1254 4159 
C 525 3730 141 3057 141 2192 
C 141 807 1152 -128 2656 -128 
C 3187 -128 3667 -13 4109 218 
L 4288 539 
z
" transform="scale(0.015625)"/>
      <path id="URWPalladioL-Roma-74" d="M 627 2476 
L 627 619 
C 627 142 838 -64 1331 -64 
C 1478 -64 1632 -32 1670 13 
L 1978 353 
L 1894 463 
C 1734 372 1638 340 1517 340 
C 1267 340 1165 470 1165 788 
L 1165 2489 
L 1984 2489 
L 2042 2816 
L 1165 2816 
L 1165 3056 
C 1165 3321 1184 3547 1235 3951 
L 1158 4021 
C 1005 3925 813 3842 614 3778 
C 634 3585 640 3463 640 3271 
L 640 2822 
L 141 2598 
L 141 2476 
L 627 2476 
z
" transform="scale(0.015625)"/>
      <path id="URWPalladioL-Roma-3a" d="M 787 744 
C 595 744 422 564 422 372 
C 422 179 595 0 781 0 
C 986 0 1165 173 1165 372 
C 1165 564 986 744 787 744 
z
M 787 2944 
C 595 2944 422 2765 422 2572 
C 422 2380 595 2200 781 2200 
C 986 2200 1165 2373 1165 2566 
C 1165 2765 986 2944 787 2944 
z
" transform="scale(0.015625)"/>
      <path id="URWPalladioL-Roma-2d" d="M 1805 1408 
L 1997 1837 
L 1965 1869 
L 282 1869 
L 109 1440 
L 141 1408 
L 1805 1408 
z
" transform="scale(0.015625)"/>
      <path id="URWPalladioL-Roma-2e" d="M 794 744 
C 602 744 429 564 429 372 
C 429 179 602 0 787 0 
C 992 0 1171 173 1171 372 
C 1171 564 992 744 794 744 
z
" transform="scale(0.015625)"/>
      <path id="URWPalladioL-Roma-38" d="M 1075 2211 
C 813 2090 704 2019 563 1884 
C 320 1641 192 1352 192 1019 
C 192 359 723 -128 1446 -128 
C 2278 -128 2970 526 2970 1320 
C 2970 1833 2733 2109 2003 2442 
C 2586 2840 2790 3109 2790 3493 
C 2790 4044 2336 4416 1658 4416 
C 896 4416 339 3929 339 3257 
C 339 2821 512 2577 1075 2211 
z
M 1818 1891 
C 2221 1711 2464 1397 2464 1052 
C 2464 513 2061 90 1542 90 
C 998 90 646 475 646 1071 
C 646 1538 832 1833 1306 2122 
L 1818 1891 
z
M 1427 2712 
C 1024 2910 819 3167 819 3487 
C 819 3910 1126 4198 1581 4198 
C 2048 4198 2355 3891 2355 3422 
C 2355 3058 2195 2808 1779 2538 
L 1427 2712 
z
" transform="scale(0.015625)"/>
      <path id="URWPalladioL-Roma-39" d="M 614 -106 
C 1325 125 1632 272 1978 566 
C 2598 1098 2925 1835 2925 2693 
C 2925 3776 2406 4435 1562 4435 
C 742 4435 128 3795 128 2938 
C 128 2201 608 1664 1274 1664 
C 1491 1664 1741 1734 1856 1830 
L 2304 2202 
C 2253 1125 1555 336 397 54 
L 397 3 
L 614 -106 
z
M 1536 4224 
C 1824 4224 2035 4102 2176 3846 
C 2291 3641 2368 3328 2368 3040 
C 2368 2451 2029 2055 1536 2055 
C 1024 2055 678 2509 678 3174 
C 678 3821 1011 4224 1536 4224 
z
" transform="scale(0.015625)"/>
      <path id="URWPalladioL-Roma-29" d="M 326 -1379 
C 768 -962 954 -750 1152 -436 
C 1542 186 1747 930 1747 1699 
C 1747 2193 1664 2648 1498 3078 
C 1254 3700 992 4053 326 4656 
L 205 4489 
C 672 3937 845 3636 1005 3110 
C 1133 2693 1197 2238 1197 1706 
C 1197 1161 1133 673 998 212 
C 832 -366 666 -673 205 -1244 
L 326 -1379 
z
" transform="scale(0.015625)"/>
     </defs>
     <use xlink:href="#PazoMath-Italic-71" transform="scale(0.996264)"/>
     <use xlink:href="#URWPalladioL-Ital-58" transform="translate(47.561649 -18.085743) scale(0.757155)"/>
     <use xlink:href="#URWPalladioL-Roma-57" transform="translate(130.245101 0) scale(0.996264)"/>
     <use xlink:href="#URWPalladioL-Roma-61" transform="translate(220.706621 0) scale(0.996264)"/>
     <use xlink:href="#URWPalladioL-Roma-76" transform="translate(270.519822 0) scale(0.996264)"/>
     <use xlink:href="#URWPalladioL-Roma-65" transform="translate(326.807735 0) scale(0.996264)"/>
     <use xlink:href="#URWPalladioL-Roma-66" transform="translate(374.52803 0) scale(0.996264)"/>
     <use xlink:href="#URWPalladioL-Roma-6f" transform="translate(407.70326 0) scale(0.996264)"/>
     <use xlink:href="#URWPalladioL-Roma-72" transform="translate(462.09884 0) scale(0.996264)"/>
     <use xlink:href="#URWPalladioL-Roma-6d" transform="translate(501.450736 0) scale(0.996264)"/>
     <use xlink:href="#URWPalladioL-Roma-73" transform="translate(589.420411 0) scale(0.996264)"/>
     <use xlink:href="#URWPalladioL-Roma-28" transform="translate(656.568477 0) scale(0.996264)"/>
     <use xlink:href="#URWPalladioL-Roma-46" transform="translate(689.743707 0) scale(0.996264)"/>
     <use xlink:href="#URWPalladioL-Roma-69" transform="translate(745.135384 0) scale(0.996264)"/>
     <use xlink:href="#URWPalladioL-Roma-6e" transform="translate(774.125745 0) scale(0.996264)"/>
     <use xlink:href="#URWPalladioL-Roma-61" transform="translate(832.107806 0) scale(0.996264)"/>
     <use xlink:href="#URWPalladioL-Roma-6c" transform="translate(881.921007 0) scale(0.996264)"/>
     <use xlink:href="#URWPalladioL-Roma-43" transform="translate(935.817968 0) scale(0.996264)"/>
     <use xlink:href="#URWPalladioL-Roma-6f" transform="translate(1006.452761 0) scale(0.996264)"/>
     <use xlink:href="#URWPalladioL-Roma-73" transform="translate(1060.848342 0) scale(0.996264)"/>
     <use xlink:href="#URWPalladioL-Roma-74" transform="translate(1103.089808 0) scale(0.996264)"/>
     <use xlink:href="#URWPalladioL-Roma-3a" transform="translate(1135.566896 0) scale(0.996264)"/>
     <use xlink:href="#URWPalladioL-Roma-2d" transform="translate(1191.357528 0) scale(0.996264)"/>
     <use xlink:href="#URWPalladioL-Roma-30" transform="translate(1224.532758 0) scale(0.996264)"/>
     <use xlink:href="#URWPalladioL-Roma-2e" transform="translate(1274.345959 0) scale(0.996264)"/>
     <use xlink:href="#URWPalladioL-Roma-38" transform="translate(1299.252559 0) scale(0.996264)"/>
     <use xlink:href="#URWPalladioL-Roma-32" transform="translate(1349.065759 0) scale(0.996264)"/>
     <use xlink:href="#URWPalladioL-Roma-33" transform="translate(1398.87896 0) scale(0.996264)"/>
     <use xlink:href="#URWPalladioL-Roma-36" transform="translate(1448.69216 0) scale(0.996264)"/>
     <use xlink:href="#URWPalladioL-Roma-36" transform="translate(1498.505361 0) scale(0.996264)"/>
     <use xlink:href="#URWPalladioL-Roma-31" transform="translate(1548.318561 0) scale(0.996264)"/>
     <use xlink:href="#URWPalladioL-Roma-30" transform="translate(1598.131762 0) scale(0.996264)"/>
     <use xlink:href="#URWPalladioL-Roma-35" transform="translate(1647.944962 0) scale(0.996264)"/>
     <use xlink:href="#URWPalladioL-Roma-32" transform="translate(1697.758163 0) scale(0.996264)"/>
     <use xlink:href="#URWPalladioL-Roma-39" transform="translate(1747.571363 0) scale(0.996264)"/>
     <use xlink:href="#URWPalladioL-Roma-33" transform="translate(1797.384564 0) scale(0.996264)"/>
     <use xlink:href="#URWPalladioL-Roma-36" transform="translate(1847.197764 0) scale(0.996264)"/>
     <use xlink:href="#URWPalladioL-Roma-38" transform="translate(1897.010965 0) scale(0.996264)"/>
     <use xlink:href="#URWPalladioL-Roma-37" transform="translate(1946.824165 0) scale(0.996264)"/>
     <use xlink:href="#URWPalladioL-Roma-38" transform="translate(1996.637366 0) scale(0.996264)"/>
     <use xlink:href="#URWPalladioL-Roma-34" transform="translate(2046.450566 0) scale(0.996264)"/>
     <use xlink:href="#URWPalladioL-Roma-29" transform="translate(2096.263767 0) scale(0.996264)"/>
    </g>
   </g>
  </g>
 </g>
 <defs>
  <clipPath id="pc9073ae34a">
   <rect x="135" y="77.76" width="837" height="498.96"/>
  </clipPath>
 </defs>
</svg>
