<?xml version="1.0" encoding="utf-8" standalone="no"?>
<!DOCTYPE svg PUBLIC "-//W3C//DTD SVG 1.1//EN"
  "http://www.w3.org/Graphics/SVG/1.1/DTD/svg11.dtd">
<svg xmlns:xlink="http://www.w3.org/1999/xlink" width="1080pt" height="648pt" viewBox="0 0 1080 648" xmlns="http://www.w3.org/2000/svg" version="1.1">
 <metadata>
  <rdf:RDF xmlns:dc="http://purl.org/dc/elements/1.1/" xmlns:cc="http://creativecommons.org/ns#" xmlns:rdf="http://www.w3.org/1999/02/22-rdf-syntax-ns#">
   <cc:Work>
    <dc:type rdf:resource="http://purl.org/dc/dcmitype/StillImage"/>
    <dc:date>2024-09-25T22:05:20.077658</dc:date>
    <dc:format>image/svg+xml</dc:format>
    <dc:creator>
     <cc:Agent>
      <dc:title>Matplotlib v3.9.2, https://matplotlib.org/</dc:title>
     </cc:Agent>
    </dc:creator>
   </cc:Work>
  </rdf:RDF>
 </metadata>
 <defs>
  <style type="text/css">*{stroke-linejoin: round; stroke-linecap: butt}</style>
 </defs>
 <g id="figure_1">
  <g id="patch_1">
   <path d="M 0 648 
L 1080 648 
L 1080 0 
L 0 0 
z
" style="fill: #ffffff; stroke: #ffffff; stroke-width: 2.3; stroke-linejoin: miter"/>
  </g>
  <g id="axes_1">
   <g id="patch_2">
    <path d="M 135 576.72 
L 972 576.72 
L 972 77.76 
L 135 77.76 
z
" style="fill: #ffffff"/>
   </g>
   <g id="matplotlib.axis_1">
    <g id="xtick_1">
     <g id="line2d_1">
      <defs>
       <path id="m52a054bf96" d="M 0 0 
L 0 3.5 
" style="stroke: #000000; stroke-width: 0.8"/>
      </defs>
      <g>
       <use xlink:href="#m52a054bf96" x="173.045455" y="576.72" style="stroke: #000000; stroke-width: 0.8"/>
      </g>
     </g>
     <g id="text_1">
      <!-- $\mathdefault{0}$ -->
      <g transform="translate(168.749066 596.016205) scale(0.1725 -0.1725)">
       <defs>
        <path id="URWPalladioL-Roma-30" d="M 1683 4416 
C 691 4416 186 3628 186 2077 
C 186 1326 320 680 544 366 
C 768 51 1126 -128 1523 -128 
C 2490 -128 2976 705 2976 2346 
C 2976 3749 2560 4416 1683 4416 
z
M 1568 4192 
C 2189 4192 2438 3564 2438 2025 
C 2438 661 2195 96 1606 96 
C 986 96 723 744 723 2308 
C 723 3660 960 4192 1568 4192 
z
" transform="scale(0.015625)"/>
       </defs>
       <use xlink:href="#URWPalladioL-Roma-30" transform="scale(0.996264)"/>
      </g>
     </g>
    </g>
    <g id="xtick_2">
     <g id="line2d_2">
      <g>
       <use xlink:href="#m52a054bf96" x="274.5" y="576.72" style="stroke: #000000; stroke-width: 0.8"/>
      </g>
     </g>
     <g id="text_2">
      <!-- $\mathdefault{100}$ -->
      <g transform="translate(261.610834 596.016205) scale(0.1725 -0.1725)">
       <defs>
        <path id="URWPalladioL-Roma-31" d="M 429 3584 
L 493 3584 
L 1318 3956 
C 1325 3962 1331 3962 1338 3962 
C 1376 3962 1389 3905 1389 3751 
L 1389 613 
C 1389 276 1318 205 973 205 
L 614 205 
L 614 0 
C 1600 0 1600 0 1670 0 
C 1754 0 1894 0 2112 0 
C 2189 0 2413 0 2675 0 
L 2675 205 
L 2342 205 
C 1990 205 1926 276 1926 612 
L 1926 4443 
L 1837 4475 
C 1421 4257 966 4065 384 3860 
L 429 3584 
z
" transform="scale(0.015625)"/>
       </defs>
       <use xlink:href="#URWPalladioL-Roma-31" transform="scale(0.996264)"/>
       <use xlink:href="#URWPalladioL-Roma-30" transform="translate(49.8132 0) scale(0.996264)"/>
       <use xlink:href="#URWPalladioL-Roma-30" transform="translate(99.626401 0) scale(0.996264)"/>
      </g>
     </g>
    </g>
    <g id="xtick_3">
     <g id="line2d_3">
      <g>
       <use xlink:href="#m52a054bf96" x="375.954545" y="576.72" style="stroke: #000000; stroke-width: 0.8"/>
      </g>
     </g>
     <g id="text_3">
      <!-- $\mathdefault{200}$ -->
      <g transform="translate(363.06538 596.016205) scale(0.1725 -0.1725)">
       <defs>
        <path id="URWPalladioL-Roma-32" d="M 102 160 
L 102 0 
C 1299 0 1299 0 1530 0 
C 1760 0 1760 0 2995 0 
C 2982 125 2982 186 2982 269 
C 2982 348 2982 407 2995 539 
C 2259 539 1965 539 781 539 
L 1946 1761 
C 2566 2414 2758 2763 2758 3238 
C 2758 3966 2259 4416 1446 4416 
C 986 4416 672 4288 358 3969 
L 250 3099 
L 435 3099 
L 518 3393 
C 621 3763 851 3923 1280 3923 
C 1830 3923 2182 3577 2182 3035 
C 2182 2555 1914 2083 1190 1316 
L 102 160 
z
" transform="scale(0.015625)"/>
       </defs>
       <use xlink:href="#URWPalladioL-Roma-32" transform="scale(0.996264)"/>
       <use xlink:href="#URWPalladioL-Roma-30" transform="translate(49.8132 0) scale(0.996264)"/>
       <use xlink:href="#URWPalladioL-Roma-30" transform="translate(99.626401 0) scale(0.996264)"/>
      </g>
     </g>
    </g>
    <g id="xtick_4">
     <g id="line2d_4">
      <g>
       <use xlink:href="#m52a054bf96" x="477.409091" y="576.72" style="stroke: #000000; stroke-width: 0.8"/>
      </g>
     </g>
     <g id="text_4">
      <!-- $\mathdefault{300}$ -->
      <g transform="translate(464.519925 596.016205) scale(0.1725 -0.1725)">
       <defs>
        <path id="URWPalladioL-Roma-33" d="M 275 3197 
L 474 3197 
L 589 3554 
C 659 3770 1062 3987 1395 3987 
C 1811 3987 2150 3649 2150 3248 
C 2150 2770 1773 2368 1318 2368 
C 1267 2368 1197 2368 1114 2381 
L 1018 2381 
L 941 2047 
L 986 2008 
C 1229 2118 1350 2150 1523 2150 
C 2054 2150 2362 1809 2362 1222 
C 2362 566 1971 135 1376 135 
C 1082 135 819 231 627 411 
C 474 553 390 701 269 1049 
L 96 985 
C 230 593 282 361 320 39 
C 659 -77 941 -128 1178 -128 
C 1690 -128 2278 161 2630 593 
C 2848 857 2957 1140 2957 1442 
C 2957 1751 2829 2022 2598 2182 
C 2438 2298 2291 2350 1971 2407 
C 2483 2803 2675 3096 2675 3472 
C 2675 4040 2202 4416 1491 4416 
C 1056 4416 768 4295 461 3989 
L 275 3197 
z
" transform="scale(0.015625)"/>
       </defs>
       <use xlink:href="#URWPalladioL-Roma-33" transform="scale(0.996264)"/>
       <use xlink:href="#URWPalladioL-Roma-30" transform="translate(49.8132 0) scale(0.996264)"/>
       <use xlink:href="#URWPalladioL-Roma-30" transform="translate(99.626401 0) scale(0.996264)"/>
      </g>
     </g>
    </g>
    <g id="xtick_5">
     <g id="line2d_5">
      <g>
       <use xlink:href="#m52a054bf96" x="578.863636" y="576.72" style="stroke: #000000; stroke-width: 0.8"/>
      </g>
     </g>
     <g id="text_5">
      <!-- $\mathdefault{400}$ -->
      <g transform="translate(565.974471 596.016205) scale(0.1725 -0.1725)">
       <defs>
        <path id="URWPalladioL-Roma-34" d="M 1792 1152 
L 1792 673 
C 1792 289 1722 199 1408 199 
L 1011 199 
L 1011 0 
C 1862 0 1862 0 2016 0 
C 2170 0 2170 0 3021 0 
L 3021 199 
L 2714 199 
C 2400 199 2330 282 2330 669 
L 2330 1152 
C 2707 1152 2842 1152 3021 1133 
L 3021 1588 
C 2720 1563 2598 1563 2502 1563 
L 2483 1563 
L 2330 1563 
L 2330 2457 
C 2330 3600 2342 4152 2374 4416 
L 2298 4448 
L 1824 4275 
L 13 1299 
L 83 1152 
L 1792 1152 
z
M 1792 1563 
L 416 1563 
L 1792 3826 
L 1792 1563 
z
" transform="scale(0.015625)"/>
       </defs>
       <use xlink:href="#URWPalladioL-Roma-34" transform="scale(0.996264)"/>
       <use xlink:href="#URWPalladioL-Roma-30" transform="translate(49.8132 0) scale(0.996264)"/>
       <use xlink:href="#URWPalladioL-Roma-30" transform="translate(99.626401 0) scale(0.996264)"/>
      </g>
     </g>
    </g>
    <g id="xtick_6">
     <g id="line2d_6">
      <g>
       <use xlink:href="#m52a054bf96" x="680.318182" y="576.72" style="stroke: #000000; stroke-width: 0.8"/>
      </g>
     </g>
     <g id="text_6">
      <!-- $\mathdefault{500}$ -->
      <g transform="translate(667.429016 596.016205) scale(0.1725 -0.1725)">
       <defs>
        <path id="URWPalladioL-Roma-35" d="M 813 3877 
C 1638 3877 1997 3877 2765 3877 
L 2797 3907 
C 2784 4016 2784 4064 2784 4144 
C 2784 4229 2784 4277 2797 4386 
L 2765 4416 
C 2285 4416 1997 4416 1651 4416 
C 1299 4416 1018 4416 538 4416 
L 506 4403 
C 512 4011 518 3729 518 3523 
C 518 2977 499 2360 480 2077 
L 608 2038 
C 909 2341 1082 2432 1395 2432 
C 2010 2432 2394 1993 2394 1296 
C 2394 580 1984 160 1286 160 
C 941 160 621 277 531 444 
L 237 973 
L 83 883 
C 230 516 307 310 397 27 
C 576 -71 832 -128 1107 -128 
C 1536 -128 1990 59 2342 368 
C 2733 716 2938 1154 2938 1630 
C 2938 2359 2419 2874 1690 2874 
C 1382 2874 1152 2791 755 2554 
L 813 3877 
z
" transform="scale(0.015625)"/>
       </defs>
       <use xlink:href="#URWPalladioL-Roma-35" transform="scale(0.996264)"/>
       <use xlink:href="#URWPalladioL-Roma-30" transform="translate(49.8132 0) scale(0.996264)"/>
       <use xlink:href="#URWPalladioL-Roma-30" transform="translate(99.626401 0) scale(0.996264)"/>
      </g>
     </g>
    </g>
    <g id="xtick_7">
     <g id="line2d_7">
      <g>
       <use xlink:href="#m52a054bf96" x="781.772727" y="576.72" style="stroke: #000000; stroke-width: 0.8"/>
      </g>
     </g>
     <g id="text_7">
      <!-- $\mathdefault{600}$ -->
      <g transform="translate(768.883562 596.016205) scale(0.1725 -0.1725)">
       <defs>
        <path id="URWPalladioL-Roma-36" d="M 2662 4310 
L 2426 4419 
C 1811 4214 1549 4086 1222 3804 
C 563 3246 205 2464 205 1585 
C 205 526 717 -128 1542 -128 
C 2374 -128 2995 532 2995 1405 
C 2995 2143 2554 2624 1875 2624 
C 1555 2624 1363 2540 986 2239 
C 915 2181 909 2175 838 2124 
C 973 3284 1510 3913 2662 4259 
L 2662 4310 
z
M 1632 2239 
C 2118 2239 2445 1816 2445 1181 
C 2445 513 2118 83 1626 83 
C 1082 83 787 551 787 1412 
C 787 1636 813 1758 883 1867 
C 1024 2085 1325 2239 1632 2239 
z
" transform="scale(0.015625)"/>
       </defs>
       <use xlink:href="#URWPalladioL-Roma-36" transform="scale(0.996264)"/>
       <use xlink:href="#URWPalladioL-Roma-30" transform="translate(49.8132 0) scale(0.996264)"/>
       <use xlink:href="#URWPalladioL-Roma-30" transform="translate(99.626401 0) scale(0.996264)"/>
      </g>
     </g>
    </g>
    <g id="xtick_8">
     <g id="line2d_8">
      <g>
       <use xlink:href="#m52a054bf96" x="883.227273" y="576.72" style="stroke: #000000; stroke-width: 0.8"/>
      </g>
     </g>
     <g id="text_8">
      <!-- $\mathdefault{700}$ -->
      <g transform="translate(870.338107 596.016205) scale(0.1725 -0.1725)">
       <defs>
        <path id="URWPalladioL-Roma-37" d="M 358 32 
L 416 -51 
C 666 -32 666 -32 710 -32 
C 755 -32 755 -32 1005 -51 
C 1274 649 1587 1317 2010 2087 
L 3181 4199 
L 3181 4372 
C 2490 4372 2266 4372 1747 4372 
C 1280 4372 966 4372 346 4372 
L 282 4359 
C 301 3750 301 3750 301 3685 
C 301 3614 301 3614 282 3031 
L 474 3031 
L 518 3390 
C 570 3789 614 3840 909 3840 
L 2618 3840 
C 2362 3313 2163 2941 1920 2549 
L 358 32 
z
" transform="scale(0.015625)"/>
       </defs>
       <use xlink:href="#URWPalladioL-Roma-37" transform="scale(0.996264)"/>
       <use xlink:href="#URWPalladioL-Roma-30" transform="translate(49.8132 0) scale(0.996264)"/>
       <use xlink:href="#URWPalladioL-Roma-30" transform="translate(99.626401 0) scale(0.996264)"/>
      </g>
     </g>
    </g>
    <g id="text_9">
     <!-- $\Omega t$ -->
     <g transform="translate(539.877744 621.257382) scale(0.23 -0.23)">
      <defs>
       <path id="PazoMath-57" d="M 218 1025 
C 256 751 262 311 262 0 
C 397 0 781 0 1024 0 
C 1171 0 1651 0 1786 0 
L 1926 0 
L 1926 244 
C 1869 302 1773 328 1683 392 
C 1645 417 1587 481 1523 577 
C 1350 834 1018 1571 1018 2160 
C 1018 3525 1530 4288 2662 4288 
C 3795 4288 4301 3519 4301 2160 
C 4301 1571 3968 834 3795 577 
C 3731 481 3674 417 3635 392 
C 3539 328 3450 302 3392 244 
L 3392 0 
L 3533 0 
C 3667 0 4147 0 4294 0 
C 4538 0 4922 0 5056 0 
C 5056 311 5062 751 5101 1025 
L 4934 1025 
L 4890 691 
C 4864 506 4781 455 4659 455 
L 3923 455 
C 4326 794 4986 1545 4986 2390 
C 4986 3711 4102 4557 2662 4557 
C 1222 4557 333 3717 333 2390 
C 333 1545 992 794 1395 455 
L 659 455 
C 538 455 454 506 429 691 
L 384 1025 
L 218 1025 
z
" transform="scale(0.015625)"/>
       <path id="URWPalladioL-Ital-74" d="M 800 2465 
L 442 671 
C 435 626 429 615 410 538 
C 371 361 358 265 358 190 
C 358 31 429 -64 550 -64 
C 774 -64 998 62 1498 463 
L 1594 538 
L 1696 621 
L 1632 735 
L 1344 538 
C 1158 412 1030 348 960 348 
C 902 348 870 399 870 474 
C 870 639 960 1153 1146 2072 
L 1229 2465 
L 1914 2465 
L 1984 2784 
C 1741 2752 1523 2752 1280 2752 
C 1382 3348 1453 3659 1568 4001 
L 1498 4097 
C 1370 4021 1197 3944 998 3868 
L 838 2784 
C 557 2650 390 2580 275 2548 
L 262 2465 
L 800 2465 
z
" transform="scale(0.015625)"/>
      </defs>
      <use xlink:href="#PazoMath-57" transform="scale(0.996264)"/>
      <use xlink:href="#URWPalladioL-Ital-74" transform="translate(85.279232 0) scale(0.996264)"/>
     </g>
    </g>
   </g>
   <g id="matplotlib.axis_2">
    <g id="ytick_1">
     <g id="line2d_9">
      <defs>
       <path id="m36545c43f2" d="M 0 0 
L -3.5 0 
" style="stroke: #000000; stroke-width: 0.8"/>
      </defs>
      <g>
       <use xlink:href="#m36545c43f2" x="135" y="561.1275" style="stroke: #000000; stroke-width: 0.8"/>
      </g>
     </g>
     <g id="text_10">
      <!-- $\mathdefault{−3}$ -->
      <g transform="translate(105.272271 567.275602) scale(0.1725 -0.1725)">
       <defs>
        <path id="CMSY10-0" d="M 4218 1472 
C 4326 1472 4442 1472 4442 1600 
C 4442 1728 4326 1728 4218 1728 
L 755 1728 
C 646 1728 531 1728 531 1600 
C 531 1472 646 1472 755 1472 
L 4218 1472 
z
" transform="scale(0.015625)"/>
       </defs>
       <use xlink:href="#CMSY10-0" transform="scale(1.038107)"/>
       <use xlink:href="#URWPalladioL-Roma-33" transform="translate(81.941696 0) scale(0.996264)"/>
      </g>
     </g>
    </g>
    <g id="ytick_2">
     <g id="line2d_10">
      <g>
       <use xlink:href="#m36545c43f2" x="135" y="483.165" style="stroke: #000000; stroke-width: 0.8"/>
      </g>
     </g>
     <g id="text_11">
      <!-- $\mathdefault{−2}$ -->
      <g transform="translate(105.272271 489.313102) scale(0.1725 -0.1725)">
       <use xlink:href="#CMSY10-0" transform="scale(1.038107)"/>
       <use xlink:href="#URWPalladioL-Roma-32" transform="translate(81.941696 0) scale(0.996264)"/>
      </g>
     </g>
    </g>
    <g id="ytick_3">
     <g id="line2d_11">
      <g>
       <use xlink:href="#m36545c43f2" x="135" y="405.2025" style="stroke: #000000; stroke-width: 0.8"/>
      </g>
     </g>
     <g id="text_12">
      <!-- $\mathdefault{−1}$ -->
      <g transform="translate(105.272271 411.350602) scale(0.1725 -0.1725)">
       <use xlink:href="#CMSY10-0" transform="scale(1.038107)"/>
       <use xlink:href="#URWPalladioL-Roma-31" transform="translate(81.941696 0) scale(0.996264)"/>
      </g>
     </g>
    </g>
    <g id="ytick_4">
     <g id="line2d_12">
      <g>
       <use xlink:href="#m36545c43f2" x="135" y="327.24" style="stroke: #000000; stroke-width: 0.8"/>
      </g>
     </g>
     <g id="text_13">
      <!-- $\mathdefault{0}$ -->
      <g transform="translate(119.407223 333.388102) scale(0.1725 -0.1725)">
       <use xlink:href="#URWPalladioL-Roma-30" transform="scale(0.996264)"/>
      </g>
     </g>
    </g>
    <g id="ytick_5">
     <g id="line2d_13">
      <g>
       <use xlink:href="#m36545c43f2" x="135" y="249.2775" style="stroke: #000000; stroke-width: 0.8"/>
      </g>
     </g>
     <g id="text_14">
      <!-- $\mathdefault{1}$ -->
      <g transform="translate(119.407223 255.425602) scale(0.1725 -0.1725)">
       <use xlink:href="#URWPalladioL-Roma-31" transform="scale(0.996264)"/>
      </g>
     </g>
    </g>
    <g id="ytick_6">
     <g id="line2d_14">
      <g>
       <use xlink:href="#m36545c43f2" x="135" y="171.315" style="stroke: #000000; stroke-width: 0.8"/>
      </g>
     </g>
     <g id="text_15">
      <!-- $\mathdefault{2}$ -->
      <g transform="translate(119.407223 177.463102) scale(0.1725 -0.1725)">
       <use xlink:href="#URWPalladioL-Roma-32" transform="scale(0.996264)"/>
      </g>
     </g>
    </g>
    <g id="ytick_7">
     <g id="line2d_15">
      <g>
       <use xlink:href="#m36545c43f2" x="135" y="93.3525" style="stroke: #000000; stroke-width: 0.8"/>
      </g>
     </g>
     <g id="text_16">
      <!-- $\mathdefault{3}$ -->
      <g transform="translate(119.407223 99.500602) scale(0.1725 -0.1725)">
       <use xlink:href="#URWPalladioL-Roma-33" transform="scale(0.996264)"/>
      </g>
     </g>
    </g>
    <g id="text_17">
     <!-- $\theta_Y$ -->
     <g transform="translate(94.810632 338.21251) rotate(-90) scale(0.23 -0.23)">
      <defs>
       <path id="PazoMath-Italic-71" d="M 2029 4544 
C 1754 4544 1472 4410 1178 4123 
C 608 3581 186 2616 186 1443 
C 186 428 390 -64 928 -64 
C 1267 -64 1664 172 1965 556 
C 2400 1111 2797 2164 2797 3128 
C 2797 4015 2554 4544 2029 4544 
z
M 1478 2112 
C 1914 2112 2093 2093 2202 2042 
C 2061 1398 1824 825 1619 492 
C 1491 295 1318 181 1126 181 
C 742 181 672 671 672 1430 
C 672 1627 685 1831 717 2036 
C 851 2093 1024 2112 1478 2112 
z
M 1869 4300 
C 2272 4300 2310 3777 2310 2987 
C 2310 2808 2298 2624 2272 2445 
C 2144 2401 1946 2382 1523 2382 
C 1088 2382 902 2401 787 2446 
C 954 3198 1248 3886 1478 4153 
C 1568 4249 1715 4300 1869 4300 
z
" transform="scale(0.015625)"/>
       <path id="URWPalladioL-Ital-59" d="M 333 4115 
L 352 3964 
C 499 4021 570 4040 640 4040 
C 941 4040 1171 3749 1434 3038 
C 1587 2614 1837 1745 1830 1644 
C 1830 1644 1830 1625 1824 1606 
L 1690 800 
C 1581 218 1574 199 1318 179 
L 1011 179 
L 986 0 
L 1325 0 
C 1626 0 1773 0 1875 0 
L 2496 0 
L 2662 0 
L 2682 179 
L 2368 179 
C 2195 192 2138 237 2138 364 
C 2138 403 2144 465 2150 497 
L 2317 1566 
C 2374 1916 2790 2666 3264 3258 
C 3635 3729 3904 3920 4282 3984 
L 4320 4435 
C 3853 4315 3514 4048 3034 3414 
C 2643 2881 2394 2449 2214 1980 
C 1734 3921 1427 4480 838 4480 
L 813 4461 
C 794 4443 774 4430 755 4417 
C 685 4361 550 4260 429 4184 
L 333 4115 
z
" transform="scale(0.015625)"/>
      </defs>
      <use xlink:href="#PazoMath-Italic-71" transform="scale(0.996264)"/>
      <use xlink:href="#URWPalladioL-Ital-59" transform="translate(44.911538 -19.070013) scale(0.757155)"/>
     </g>
    </g>
   </g>
   <g id="line2d_16">
    <path d="M 173.045455 451.244277 
L 173.045455 193.029749 
L 174.061355 193.029749 
L 174.061355 199.788658 
L 175.077255 199.788658 
L 175.077255 151.535818 
L 176.093155 151.535818 
L 176.093155 507.306912 
L 177.109054 507.306912 
L 177.109054 206.009103 
L 178.124954 206.009103 
L 178.124954 332.292914 
L 179.140854 332.292914 
L 179.140854 413.690498 
L 180.156754 413.690498 
L 180.156754 212.193447 
L 181.172654 212.193447 
L 181.172654 148.305539 
L 182.188554 148.305539 
L 182.188554 409.557364 
L 183.204454 409.557364 
L 183.204454 498.146008 
L 184.220354 498.146008 
L 184.220354 87.388491 
L 185.236254 87.388491 
L 185.236254 122.36897 
L 186.252154 122.36897 
L 186.252154 431.9473 
L 187.268054 431.9473 
L 187.268054 180.328229 
L 188.283954 180.328229 
L 188.283954 553.047561 
L 189.299854 553.047561 
L 189.299854 113.936926 
L 190.315754 113.936926 
L 190.315754 187.190603 
L 191.331654 187.190603 
L 191.331654 478.19129 
L 192.347554 478.19129 
L 192.347554 428.993464 
L 193.363454 428.993464 
L 193.363454 268.092516 
L 194.379354 268.092516 
L 194.379354 395.064097 
L 195.395254 395.064097 
L 195.395254 211.487993 
L 196.411154 211.487993 
L 196.411154 282.193971 
L 197.427054 282.193971 
L 197.427054 481.878727 
L 198.442954 481.878727 
L 198.442954 284.12855 
L 199.458854 284.12855 
L 199.458854 550.497389 
L 200.474754 550.497389 
L 200.474754 532.771364 
L 201.490654 532.771364 
L 201.490654 508.563199 
L 202.506554 508.563199 
L 202.506554 386.751382 
L 203.522454 386.751382 
L 203.522454 570.200815 
L 204.538354 570.200815 
L 204.538354 118.860047 
L 205.554254 118.860047 
L 205.554254 457.038349 
L 206.570154 457.038349 
L 206.570154 436.764135 
L 207.586054 436.764135 
L 207.586054 401.992218 
L 208.601954 401.992218 
L 208.601954 117.991597 
L 209.617854 117.991597 
L 209.617854 392.678453 
L 210.633754 392.678453 
L 210.633754 372.865375 
L 211.649654 372.865375 
L 211.649654 414.019183 
L 212.665554 414.019183 
L 212.665554 94.029892 
L 213.681454 94.029892 
L 213.681454 382.462253 
L 214.697354 382.462253 
L 214.697354 552.529263 
L 215.713254 552.529263 
L 215.713254 257.258708 
L 216.729154 257.258708 
L 216.729154 223.269673 
L 217.745054 223.269673 
L 217.745054 400.704814 
L 218.760954 400.704814 
L 218.760954 466.213743 
L 219.776854 466.213743 
L 219.776854 348.358477 
L 220.792754 348.358477 
L 220.792754 352.25314 
L 221.808654 352.25314 
L 221.808654 92.091565 
L 222.824554 92.091565 
L 222.824554 155.878102 
L 223.840454 155.878102 
L 223.840454 274.444315 
L 224.856354 274.444315 
L 224.856354 486.986886 
L 225.872254 486.986886 
L 225.872254 241.718595 
L 226.888154 241.718595 
L 226.888154 201.495593 
L 227.904054 201.495593 
L 227.904054 547.491968 
L 228.919954 547.491968 
L 228.919954 372.764722 
L 229.935854 372.764722 
L 229.935854 421.085157 
L 230.951754 421.085157 
L 230.951754 314.669483 
L 231.967654 314.669483 
L 231.967654 256.672879 
L 232.983554 256.672879 
L 232.983554 477.916786 
L 233.999454 477.916786 
L 233.999454 337.04156 
L 235.015354 337.04156 
L 235.015354 86.139484 
L 236.031254 86.139484 
L 236.031254 563.369719 
L 237.047154 563.369719 
L 237.047154 377.484681 
L 238.063054 377.484681 
L 238.063054 393.234341 
L 239.078954 393.234341 
L 239.078954 377.68131 
L 240.094854 377.68131 
L 240.094854 129.99212 
L 241.110754 129.99212 
L 241.110754 338.960302 
L 242.126654 338.960302 
L 242.126654 131.026125 
L 243.142554 131.026125 
L 243.142554 285.546353 
L 244.158454 285.546353 
L 244.158454 353.549799 
L 245.174354 353.549799 
L 245.174354 448.230932 
L 246.190254 448.230932 
L 246.190254 157.982801 
L 247.206154 157.982801 
L 247.206154 247.174483 
L 248.222054 247.174483 
L 248.222054 473.318121 
L 249.237954 473.318121 
L 249.237954 530.489301 
L 250.253854 530.489301 
L 250.253854 529.971575 
L 251.269754 529.971575 
L 251.269754 159.978717 
L 252.285654 159.978717 
L 252.285654 342.662502 
L 253.301554 342.662502 
L 253.301554 176.140376 
L 254.317454 176.140376 
L 254.317454 130.477099 
L 255.333354 130.477099 
L 255.333354 464.302372 
L 256.349254 464.302372 
L 256.349254 553.480071 
L 257.365154 553.480071 
L 257.365154 497.821296 
L 258.381054 497.821296 
L 258.381054 195.510217 
L 259.396954 195.510217 
L 259.396954 567.685243 
L 260.412854 567.685243 
L 260.412854 314.466483 
L 261.428753 314.466483 
L 261.428753 490.636217 
L 262.444653 490.636217 
L 262.444653 197.211084 
L 263.460553 197.211084 
L 263.460553 321.775205 
L 264.476453 321.775205 
L 264.476453 293.895554 
L 265.492353 293.895554 
L 265.492353 423.217638 
L 266.508253 423.217638 
L 266.508253 375.502008 
L 267.524153 375.502008 
L 267.524153 536.62827 
L 268.540053 536.62827 
L 268.540053 168.326441 
L 269.555953 168.326441 
L 269.555953 107.698149 
L 270.571853 107.698149 
L 270.571853 203.261863 
L 271.587753 203.261863 
L 271.587753 341.819178 
L 272.603653 341.819178 
L 272.603653 151.630186 
L 273.619553 151.630186 
L 273.619553 560.686704 
L 274.635453 560.686704 
L 274.635453 256.587976 
L 275.651353 256.587976 
L 275.651353 193.686516 
L 276.667253 193.686516 
L 276.667253 414.271238 
L 277.683153 414.271238 
L 277.683153 139.947291 
L 278.699053 139.947291 
L 278.699053 570.918929 
L 279.714953 570.918929 
L 279.714953 249.605716 
L 280.730853 249.605716 
L 280.730853 415.828467 
L 281.746753 415.828467 
L 281.746753 296.027189 
L 282.762653 296.027189 
L 282.762653 449.086569 
L 283.778553 449.086569 
L 283.778553 479.129904 
L 284.794453 479.129904 
L 284.794453 265.771267 
L 285.810353 265.771267 
L 285.810353 311.206129 
L 286.826253 311.206129 
L 286.826253 494.95264 
L 287.842153 494.95264 
L 287.842153 158.866376 
L 288.858053 158.866376 
L 288.858053 143.632353 
L 289.873953 143.632353 
L 289.873953 313.467489 
L 290.889853 313.467489 
L 290.889853 221.119086 
L 291.905753 221.119086 
L 291.905753 324.455133 
L 292.921653 324.455133 
L 292.921653 181.371259 
L 293.937553 181.371259 
L 293.937553 146.949883 
L 294.953453 146.949883 
L 294.953453 197.831289 
L 295.969353 197.831289 
L 295.969353 454.55502 
L 296.985253 454.55502 
L 296.985253 569.341473 
L 298.001153 569.341473 
L 298.001153 245.408967 
L 299.017053 245.408967 
L 299.017053 364.418078 
L 300.032953 364.418078 
L 300.032953 119.350335 
L 301.048853 119.350335 
L 301.048853 141.230057 
L 302.064753 141.230057 
L 302.064753 303.379601 
L 303.080653 303.379601 
L 303.080653 399.17414 
L 304.096553 399.17414 
L 304.096553 220.956917 
L 305.112453 220.956917 
L 305.112453 226.979396 
L 306.128353 226.979396 
L 306.128353 236.030672 
L 307.144253 236.030672 
L 307.144253 165.461538 
L 308.160153 165.461538 
L 308.160153 275.779795 
L 309.176053 275.779795 
L 309.176053 292.778873 
L 310.191953 292.778873 
L 310.191953 283.994983 
L 311.207853 283.994983 
L 311.207853 137.9577 
L 312.223753 137.9577 
L 312.223753 363.935239 
L 313.239653 363.935239 
L 313.239653 153.475183 
L 314.255553 153.475183 
L 314.255553 323.145075 
L 315.271453 323.145075 
L 315.271453 541.102822 
L 316.287353 541.102822 
L 316.287353 350.250764 
L 317.303253 350.250764 
L 317.303253 429.201127 
L 318.319153 429.201127 
L 318.319153 284.235103 
L 319.335053 284.235103 
L 319.335053 146.974348 
L 320.350953 146.974348 
L 320.350953 487.139667 
L 321.366853 487.139667 
L 321.366853 347.594424 
L 322.382753 347.594424 
L 322.382753 277.006456 
L 323.398653 277.006456 
L 323.398653 198.214051 
L 324.414553 198.214051 
L 324.414553 133.701838 
L 325.430453 133.701838 
L 325.430453 306.533319 
L 326.446353 306.533319 
L 326.446353 117.186803 
L 327.462253 117.186803 
L 327.462253 400.719029 
L 328.478153 400.719029 
L 328.478153 197.736612 
L 329.494053 197.736612 
L 329.494053 198.145214 
L 330.509953 198.145214 
L 330.509953 281.338413 
L 331.525853 281.338413 
L 331.525853 483.865505 
L 332.541753 483.865505 
L 332.541753 385.565506 
L 333.557653 385.565506 
L 333.557653 423.701946 
L 334.573553 423.701946 
L 334.573553 115.873226 
L 335.589453 115.873226 
L 335.589453 256.274456 
L 336.605353 256.274456 
L 336.605353 112.703136 
L 337.621253 112.703136 
L 337.621253 431.154239 
L 338.637153 431.154239 
L 338.637153 347.517834 
L 339.653053 347.517834 
L 339.653053 296.764316 
L 340.668953 296.764316 
L 340.668953 391.776468 
L 341.684853 391.776468 
L 341.684853 339.588403 
L 342.700753 339.588403 
L 342.700753 274.296229 
L 343.716653 274.296229 
L 343.716653 568.106415 
L 344.732552 568.106415 
L 344.732552 406.379217 
L 345.748452 406.379217 
L 345.748452 572.144292 
L 346.764352 572.144292 
L 346.764352 313.240869 
L 347.780252 313.240869 
L 347.780252 279.107862 
L 348.796152 279.107862 
L 348.796152 536.583718 
L 349.812052 536.583718 
L 349.812052 453.832974 
L 350.827952 453.832974 
L 350.827952 172.640671 
L 351.843852 172.640671 
L 351.843852 169.591583 
L 352.859752 169.591583 
L 352.859752 370.206627 
L 353.875652 370.206627 
L 353.875652 173.999967 
L 354.891552 173.999967 
L 354.891552 434.836728 
L 355.907452 434.836728 
L 355.907452 222.514098 
L 356.923352 222.514098 
L 356.923352 295.753772 
L 357.939252 295.753772 
L 357.939252 345.274603 
L 358.955152 345.274603 
L 358.955152 244.993197 
L 359.971052 244.993197 
L 359.971052 562.664495 
L 360.986952 562.664495 
L 360.986952 496.389156 
L 362.002852 496.389156 
L 362.002852 430.686342 
L 363.018752 430.686342 
L 363.018752 232.912697 
L 364.034652 232.912697 
L 364.034652 225.900773 
L 365.050552 225.900773 
L 365.050552 241.162773 
L 366.066452 241.162773 
L 366.066452 196.828401 
L 367.082352 196.828401 
L 367.082352 508.983775 
L 368.098252 508.983775 
L 368.098252 522.141893 
L 369.114152 522.141893 
L 369.114152 160.788515 
L 370.130052 160.788515 
L 370.130052 410.624863 
L 371.145952 410.624863 
L 371.145952 281.914939 
L 372.161852 281.914939 
L 372.161852 333.648834 
L 373.177752 333.648834 
L 373.177752 259.312523 
L 374.193652 259.312523 
L 374.193652 538.573525 
L 375.209552 538.573525 
L 375.209552 195.639458 
L 376.225452 195.639458 
L 376.225452 534.432432 
L 377.241352 534.432432 
L 377.241352 233.265244 
L 378.257252 233.265244 
L 378.257252 351.365606 
L 379.273152 351.365606 
L 379.273152 341.154804 
L 380.289052 341.154804 
L 380.289052 253.539522 
L 381.304952 253.539522 
L 381.304952 413.804505 
L 382.320852 413.804505 
L 382.320852 542.769565 
L 383.336752 542.769565 
L 383.336752 99.025647 
L 384.352652 99.025647 
L 384.352652 319.010758 
L 385.368552 319.010758 
L 385.368552 208.576941 
L 386.384452 208.576941 
L 386.384452 283.766208 
L 387.400352 283.766208 
L 387.400352 177.008594 
L 388.416252 177.008594 
L 388.416252 310.482627 
L 389.432152 310.482627 
L 389.432152 514.894766 
L 390.448052 514.894766 
L 390.448052 256.978285 
L 391.463952 256.978285 
L 391.463952 490.311961 
L 392.479852 490.311961 
L 392.479852 173.156678 
L 393.495752 173.156678 
L 393.495752 242.709199 
L 394.511652 242.709199 
L 394.511652 102.66255 
L 395.527552 102.66255 
L 395.527552 266.110586 
L 396.543452 266.110586 
L 396.543452 459.555479 
L 397.559352 459.555479 
L 397.559352 317.086234 
L 398.575252 317.086234 
L 398.575252 190.564162 
L 399.591152 190.564162 
L 399.591152 230.361633 
L 400.607052 230.361633 
L 400.607052 395.561989 
L 401.622952 395.561989 
L 401.622952 265.512945 
L 402.638852 265.512945 
L 402.638852 106.955705 
L 403.654752 106.955705 
L 403.654752 227.036462 
L 404.670652 227.036462 
L 404.670652 360.925458 
L 405.686552 360.925458 
L 405.686552 141.823995 
L 406.702452 141.823995 
L 406.702452 172.225211 
L 407.718352 172.225211 
L 407.718352 160.85442 
L 408.734252 160.85442 
L 408.734252 549.137234 
L 409.750152 549.137234 
L 409.750152 417.864628 
L 410.766052 417.864628 
L 410.766052 179.948624 
L 411.781952 179.948624 
L 411.781952 435.487717 
L 412.797852 435.487717 
L 412.797852 532.888926 
L 413.813752 532.888926 
L 413.813752 242.913295 
L 414.829652 242.913295 
L 414.829652 180.240544 
L 415.845552 180.240544 
L 415.845552 251.251668 
L 416.861452 251.251668 
L 416.861452 397.88857 
L 417.877352 397.88857 
L 417.877352 289.086051 
L 418.893252 289.086051 
L 418.893252 568.43277 
L 419.909152 568.43277 
L 419.909152 287.068112 
L 420.925052 287.068112 
L 420.925052 152.528609 
L 421.940952 152.528609 
L 421.940952 554.90467 
L 422.956852 554.90467 
L 422.956852 389.210273 
L 423.972752 389.210273 
L 423.972752 496.97281 
L 424.988652 496.97281 
L 424.988652 361.764541 
L 426.004552 361.764541 
L 426.004552 570.291322 
L 427.020452 570.291322 
L 427.020452 160.113193 
L 428.036351 160.113193 
L 428.036351 330.372587 
L 429.052251 330.372587 
L 429.052251 356.830131 
L 430.068151 356.830131 
L 430.068151 283.871124 
L 431.084051 283.871124 
L 431.084051 168.237642 
L 432.099951 168.237642 
L 432.099951 423.29128 
L 433.115851 423.29128 
L 433.115851 437.092941 
L 434.131751 437.092941 
L 434.131751 562.509082 
L 435.147651 562.509082 
L 435.147651 437.777912 
L 436.163551 437.777912 
L 436.163551 557.622873 
L 437.179451 557.622873 
L 437.179451 565.354932 
L 438.195351 565.354932 
L 438.195351 277.003116 
L 439.211251 277.003116 
L 439.211251 498.869652 
L 440.227151 498.869652 
L 440.227151 551.26113 
L 441.243051 551.26113 
L 441.243051 137.859365 
L 442.258951 137.859365 
L 442.258951 502.255825 
L 443.274851 502.255825 
L 443.274851 545.805793 
L 444.290751 545.805793 
L 444.290751 140.946643 
L 445.306651 140.946643 
L 445.306651 242.624493 
L 446.322551 242.624493 
L 446.322551 218.20004 
L 447.338451 218.20004 
L 447.338451 274.334049 
L 448.354351 274.334049 
L 448.354351 558.085278 
L 449.370251 558.085278 
L 449.370251 162.530021 
L 450.386151 162.530021 
L 450.386151 353.951156 
L 451.402051 353.951156 
L 451.402051 369.180183 
L 452.417951 369.180183 
L 452.417951 516.394867 
L 453.433851 516.394867 
L 453.433851 509.753328 
L 454.449751 509.753328 
L 454.449751 295.069173 
L 455.465651 295.069173 
L 455.465651 291.987562 
L 456.481551 291.987562 
L 456.481551 332.560571 
L 457.497451 332.560571 
L 457.497451 285.634734 
L 458.513351 285.634734 
L 458.513351 136.405439 
L 459.529251 136.405439 
L 459.529251 290.652301 
L 460.545151 290.652301 
L 460.545151 366.444888 
L 461.561051 366.444888 
L 461.561051 445.802938 
L 462.576951 445.802938 
L 462.576951 411.257745 
L 463.592851 411.257745 
L 463.592851 304.464238 
L 464.608751 304.464238 
L 464.608751 179.518589 
L 465.624651 179.518589 
L 465.624651 348.070776 
L 466.640551 348.070776 
L 466.640551 566.864142 
L 467.656451 566.864142 
L 467.656451 487.444185 
L 468.672351 487.444185 
L 468.672351 541.646744 
L 469.688251 541.646744 
L 469.688251 412.379136 
L 470.704151 412.379136 
L 470.704151 234.291791 
L 471.720051 234.291791 
L 471.720051 284.641426 
L 472.735951 284.641426 
L 472.735951 246.778739 
L 473.751851 246.778739 
L 473.751851 336.03403 
L 474.767751 336.03403 
L 474.767751 540.184707 
L 475.783651 540.184707 
L 475.783651 414.287612 
L 476.799551 414.287612 
L 476.799551 312.092461 
L 477.815451 312.092461 
L 477.815451 321.112933 
L 478.831351 321.112933 
L 478.831351 453.386075 
L 479.847251 453.386075 
L 479.847251 159.583943 
L 480.863151 159.583943 
L 480.863151 322.965322 
L 481.879051 322.965322 
L 481.879051 159.069968 
L 482.894951 159.069968 
L 482.894951 439.430622 
L 483.910851 439.430622 
L 483.910851 96.884645 
L 484.926751 96.884645 
L 484.926751 507.18834 
L 485.942651 507.18834 
L 485.942651 196.293348 
L 486.958551 196.293348 
L 486.958551 560.250326 
L 487.974451 560.250326 
L 487.974451 455.77699 
L 488.990351 455.77699 
L 488.990351 120.331227 
L 490.006251 120.331227 
L 490.006251 389.316659 
L 491.022151 389.316659 
L 491.022151 119.386966 
L 492.038051 119.386966 
L 492.038051 113.024137 
L 493.053951 113.024137 
L 493.053951 180.1349 
L 494.069851 180.1349 
L 494.069851 355.459332 
L 495.085751 355.459332 
L 495.085751 148.895673 
L 496.101651 148.895673 
L 496.101651 328.928963 
L 497.117551 328.928963 
L 497.117551 537.161762 
L 498.133451 537.161762 
L 498.133451 164.670423 
L 499.149351 164.670423 
L 499.149351 161.795598 
L 500.165251 161.795598 
L 500.165251 507.840986 
L 501.181151 507.840986 
L 501.181151 136.458804 
L 502.197051 136.458804 
L 502.197051 305.318935 
L 503.212951 305.318935 
L 503.212951 207.79422 
L 504.228851 207.79422 
L 504.228851 438.592922 
L 505.244751 438.592922 
L 505.244751 464.795087 
L 506.260651 464.795087 
L 506.260651 145.153076 
L 507.276551 145.153076 
L 507.276551 277.348356 
L 508.292451 277.348356 
L 508.292451 494.102675 
L 509.308351 494.102675 
L 509.308351 382.826743 
L 510.324251 382.826743 
L 510.324251 152.494558 
L 511.340151 152.494558 
L 511.340151 353.172495 
L 512.35605 353.172495 
L 512.35605 400.944732 
L 513.37195 400.944732 
L 513.37195 385.004927 
L 514.38785 385.004927 
L 514.38785 176.868511 
L 515.40375 176.868511 
L 515.40375 344.316612 
L 516.41965 344.316612 
L 516.41965 97.204154 
L 517.43555 97.204154 
L 517.43555 409.16407 
L 518.45145 409.16407 
L 518.45145 202.456468 
L 519.46735 202.456468 
L 519.46735 425.941424 
L 520.48325 425.941424 
L 520.48325 198.310766 
L 521.49915 198.310766 
L 521.49915 540.61276 
L 522.51505 540.61276 
L 522.51505 528.133571 
L 523.53095 528.133571 
L 523.53095 443.792752 
L 524.54685 443.792752 
L 524.54685 169.187751 
L 525.56275 169.187751 
L 525.56275 413.857707 
L 526.57865 413.857707 
L 526.57865 319.134718 
L 527.59455 319.134718 
L 527.59455 514.930002 
L 528.61045 514.930002 
L 528.61045 323.359537 
L 529.62635 323.359537 
L 529.62635 536.343321 
L 530.64225 536.343321 
L 530.64225 526.009723 
L 531.65815 526.009723 
L 531.65815 182.160038 
L 532.67405 182.160038 
L 532.67405 454.709188 
L 533.68995 454.709188 
L 533.68995 550.515542 
L 534.70585 550.515542 
L 534.70585 287.071594 
L 535.72175 287.071594 
L 535.72175 508.676463 
L 536.73765 508.676463 
L 536.73765 553.846698 
L 537.75355 553.846698 
L 537.75355 169.23617 
L 538.76945 169.23617 
L 538.76945 332.208643 
L 539.78535 332.208643 
L 539.78535 155.26516 
L 540.80125 155.26516 
L 540.80125 209.358507 
L 541.81715 209.358507 
L 541.81715 468.730217 
L 542.83305 468.730217 
L 542.83305 537.980337 
L 543.84895 537.980337 
L 543.84895 495.682866 
L 544.86485 495.682866 
L 544.86485 336.837005 
L 545.88075 336.837005 
L 545.88075 409.423656 
L 546.89665 409.423656 
L 546.89665 156.043228 
L 547.91255 156.043228 
L 547.91255 349.592672 
L 548.92845 349.592672 
L 548.92845 311.213388 
L 549.94435 311.213388 
L 549.94435 360.649691 
L 550.96025 360.649691 
L 550.96025 202.727854 
L 551.97615 202.727854 
L 551.97615 234.671813 
L 552.99205 234.671813 
L 552.99205 232.183051 
L 554.00795 232.183051 
L 554.00795 197.393145 
L 555.02385 197.393145 
L 555.02385 369.369427 
L 556.03975 369.369427 
L 556.03975 526.993979 
L 557.05565 526.993979 
L 557.05565 165.200692 
L 558.07155 165.200692 
L 558.07155 400.410913 
L 559.08745 400.410913 
L 559.08745 229.244762 
L 560.10335 229.244762 
L 560.10335 85.855358 
L 561.11925 85.855358 
L 561.11925 245.247212 
L 562.13515 245.247212 
L 562.13515 125.894028 
L 563.15105 125.894028 
L 563.15105 569.030953 
L 564.16695 569.030953 
L 564.16695 260.024823 
L 565.18285 260.024823 
L 565.18285 524.427736 
L 566.19875 524.427736 
L 566.19875 143.044599 
L 567.21465 143.044599 
L 567.21465 109.984336 
L 568.23055 109.984336 
L 568.23055 567.452941 
L 569.24645 567.452941 
L 569.24645 516.851349 
L 570.26235 516.851349 
L 570.26235 170.541668 
L 571.27825 170.541668 
L 571.27825 234.194765 
L 572.29415 234.194765 
L 572.29415 94.941182 
L 573.31005 94.941182 
L 573.31005 201.155184 
L 574.32595 201.155184 
L 574.32595 263.098645 
L 575.34185 263.098645 
L 575.34185 287.949768 
L 576.35775 287.949768 
L 576.35775 570.203457 
L 577.37365 570.203457 
L 577.37365 188.898862 
L 578.38955 188.898862 
L 578.38955 374.375542 
L 579.40545 374.375542 
L 579.40545 551.091685 
L 580.42135 551.091685 
L 580.42135 284.962112 
L 581.43725 284.962112 
L 581.43725 371.181734 
L 582.45315 371.181734 
L 582.45315 256.077433 
L 583.46905 256.077433 
L 583.46905 569.872306 
L 584.48495 569.872306 
L 584.48495 525.946975 
L 585.50085 525.946975 
L 585.50085 295.722218 
L 586.51675 295.722218 
L 586.51675 272.010387 
L 587.53265 272.010387 
L 587.53265 556.4872 
L 588.54855 556.4872 
L 588.54855 268.461021 
L 589.56445 268.461021 
L 589.56445 153.099243 
L 590.58035 153.099243 
L 590.58035 429.73943 
L 591.59625 429.73943 
L 591.59625 336.119359 
L 592.61215 336.119359 
L 592.61215 131.227534 
L 593.62805 131.227534 
L 593.62805 224.362542 
L 594.64395 224.362542 
L 594.64395 479.67245 
L 595.659849 479.67245 
L 595.659849 103.853236 
L 596.675749 103.853236 
L 596.675749 373.687962 
L 597.691649 373.687962 
L 597.691649 176.13955 
L 598.707549 176.13955 
L 598.707549 328.188153 
L 599.723449 328.188153 
L 599.723449 179.447514 
L 600.739349 179.447514 
L 600.739349 103.436702 
L 601.755249 103.436702 
L 601.755249 124.396767 
L 602.771149 124.396767 
L 602.771149 182.307067 
L 603.787049 182.307067 
L 603.787049 385.532494 
L 604.802949 385.532494 
L 604.802949 148.590508 
L 605.818849 148.590508 
L 605.818849 516.688226 
L 606.834749 516.688226 
L 606.834749 442.250394 
L 607.850649 442.250394 
L 607.850649 251.917543 
L 608.866549 251.917543 
L 608.866549 205.606841 
L 609.882449 205.606841 
L 609.882449 542.830795 
L 610.898349 542.830795 
L 610.898349 441.179579 
L 611.914249 441.179579 
L 611.914249 359.947676 
L 612.930149 359.947676 
L 612.930149 158.71464 
L 613.946049 158.71464 
L 613.946049 571.327359 
L 614.961949 571.327359 
L 614.961949 150.345608 
L 615.977849 150.345608 
L 615.977849 380.231572 
L 616.993749 380.231572 
L 616.993749 255.667558 
L 618.009649 255.667558 
L 618.009649 111.177538 
L 619.025549 111.177538 
L 619.025549 544.207373 
L 620.041449 544.207373 
L 620.041449 318.212291 
L 621.057349 318.212291 
L 621.057349 468.0042 
L 622.073249 468.0042 
L 622.073249 231.193499 
L 623.089149 231.193499 
L 623.089149 179.530378 
L 624.105049 179.530378 
L 624.105049 452.114731 
L 625.120949 452.114731 
L 625.120949 164.068693 
L 626.136849 164.068693 
L 626.136849 503.784289 
L 627.152749 503.784289 
L 627.152749 309.252319 
L 628.168649 309.252319 
L 628.168649 527.128498 
L 629.184549 527.128498 
L 629.184549 408.540536 
L 630.200449 408.540536 
L 630.200449 390.612937 
L 631.216349 390.612937 
L 631.216349 238.739812 
L 632.232249 238.739812 
L 632.232249 410.685022 
L 633.248149 410.685022 
L 633.248149 295.91077 
L 634.264049 295.91077 
L 634.264049 248.070995 
L 635.279949 248.070995 
L 635.279949 185.689587 
L 636.295849 185.689587 
L 636.295849 424.239219 
L 637.311749 424.239219 
L 637.311749 562.04002 
L 638.327649 562.04002 
L 638.327649 456.640241 
L 639.343549 456.640241 
L 639.343549 303.582831 
L 640.359449 303.582831 
L 640.359449 129.278679 
L 641.375349 129.278679 
L 641.375349 254.362442 
L 642.391249 254.362442 
L 642.391249 289.310691 
L 643.407149 289.310691 
L 643.407149 555.733974 
L 644.423049 555.733974 
L 644.423049 297.971472 
L 645.438949 297.971472 
L 645.438949 392.712517 
L 646.454849 392.712517 
L 646.454849 399.843726 
L 647.470749 399.843726 
L 647.470749 117.091512 
L 648.486649 117.091512 
L 648.486649 508.022048 
L 649.502549 508.022048 
L 649.502549 552.299582 
L 650.518449 552.299582 
L 650.518449 421.615032 
L 651.534349 421.615032 
L 651.534349 246.249467 
L 652.550249 246.249467 
L 652.550249 434.810621 
L 653.566149 434.810621 
L 653.566149 224.054746 
L 654.582049 224.054746 
L 654.582049 233.375093 
L 655.597949 233.375093 
L 655.597949 343.870889 
L 656.613849 343.870889 
L 656.613849 173.749797 
L 657.629749 173.749797 
L 657.629749 401.841289 
L 658.645649 401.841289 
L 658.645649 260.13736 
L 659.661549 260.13736 
L 659.661549 298.06412 
L 660.677449 298.06412 
L 660.677449 539.028822 
L 661.693349 539.028822 
L 661.693349 389.178049 
L 662.709249 389.178049 
L 662.709249 278.78567 
L 663.725149 278.78567 
L 663.725149 102.881955 
L 664.741049 102.881955 
L 664.741049 186.867134 
L 665.756949 186.867134 
L 665.756949 304.064706 
L 666.772849 304.064706 
L 666.772849 487.011218 
L 667.788749 487.011218 
L 667.788749 441.272988 
L 668.804649 441.272988 
L 668.804649 545.124162 
L 669.820549 545.124162 
L 669.820549 262.68226 
L 670.836449 262.68226 
L 670.836449 341.181722 
L 671.852349 341.181722 
L 671.852349 259.806776 
L 672.868249 259.806776 
L 672.868249 309.884246 
L 673.884149 309.884246 
L 673.884149 334.315397 
L 674.900049 334.315397 
L 674.900049 384.736784 
L 675.915949 384.736784 
L 675.915949 559.511196 
L 676.931849 559.511196 
L 676.931849 102.26103 
L 677.947749 102.26103 
L 677.947749 546.878261 
L 678.963649 546.878261 
L 678.963649 547.083807 
L 679.979548 547.083807 
L 679.979548 464.84222 
L 680.995448 464.84222 
L 680.995448 511.757894 
L 682.011348 511.757894 
L 682.011348 178.721315 
L 683.027248 178.721315 
L 683.027248 506.319973 
L 684.043148 506.319973 
L 684.043148 385.887104 
L 685.059048 385.887104 
L 685.059048 569.161675 
L 686.074948 569.161675 
L 686.074948 105.566955 
L 687.090848 105.566955 
L 687.090848 400.862138 
L 688.106748 400.862138 
L 688.106748 150.801736 
L 689.122648 150.801736 
L 689.122648 105.312296 
L 690.138548 105.312296 
L 690.138548 214.255975 
L 691.154448 214.255975 
L 691.154448 443.444163 
L 692.170348 443.444163 
L 692.170348 335.77183 
L 693.186248 335.77183 
L 693.186248 183.898281 
L 694.202148 183.898281 
L 694.202148 236.948799 
L 695.218048 236.948799 
L 695.218048 172.158662 
L 696.233948 172.158662 
L 696.233948 298.05059 
L 697.249848 298.05059 
L 697.249848 254.077413 
L 698.265748 254.077413 
L 698.265748 380.970705 
L 699.281648 380.970705 
L 699.281648 490.945955 
L 700.297548 490.945955 
L 700.297548 237.016214 
L 701.313448 237.016214 
L 701.313448 570.250146 
L 702.329348 570.250146 
L 702.329348 188.917493 
L 703.345248 188.917493 
L 703.345248 560.522167 
L 704.361148 560.522167 
L 704.361148 272.207451 
L 705.377048 272.207451 
L 705.377048 270.97808 
L 706.392948 270.97808 
L 706.392948 538.212402 
L 707.408848 538.212402 
L 707.408848 299.074113 
L 708.424748 299.074113 
L 708.424748 198.314261 
L 709.440648 198.314261 
L 709.440648 316.173663 
L 710.456548 316.173663 
L 710.456548 245.29558 
L 711.472448 245.29558 
L 711.472448 230.35633 
L 712.488348 230.35633 
L 712.488348 473.836551 
L 713.504248 473.836551 
L 713.504248 117.405654 
L 714.520148 117.405654 
L 714.520148 396.245865 
L 715.536048 396.245865 
L 715.536048 279.14776 
L 716.551948 279.14776 
L 716.551948 541.160571 
L 717.567848 541.160571 
L 717.567848 88.26737 
L 718.583748 88.26737 
L 718.583748 260.634774 
L 719.599648 260.634774 
L 719.599648 351.807318 
L 720.615548 351.807318 
L 720.615548 299.496059 
L 721.631448 299.496059 
L 721.631448 565.244352 
L 722.647348 565.244352 
L 722.647348 455.894374 
L 723.663248 455.894374 
L 723.663248 87.967326 
L 724.679148 87.967326 
L 724.679148 530.24988 
L 725.695048 530.24988 
L 725.695048 509.328619 
L 726.710948 509.328619 
L 726.710948 295.480167 
L 727.726848 295.480167 
L 727.726848 191.144912 
L 728.742748 191.144912 
L 728.742748 170.083656 
L 729.758648 170.083656 
L 729.758648 151.987692 
L 730.774548 151.987692 
L 730.774548 199.529221 
L 731.790448 199.529221 
L 731.790448 406.935027 
L 732.806348 406.935027 
L 732.806348 302.585905 
L 733.822248 302.585905 
L 733.822248 165.071982 
L 734.838148 165.071982 
L 734.838148 512.704804 
L 735.854048 512.704804 
L 735.854048 538.351042 
L 736.869948 538.351042 
L 736.869948 355.735398 
L 737.885848 355.735398 
L 737.885848 415.324418 
L 738.901748 415.324418 
L 738.901748 570.474144 
L 739.917648 570.474144 
L 739.917648 297.780315 
L 740.933548 297.780315 
L 740.933548 385.191821 
L 741.949448 385.191821 
L 741.949448 126.009654 
L 742.965348 126.009654 
L 742.965348 403.812434 
L 743.981248 403.812434 
L 743.981248 254.040525 
L 744.997148 254.040525 
L 744.997148 311.636043 
L 746.013048 311.636043 
L 746.013048 422.875562 
L 747.028948 422.875562 
L 747.028948 316.599841 
L 748.044848 316.599841 
L 748.044848 376.09655 
L 749.060748 376.09655 
L 749.060748 457.376322 
L 750.076648 457.376322 
L 750.076648 556.959624 
L 751.092548 556.959624 
L 751.092548 563.147715 
L 752.108448 563.147715 
L 752.108448 465.295423 
L 753.124348 465.295423 
L 753.124348 543.069414 
L 754.140248 543.069414 
L 754.140248 503.814433 
L 755.156148 503.814433 
L 755.156148 530.981996 
L 756.172048 530.981996 
L 756.172048 366.867325 
L 757.187948 366.867325 
L 757.187948 454.47846 
L 758.203848 454.47846 
L 758.203848 565.328777 
L 759.219748 565.328777 
L 759.219748 560.896392 
L 760.235648 560.896392 
L 760.235648 108.513407 
L 761.251548 108.513407 
L 761.251548 451.952699 
L 762.267448 451.952699 
L 762.267448 545.295569 
L 763.283347 545.295569 
L 763.283347 256.127756 
L 764.299247 256.127756 
L 764.299247 295.632161 
L 765.315147 295.632161 
L 765.315147 380.698951 
L 766.331047 380.698951 
L 766.331047 209.925657 
L 767.346947 209.925657 
L 767.346947 113.828419 
L 768.362847 113.828419 
L 768.362847 375.787201 
L 769.378747 375.787201 
L 769.378747 381.36224 
L 770.394647 381.36224 
L 770.394647 291.198328 
L 771.410547 291.198328 
L 771.410547 457.71227 
L 772.426447 457.71227 
L 772.426447 493.964738 
L 773.442347 493.964738 
L 773.442347 362.787084 
L 774.458247 362.787084 
L 774.458247 233.01922 
L 775.474147 233.01922 
L 775.474147 569.748557 
L 776.490047 569.748557 
L 776.490047 505.799855 
L 777.505947 505.799855 
L 777.505947 175.242886 
L 778.521847 175.242886 
L 778.521847 407.638118 
L 779.537747 407.638118 
L 779.537747 286.227153 
L 780.553647 286.227153 
L 780.553647 552.795667 
L 781.569547 552.795667 
L 781.569547 320.465821 
L 782.585447 320.465821 
L 782.585447 552.251184 
L 783.601347 552.251184 
L 783.601347 482.448509 
L 784.617247 482.448509 
L 784.617247 319.650814 
L 785.633147 319.650814 
L 785.633147 306.661092 
L 786.649047 306.661092 
L 786.649047 533.955756 
L 787.664947 533.955756 
L 787.664947 306.750461 
L 788.680847 306.750461 
L 788.680847 183.624272 
L 789.696747 183.624272 
L 789.696747 232.852776 
L 790.712647 232.852776 
L 790.712647 373.44004 
L 791.728547 373.44004 
L 791.728547 288.448056 
L 792.744447 288.448056 
L 792.744447 185.031677 
L 793.760347 185.031677 
L 793.760347 441.768779 
L 794.776247 441.768779 
L 794.776247 504.611499 
L 795.792147 504.611499 
L 795.792147 92.97567 
L 796.808047 92.97567 
L 796.808047 133.531125 
L 797.823947 133.531125 
L 797.823947 130.173638 
L 798.839847 130.173638 
L 798.839847 337.807062 
L 799.855747 337.807062 
L 799.855747 560.873581 
L 800.871647 560.873581 
L 800.871647 208.235907 
L 801.887547 208.235907 
L 801.887547 187.991798 
L 802.903447 187.991798 
L 802.903447 93.498751 
L 803.919347 93.498751 
L 803.919347 535.586519 
L 804.935247 535.586519 
L 804.935247 162.616573 
L 805.951147 162.616573 
L 805.951147 390.628518 
L 806.967047 390.628518 
L 806.967047 248.500868 
L 807.982947 248.500868 
L 807.982947 152.348845 
L 808.998847 152.348845 
L 808.998847 448.547606 
L 810.014747 448.547606 
L 810.014747 107.640772 
L 811.030647 107.640772 
L 811.030647 566.287394 
L 812.046547 566.287394 
L 812.046547 543.972742 
L 813.062447 543.972742 
L 813.062447 295.235017 
L 814.078347 295.235017 
L 814.078347 224.770692 
L 815.094247 224.770692 
L 815.094247 117.82027 
L 816.110147 117.82027 
L 816.110147 173.499903 
L 817.126047 173.499903 
L 817.126047 135.022132 
L 818.141947 135.022132 
L 818.141947 336.067557 
L 819.157847 336.067557 
L 819.157847 368.288373 
L 820.173747 368.288373 
L 820.173747 277.026867 
L 821.189647 277.026867 
L 821.189647 225.613131 
L 822.205547 225.613131 
L 822.205547 137.676083 
L 823.221447 137.676083 
L 823.221447 285.991109 
L 824.237347 285.991109 
L 824.237347 139.269115 
L 825.253247 139.269115 
L 825.253247 371.069584 
L 826.269147 371.069584 
L 826.269147 197.058038 
L 827.285047 197.058038 
L 827.285047 89.682469 
L 828.300947 89.682469 
L 828.300947 543.982915 
L 829.316847 543.982915 
L 829.316847 229.208067 
L 830.332747 229.208067 
L 830.332747 129.982976 
L 831.348647 129.982976 
L 831.348647 145.461211 
L 832.364547 145.461211 
L 832.364547 152.962284 
L 833.380447 152.962284 
L 833.380447 432.100079 
L 834.396347 432.100079 
L 834.396347 363.993085 
L 835.412247 363.993085 
L 835.412247 313.13848 
L 836.428147 313.13848 
L 836.428147 104.744383 
L 837.444047 104.744383 
L 837.444047 440.694718 
L 838.459947 440.694718 
L 838.459947 268.180916 
L 839.475847 268.180916 
L 839.475847 199.468658 
L 840.491747 199.468658 
L 840.491747 505.232237 
L 841.507647 505.232237 
L 841.507647 137.649225 
L 842.523547 137.649225 
L 842.523547 291.957267 
L 843.539447 291.957267 
L 843.539447 119.667506 
L 844.555347 119.667506 
L 844.555347 116.307056 
L 845.571247 116.307056 
L 845.571247 107.207907 
L 846.587146 107.207907 
L 846.587146 477.059262 
L 847.603046 477.059262 
L 847.603046 151.169682 
L 848.618946 151.169682 
L 848.618946 164.455292 
L 849.634846 164.455292 
L 849.634846 99.006109 
L 850.650746 99.006109 
L 850.650746 284.931891 
L 851.666646 284.931891 
L 851.666646 378.32123 
L 852.682546 378.32123 
L 852.682546 323.784748 
L 853.698446 323.784748 
L 853.698446 512.048766 
L 854.714346 512.048766 
L 854.714346 83.449049 
L 855.730246 83.449049 
L 855.730246 218.413773 
L 856.746146 218.413773 
L 856.746146 412.998964 
L 857.762046 412.998964 
L 857.762046 112.82504 
L 858.777946 112.82504 
L 858.777946 220.761745 
L 859.793846 220.761745 
L 859.793846 401.2166 
L 860.809746 401.2166 
L 860.809746 117.224202 
L 861.825646 117.224202 
L 861.825646 415.887129 
L 862.841546 415.887129 
L 862.841546 402.537119 
L 863.857446 402.537119 
L 863.857446 564.488872 
L 864.873346 564.488872 
L 864.873346 226.638582 
L 865.889246 226.638582 
L 865.889246 508.379907 
L 866.905146 508.379907 
L 866.905146 541.235961 
L 867.921046 541.235961 
L 867.921046 239.402009 
L 868.936946 239.402009 
L 868.936946 115.971882 
L 869.952846 115.971882 
L 869.952846 552.257921 
L 870.968746 552.257921 
L 870.968746 197.319224 
L 871.984646 197.319224 
L 871.984646 461.698427 
L 873.000546 461.698427 
L 873.000546 132.558906 
L 874.016446 132.558906 
L 874.016446 565.942256 
L 875.032346 565.942256 
L 875.032346 480.908013 
L 876.048246 480.908013 
L 876.048246 98.326126 
L 877.064146 98.326126 
L 877.064146 287.821551 
L 878.080046 287.821551 
L 878.080046 506.802722 
L 879.095946 506.802722 
L 879.095946 548.557913 
L 880.111846 548.557913 
L 880.111846 355.515828 
L 881.127746 355.515828 
L 881.127746 343.840004 
L 882.143646 343.840004 
L 882.143646 291.898682 
L 883.159546 291.898682 
L 883.159546 250.164019 
L 884.175446 250.164019 
L 884.175446 508.547711 
L 885.191346 508.547711 
L 885.191346 410.498396 
L 886.207246 410.498396 
L 886.207246 543.380766 
L 887.223146 543.380766 
L 887.223146 85.416338 
L 888.239046 85.416338 
L 888.239046 375.25628 
L 889.254946 375.25628 
L 889.254946 243.331932 
L 890.270846 243.331932 
L 890.270846 430.544296 
L 891.286746 430.544296 
L 891.286746 505.104147 
L 892.302646 505.104147 
L 892.302646 491.836739 
L 893.318546 491.836739 
L 893.318546 555.75851 
L 894.334446 555.75851 
L 894.334446 223.29275 
L 895.350346 223.29275 
L 895.350346 105.365602 
L 896.366246 105.365602 
L 896.366246 533.871466 
L 897.382146 533.871466 
L 897.382146 490.91146 
L 898.398046 490.91146 
L 898.398046 172.172272 
L 899.413946 172.172272 
L 899.413946 260.685906 
L 900.429846 260.685906 
L 900.429846 100.87254 
L 901.445746 100.87254 
L 901.445746 388.848523 
L 902.461646 388.848523 
L 902.461646 360.088487 
L 903.477546 360.088487 
L 903.477546 427.367 
L 904.493446 427.367 
L 904.493446 172.116094 
L 905.509346 172.116094 
L 905.509346 476.26515 
L 906.525246 476.26515 
L 906.525246 380.55034 
L 907.541146 380.55034 
L 907.541146 240.986653 
L 908.557046 240.986653 
L 908.557046 127.99362 
L 909.572946 127.99362 
L 909.572946 179.12023 
L 910.588846 179.12023 
L 910.588846 530.419805 
L 911.604746 530.419805 
L 911.604746 140.173124 
L 912.620646 140.173124 
L 912.620646 184.56894 
L 913.636546 184.56894 
L 913.636546 315.8853 
L 914.652446 315.8853 
L 914.652446 277.639995 
L 915.668346 277.639995 
L 915.668346 340.088431 
L 916.684246 340.088431 
L 916.684246 554.439436 
L 917.700146 554.439436 
L 917.700146 422.19688 
L 918.716046 422.19688 
L 918.716046 149.152592 
L 919.731946 149.152592 
L 919.731946 267.530292 
L 920.747846 267.530292 
L 920.747846 534.66498 
L 921.763746 534.66498 
L 921.763746 298.927019 
L 922.779646 298.927019 
L 922.779646 293.426892 
L 923.795546 293.426892 
L 923.795546 162.872553 
L 924.811446 162.872553 
L 924.811446 258.415475 
L 925.827346 258.415475 
L 925.827346 480.052001 
L 926.843246 480.052001 
L 926.843246 110.239299 
L 927.859146 110.239299 
L 927.859146 421.856712 
L 928.875046 421.856712 
L 928.875046 215.378165 
L 929.890946 215.378165 
L 929.890946 246.369727 
L 930.906845 246.369727 
L 930.906845 128.858458 
L 931.922745 128.858458 
L 931.922745 198.04504 
L 932.938645 198.04504 
L 932.938645 387.88053 
L 933.954545 387.88053 
L 933.954545 387.88053 
" clip-path="url(#pfd0253c3fa)" style="fill: none; stroke: #1f77b4; stroke-width: 2.3; stroke-linecap: square"/>
   </g>
   <g id="patch_3">
    <path d="M 135 576.72 
L 135 77.76 
" style="fill: none; stroke: #000000; stroke-width: 0.8; stroke-linejoin: miter; stroke-linecap: square"/>
   </g>
   <g id="patch_4">
    <path d="M 972 576.72 
L 972 77.76 
" style="fill: none; stroke: #000000; stroke-width: 0.8; stroke-linejoin: miter; stroke-linecap: square"/>
   </g>
   <g id="patch_5">
    <path d="M 135 576.72 
L 972 576.72 
" style="fill: none; stroke: #000000; stroke-width: 0.8; stroke-linejoin: miter; stroke-linecap: square"/>
   </g>
   <g id="patch_6">
    <path d="M 135 77.76 
L 972 77.76 
" style="fill: none; stroke: #000000; stroke-width: 0.8; stroke-linejoin: miter; stroke-linecap: square"/>
   </g>
   <g id="text_18">
    <!-- $\theta_Y$ Waveforms (Final Cost: -0.8236610529368784) -->
    <g transform="translate(309.241288 67.76) scale(0.23 -0.23)">
     <defs>
      <path id="URWPalladioL-Roma-57" d="M 4698 -64 
C 4723 32 4742 122 4749 154 
C 4768 218 4819 411 4870 584 
L 5850 4032 
C 5888 4147 5952 4205 6093 4218 
L 6298 4237 
L 6298 4416 
L 5626 4416 
C 5562 4416 5562 4416 4954 4416 
L 4954 4237 
L 5210 4218 
C 5434 4199 5504 4167 5510 4063 
C 5510 4044 5510 4025 5504 4005 
L 4659 872 
L 3610 3826 
C 3469 4211 3450 4262 3398 4480 
L 3194 4480 
C 3059 4082 2950 3795 2618 2935 
L 1824 917 
L 1184 3795 
C 1165 3872 1158 3942 1158 4006 
C 1158 4147 1222 4205 1395 4218 
L 1664 4237 
L 1664 4416 
L 858 4416 
C 813 4416 544 4416 51 4416 
L 51 4237 
L 230 4218 
C 416 4199 493 4128 550 3897 
L 1312 597 
C 1395 231 1395 225 1459 -64 
L 1779 -64 
C 1837 141 1888 295 2010 597 
L 3123 3429 
L 3923 1256 
C 4134 687 4154 635 4378 -64 
L 4698 -64 
z
" transform="scale(0.015625)"/>
      <path id="URWPalladioL-Roma-61" d="M 2074 538 
L 2042 -1 
C 2458 -1 2458 -1 2541 -1 
C 2573 -1 2733 -1 3014 -1 
L 3014 192 
L 2765 192 
C 2611 192 2586 244 2586 558 
L 2586 1731 
C 2586 2668 2317 3008 1574 3008 
C 1299 3008 1043 2937 800 2791 
L 461 2585 
L 461 2171 
L 627 2126 
L 710 2323 
C 845 2623 909 2668 1203 2668 
C 1805 2668 2054 2431 2074 1852 
L 1440 1736 
C 570 1577 205 1277 205 722 
C 205 224 506 -64 1011 -64 
C 1126 -64 1235 -45 1280 -13 
L 2074 538 
z
M 2074 806 
C 1888 544 1485 302 1235 302 
C 979 302 755 538 755 812 
C 755 1048 883 1271 1075 1392 
C 1235 1488 1587 1577 2074 1648 
L 2074 806 
z
" transform="scale(0.015625)"/>
      <path id="URWPalladioL-Roma-76" d="M 3450 2752 
L 3450 2932 
C 3066 2932 2950 2932 2848 2932 
C 2746 2932 2630 2932 2246 2932 
L 2246 2752 
L 2509 2752 
C 2611 2752 2662 2694 2662 2591 
C 2662 2489 2618 2317 2541 2124 
L 2272 1445 
C 2195 1259 2118 1080 1875 549 
L 1114 2393 
C 1075 2482 1056 2566 1056 2636 
C 1056 2707 1114 2752 1216 2752 
L 1530 2752 
L 1530 2932 
C 902 2932 902 2932 781 2932 
C 659 2932 352 2932 38 2932 
L 38 2752 
L 256 2752 
C 352 2739 384 2701 454 2541 
L 1555 -32 
L 1875 -32 
C 1914 77 1978 243 1978 256 
C 2048 447 2131 664 2138 664 
L 2893 2324 
C 3034 2625 3123 2739 3251 2752 
L 3450 2752 
z
" transform="scale(0.015625)"/>
      <path id="URWPalladioL-Roma-65" d="M 2797 447 
L 2714 511 
C 2304 269 2157 212 1882 212 
C 1466 212 1120 398 941 711 
C 819 921 774 1101 762 1472 
L 1696 1472 
C 2138 1472 2413 1472 2854 1544 
C 2861 1634 2867 1693 2867 1771 
C 2867 2520 2394 3008 1677 3008 
C 1440 3008 1165 2924 902 2770 
C 378 2469 166 2071 166 1404 
C 166 1000 262 654 435 410 
C 691 71 1120 -128 1600 -128 
C 1837 -128 2074 -77 2336 37 
C 2509 108 2643 191 2669 230 
L 2797 447 
z
M 2298 1690 
C 1965 1690 1811 1690 1581 1690 
C 1286 1690 1120 1690 774 1722 
C 774 2027 800 2169 883 2337 
C 1018 2622 1293 2796 1600 2796 
C 1811 2796 1978 2711 2093 2534 
C 2234 2319 2278 2129 2298 1690 
z
" transform="scale(0.015625)"/>
      <path id="URWPalladioL-Roma-66" d="M 2182 4601 
C 2048 4652 1971 4672 1888 4672 
C 1683 4672 1459 4563 1318 4404 
L 947 3985 
C 762 3775 678 3490 678 3070 
L 678 2803 
L 237 2604 
L 237 2476 
L 678 2476 
L 678 651 
C 678 244 659 199 442 199 
L 147 199 
L 147 0 
C 787 0 787 0 947 0 
C 1107 0 1107 0 1747 0 
L 1747 199 
L 1453 199 
C 1235 199 1216 245 1216 653 
L 1216 2489 
L 2010 2489 
L 2054 2816 
L 1216 2816 
L 1216 3350 
C 1216 4073 1299 4248 1664 4248 
C 1837 4248 1952 4204 2106 4071 
L 2182 4109 
L 2182 4601 
z
" transform="scale(0.015625)"/>
      <path id="URWPalladioL-Roma-6f" d="M 1786 3008 
C 851 3008 205 2347 205 1392 
C 205 487 774 -128 1600 -128 
C 2586 -128 3290 558 3290 1520 
C 3290 2386 2662 3008 1786 3008 
z
M 1670 2796 
C 2259 2796 2694 2155 2694 1283 
C 2694 545 2368 83 1850 83 
C 1222 83 800 699 800 1610 
C 800 2379 1107 2796 1670 2796 
z
" transform="scale(0.015625)"/>
      <path id="URWPalladioL-Roma-72" d="M 147 2565 
L 384 2565 
C 640 2565 666 2520 666 2094 
L 666 643 
C 666 237 646 192 429 192 
L 134 192 
L 134 -7 
C 595 -7 762 -7 922 -7 
C 1050 -7 1050 -7 1837 -7 
L 1837 192 
L 1504 192 
C 1216 192 1203 211 1203 638 
L 1203 1751 
C 1203 2139 1459 2463 1773 2463 
C 1965 2463 2099 2373 2202 2169 
L 2336 2169 
L 2394 2937 
C 2323 2982 2208 3008 2093 3008 
C 1901 3008 1696 2905 1562 2745 
L 1203 2322 
L 1203 2982 
L 1146 3008 
C 819 2873 486 2783 147 2745 
L 147 2565 
z
" transform="scale(0.015625)"/>
      <path id="URWPalladioL-Roma-6d" d="M 115 2565 
L 352 2565 
C 608 2565 634 2520 634 2094 
L 634 643 
C 634 237 614 192 397 192 
L 102 192 
L 102 -7 
C 717 -7 736 -7 915 -7 
C 1094 -7 1261 -7 1677 -7 
L 1677 179 
L 1408 205 
C 1190 205 1171 250 1171 654 
L 1171 2014 
C 1171 2302 1594 2616 1978 2616 
C 2323 2616 2560 2287 2560 1798 
L 2560 643 
C 2560 237 2541 192 2323 192 
L 2029 192 
L 2029 -7 
C 2669 -7 2669 -7 2829 -7 
C 2989 -7 2989 -7 3629 -7 
L 3629 192 
L 3334 192 
C 3117 192 3098 237 3098 643 
L 3098 2011 
C 3098 2300 3520 2616 3904 2616 
C 4250 2616 4486 2291 4486 1806 
L 4486 -7 
C 4877 -7 4883 -7 4992 -7 
C 5075 -7 5075 -7 5562 -7 
L 5562 192 
L 5261 192 
C 5043 192 5024 237 5024 643 
L 5024 1970 
C 5024 2608 4653 3008 4064 3008 
C 3840 3008 3654 2950 3539 2847 
L 3053 2412 
C 2848 2834 2586 3008 2144 3008 
C 1907 3008 1728 2950 1613 2847 
L 1171 2437 
L 1171 2982 
L 1114 3008 
C 787 2873 454 2783 115 2745 
L 115 2565 
z
" transform="scale(0.015625)"/>
      <path id="URWPalladioL-Roma-73" d="M 262 917 
C 262 475 243 282 192 26 
C 525 -83 774 -128 1069 -128 
C 1907 -128 2502 321 2502 949 
C 2502 1148 2445 1295 2323 1424 
C 2157 1584 1946 1661 1382 1770 
C 858 1873 685 2001 685 2296 
C 685 2616 909 2796 1299 2796 
C 1728 2796 2054 2572 2054 2270 
L 2054 2123 
L 2234 2123 
C 2240 2495 2246 2648 2266 2847 
C 1926 2963 1696 3008 1434 3008 
C 691 3008 237 2655 237 2078 
C 237 1770 378 1552 672 1417 
C 845 1340 1184 1238 1619 1141 
C 1907 1077 2029 943 2029 699 
C 2029 353 1709 109 1254 109 
C 787 109 454 333 454 654 
L 454 917 
L 262 917 
z
" transform="scale(0.015625)"/>
      <path id="URWPalladioL-Roma-28" d="M 1926 -1244 
C 1466 -673 1299 -366 1133 212 
C 998 673 934 1161 934 1706 
C 934 2238 998 2693 1120 3110 
C 1286 3642 1459 3944 1926 4489 
L 1805 4656 
C 1139 4059 877 3707 634 3078 
C 467 2648 384 2193 384 1706 
C 384 1020 544 372 851 -205 
C 1075 -635 1280 -885 1805 -1379 
L 1926 -1244 
z
" transform="scale(0.015625)"/>
      <path id="URWPalladioL-Roma-46" d="M 1382 2100 
C 1562 2112 1754 2112 2042 2112 
C 2515 2112 2688 2094 2803 2040 
L 2854 1890 
L 2886 1536 
L 3078 1536 
C 3059 2132 3059 2132 3059 2247 
C 3059 2350 3059 2350 3078 2991 
L 2886 2991 
L 2854 2642 
C 2848 2581 2829 2521 2803 2467 
C 2688 2414 2509 2394 2086 2394 
C 1818 2394 1600 2394 1382 2394 
L 1382 4117 
C 1574 4160 1690 4160 2067 4160 
C 2374 4160 2733 4124 2931 4076 
C 3085 4039 3104 4008 3104 3868 
L 3104 3465 
L 3328 3465 
C 3328 3843 3360 4146 3430 4423 
C 3117 4423 2925 4423 2650 4423 
L 1965 4423 
C 1651 4423 1427 4423 1267 4423 
C 1082 4423 1082 4423 141 4423 
L 141 4224 
L 448 4224 
C 742 4224 774 4172 774 3663 
L 774 766 
C 774 256 742 205 448 205 
L 141 205 
L 141 0 
C 518 0 742 0 1075 0 
C 1408 0 1638 0 2016 0 
L 2016 205 
L 1709 205 
C 1414 205 1382 256 1382 766 
L 1382 2100 
z
" transform="scale(0.015625)"/>
      <path id="URWPalladioL-Roma-69" d="M 1203 2993 
L 1146 3019 
C 819 2884 486 2793 147 2755 
L 147 2576 
L 384 2576 
C 640 2576 666 2531 666 2105 
L 666 651 
C 666 244 646 199 429 199 
L 134 199 
L 134 0 
C 774 0 774 0 934 0 
C 1094 0 1094 0 1734 0 
L 1734 199 
L 1440 199 
C 1222 199 1203 244 1203 651 
L 1203 2993 
z
M 909 4416 
C 717 4416 550 4249 550 4056 
C 550 3870 717 3704 902 3704 
C 1088 3704 1261 3870 1261 4056 
C 1261 4236 1088 4416 909 4416 
z
" transform="scale(0.015625)"/>
      <path id="URWPalladioL-Roma-6e" d="M 2624 -7 
C 3014 -7 3021 -7 3130 -7 
C 3219 -7 3219 -7 3661 -7 
L 3661 179 
L 3398 205 
C 3181 205 3162 244 3162 654 
L 3162 1892 
C 3162 2642 2810 3008 2093 3008 
C 1856 3008 1722 2963 1587 2847 
L 1101 2424 
L 1101 2982 
L 1043 3008 
C 717 2873 384 2783 45 2745 
L 45 2565 
L 282 2565 
C 538 2565 563 2520 563 2094 
L 563 643 
C 563 237 544 192 326 192 
L 38 192 
L 38 -7 
C 474 -7 646 -7 832 -7 
C 1018 -7 1190 -7 1626 -7 
L 1626 192 
L 1338 192 
C 1120 192 1101 237 1101 643 
L 1101 2011 
C 1101 2300 1523 2616 1914 2616 
C 2342 2616 2624 2297 2624 1806 
L 2624 -7 
z
" transform="scale(0.015625)"/>
      <path id="URWPalladioL-Roma-6c" d="M 147 4256 
L 506 4256 
C 621 4256 666 4185 666 3992 
L 666 651 
C 666 244 646 199 429 199 
L 134 199 
L 134 0 
C 774 0 774 0 934 0 
C 1094 0 1094 0 1734 0 
L 1734 199 
L 1440 199 
C 1222 199 1203 244 1203 650 
L 1203 4621 
L 1146 4673 
C 864 4564 653 4512 147 4435 
L 147 4256 
z
" transform="scale(0.015625)"/>
      <path id="URWPalladioL-Roma-43" d="M 4288 539 
L 4230 603 
C 3834 346 3392 218 2906 218 
C 1658 218 826 1051 826 2313 
C 826 3493 1555 4274 2656 4274 
C 3283 4274 3930 4018 3930 3769 
L 3930 3307 
L 4128 3307 
C 4134 3627 4160 3857 4250 4280 
C 3706 4460 3238 4544 2771 4544 
C 2214 4544 1683 4409 1254 4159 
C 525 3730 141 3057 141 2192 
C 141 807 1152 -128 2656 -128 
C 3187 -128 3667 -13 4109 218 
L 4288 539 
z
" transform="scale(0.015625)"/>
      <path id="URWPalladioL-Roma-74" d="M 627 2476 
L 627 619 
C 627 142 838 -64 1331 -64 
C 1478 -64 1632 -32 1670 13 
L 1978 353 
L 1894 463 
C 1734 372 1638 340 1517 340 
C 1267 340 1165 470 1165 788 
L 1165 2489 
L 1984 2489 
L 2042 2816 
L 1165 2816 
L 1165 3056 
C 1165 3321 1184 3547 1235 3951 
L 1158 4021 
C 1005 3925 813 3842 614 3778 
C 634 3585 640 3463 640 3271 
L 640 2822 
L 141 2598 
L 141 2476 
L 627 2476 
z
" transform="scale(0.015625)"/>
      <path id="URWPalladioL-Roma-3a" d="M 787 744 
C 595 744 422 564 422 372 
C 422 179 595 0 781 0 
C 986 0 1165 173 1165 372 
C 1165 564 986 744 787 744 
z
M 787 2944 
C 595 2944 422 2765 422 2572 
C 422 2380 595 2200 781 2200 
C 986 2200 1165 2373 1165 2566 
C 1165 2765 986 2944 787 2944 
z
" transform="scale(0.015625)"/>
      <path id="URWPalladioL-Roma-2d" d="M 1805 1408 
L 1997 1837 
L 1965 1869 
L 282 1869 
L 109 1440 
L 141 1408 
L 1805 1408 
z
" transform="scale(0.015625)"/>
      <path id="URWPalladioL-Roma-2e" d="M 794 744 
C 602 744 429 564 429 372 
C 429 179 602 0 787 0 
C 992 0 1171 173 1171 372 
C 1171 564 992 744 794 744 
z
" transform="scale(0.015625)"/>
      <path id="URWPalladioL-Roma-38" d="M 1075 2211 
C 813 2090 704 2019 563 1884 
C 320 1641 192 1352 192 1019 
C 192 359 723 -128 1446 -128 
C 2278 -128 2970 526 2970 1320 
C 2970 1833 2733 2109 2003 2442 
C 2586 2840 2790 3109 2790 3493 
C 2790 4044 2336 4416 1658 4416 
C 896 4416 339 3929 339 3257 
C 339 2821 512 2577 1075 2211 
z
M 1818 1891 
C 2221 1711 2464 1397 2464 1052 
C 2464 513 2061 90 1542 90 
C 998 90 646 475 646 1071 
C 646 1538 832 1833 1306 2122 
L 1818 1891 
z
M 1427 2712 
C 1024 2910 819 3167 819 3487 
C 819 3910 1126 4198 1581 4198 
C 2048 4198 2355 3891 2355 3422 
C 2355 3058 2195 2808 1779 2538 
L 1427 2712 
z
" transform="scale(0.015625)"/>
      <path id="URWPalladioL-Roma-39" d="M 614 -106 
C 1325 125 1632 272 1978 566 
C 2598 1098 2925 1835 2925 2693 
C 2925 3776 2406 4435 1562 4435 
C 742 4435 128 3795 128 2938 
C 128 2201 608 1664 1274 1664 
C 1491 1664 1741 1734 1856 1830 
L 2304 2202 
C 2253 1125 1555 336 397 54 
L 397 3 
L 614 -106 
z
M 1536 4224 
C 1824 4224 2035 4102 2176 3846 
C 2291 3641 2368 3328 2368 3040 
C 2368 2451 2029 2055 1536 2055 
C 1024 2055 678 2509 678 3174 
C 678 3821 1011 4224 1536 4224 
z
" transform="scale(0.015625)"/>
      <path id="URWPalladioL-Roma-29" d="M 326 -1379 
C 768 -962 954 -750 1152 -436 
C 1542 186 1747 930 1747 1699 
C 1747 2193 1664 2648 1498 3078 
C 1254 3700 992 4053 326 4656 
L 205 4489 
C 672 3937 845 3636 1005 3110 
C 1133 2693 1197 2238 1197 1706 
C 1197 1161 1133 673 998 212 
C 832 -366 666 -673 205 -1244 
L 326 -1379 
z
" transform="scale(0.015625)"/>
     </defs>
     <use xlink:href="#PazoMath-Italic-71" transform="scale(0.996264)"/>
     <use xlink:href="#URWPalladioL-Ital-59" transform="translate(44.911538 -19.070013) scale(0.757155)"/>
     <use xlink:href="#URWPalladioL-Roma-57" transform="translate(123.127855 0) scale(0.996264)"/>
     <use xlink:href="#URWPalladioL-Roma-61" transform="translate(213.589375 0) scale(0.996264)"/>
     <use xlink:href="#URWPalladioL-Roma-76" transform="translate(263.402575 0) scale(0.996264)"/>
     <use xlink:href="#URWPalladioL-Roma-65" transform="translate(319.690489 0) scale(0.996264)"/>
     <use xlink:href="#URWPalladioL-Roma-66" transform="translate(367.410784 0) scale(0.996264)"/>
     <use xlink:href="#URWPalladioL-Roma-6f" transform="translate(400.586014 0) scale(0.996264)"/>
     <use xlink:href="#URWPalladioL-Roma-72" transform="translate(454.981594 0) scale(0.996264)"/>
     <use xlink:href="#URWPalladioL-Roma-6d" transform="translate(494.33349 0) scale(0.996264)"/>
     <use xlink:href="#URWPalladioL-Roma-73" transform="translate(582.303164 0) scale(0.996264)"/>
     <use xlink:href="#URWPalladioL-Roma-28" transform="translate(649.451231 0) scale(0.996264)"/>
     <use xlink:href="#URWPalladioL-Roma-46" transform="translate(682.626461 0) scale(0.996264)"/>
     <use xlink:href="#URWPalladioL-Roma-69" transform="translate(738.018138 0) scale(0.996264)"/>
     <use xlink:href="#URWPalladioL-Roma-6e" transform="translate(767.008499 0) scale(0.996264)"/>
     <use xlink:href="#URWPalladioL-Roma-61" transform="translate(824.99056 0) scale(0.996264)"/>
     <use xlink:href="#URWPalladioL-Roma-6c" transform="translate(874.80376 0) scale(0.996264)"/>
     <use xlink:href="#URWPalladioL-Roma-43" transform="translate(928.700722 0) scale(0.996264)"/>
     <use xlink:href="#URWPalladioL-Roma-6f" transform="translate(999.335515 0) scale(0.996264)"/>
     <use xlink:href="#URWPalladioL-Roma-73" transform="translate(1053.731095 0) scale(0.996264)"/>
     <use xlink:href="#URWPalladioL-Roma-74" transform="translate(1095.972561 0) scale(0.996264)"/>
     <use xlink:href="#URWPalladioL-Roma-3a" transform="translate(1128.449649 0) scale(0.996264)"/>
     <use xlink:href="#URWPalladioL-Roma-2d" transform="translate(1184.240282 0) scale(0.996264)"/>
     <use xlink:href="#URWPalladioL-Roma-30" transform="translate(1217.415512 0) scale(0.996264)"/>
     <use xlink:href="#URWPalladioL-Roma-2e" transform="translate(1267.228712 0) scale(0.996264)"/>
     <use xlink:href="#URWPalladioL-Roma-38" transform="translate(1292.135312 0) scale(0.996264)"/>
     <use xlink:href="#URWPalladioL-Roma-32" transform="translate(1341.948513 0) scale(0.996264)"/>
     <use xlink:href="#URWPalladioL-Roma-33" transform="translate(1391.761713 0) scale(0.996264)"/>
     <use xlink:href="#URWPalladioL-Roma-36" transform="translate(1441.574914 0) scale(0.996264)"/>
     <use xlink:href="#URWPalladioL-Roma-36" transform="translate(1491.388114 0) scale(0.996264)"/>
     <use xlink:href="#URWPalladioL-Roma-31" transform="translate(1541.201315 0) scale(0.996264)"/>
     <use xlink:href="#URWPalladioL-Roma-30" transform="translate(1591.014515 0) scale(0.996264)"/>
     <use xlink:href="#URWPalladioL-Roma-35" transform="translate(1640.827716 0) scale(0.996264)"/>
     <use xlink:href="#URWPalladioL-Roma-32" transform="translate(1690.640916 0) scale(0.996264)"/>
     <use xlink:href="#URWPalladioL-Roma-39" transform="translate(1740.454117 0) scale(0.996264)"/>
     <use xlink:href="#URWPalladioL-Roma-33" transform="translate(1790.267317 0) scale(0.996264)"/>
     <use xlink:href="#URWPalladioL-Roma-36" transform="translate(1840.080518 0) scale(0.996264)"/>
     <use xlink:href="#URWPalladioL-Roma-38" transform="translate(1889.893718 0) scale(0.996264)"/>
     <use xlink:href="#URWPalladioL-Roma-37" transform="translate(1939.706919 0) scale(0.996264)"/>
     <use xlink:href="#URWPalladioL-Roma-38" transform="translate(1989.520119 0) scale(0.996264)"/>
     <use xlink:href="#URWPalladioL-Roma-34" transform="translate(2039.33332 0) scale(0.996264)"/>
     <use xlink:href="#URWPalladioL-Roma-29" transform="translate(2089.14652 0) scale(0.996264)"/>
    </g>
   </g>
  </g>
 </g>
 <defs>
  <clipPath id="pfd0253c3fa">
   <rect x="135" y="77.76" width="837" height="498.96"/>
  </clipPath>
 </defs>
</svg>
