<?xml version="1.0" encoding="utf-8" standalone="no"?>
<!DOCTYPE svg PUBLIC "-//W3C//DTD SVG 1.1//EN"
  "http://www.w3.org/Graphics/SVG/1.1/DTD/svg11.dtd">
<svg xmlns:xlink="http://www.w3.org/1999/xlink" width="1080pt" height="720pt" viewBox="0 0 1080 720" xmlns="http://www.w3.org/2000/svg" version="1.1">
 <metadata>
  <rdf:RDF xmlns:dc="http://purl.org/dc/elements/1.1/" xmlns:cc="http://creativecommons.org/ns#" xmlns:rdf="http://www.w3.org/1999/02/22-rdf-syntax-ns#">
   <cc:Work>
    <dc:type rdf:resource="http://purl.org/dc/dcmitype/StillImage"/>
    <dc:date>2024-10-21T08:29:06.114539</dc:date>
    <dc:format>image/svg+xml</dc:format>
    <dc:creator>
     <cc:Agent>
      <dc:title>Matplotlib v3.9.2, https://matplotlib.org/</dc:title>
     </cc:Agent>
    </dc:creator>
   </cc:Work>
  </rdf:RDF>
 </metadata>
 <defs>
  <style type="text/css">*{stroke-linejoin: round; stroke-linecap: butt}</style>
 </defs>
 <g id="figure_1">
  <g id="patch_1">
   <path d="M 0 720 
L 1080 720 
L 1080 0 
L 0 0 
z
" style="fill: #ffffff; stroke: #ffffff; stroke-width: 2.3; stroke-linejoin: miter"/>
  </g>
  <g id="axes_1">
   <g id="patch_2">
    <path d="M 135 640.8 
L 804.6 640.8 
L 804.6 86.4 
L 135 86.4 
z
" style="fill: #ffffff"/>
   </g>
   <g id="QuadContourSet_1">
    <path clip-path="url(#pdf5cf4da90)" style="fill: #b60000"/>
    <path d="M 804.6 585.845235 
L 804.6 579.2 
L 804.6 575.138229 
L 789.130818 579.2 
z
" clip-path="url(#pdf5cf4da90)" style="fill: #ff3800"/>
    <path d="M 358.2 640.8 
L 432.6 640.8 
L 459.771355 640.8 
L 432.6 593.147354 
L 358.2 634.629668 
L 350.16864 640.8 
z
M 581.4 640.8 
L 655.8 640.8 
L 670.444531 640.8 
L 730.2 591.338127 
L 804.6 622.614974 
L 804.6 585.845235 
L 789.130818 579.2 
L 804.6 575.138229 
L 804.6 552.663437 
L 730.2 568.555699 
L 655.8 550.934756 
L 621.060846 579.2 
L 581.4 636.409072 
L 577.516369 640.8 
z
" clip-path="url(#pdf5cf4da90)" style="fill: #ff9800"/>
    <path d="M 358.2 634.629668 
L 432.6 593.147354 
L 459.771355 640.8 
L 499.362296 640.8 
L 470.998913 579.2 
L 432.6 554.776662 
L 394.868261 579.2 
L 358.2 603.42988 
L 309.558713 640.8 
L 350.16864 640.8 
z
M 581.4 636.409072 
L 621.060846 579.2 
L 655.8 550.934756 
L 730.2 568.555699 
L 804.6 552.663437 
L 804.6 530.188646 
L 730.2 534.386154 
L 669.988651 517.6 
L 655.8 515.492645 
L 638.990726 517.6 
L 581.4 562.791034 
L 569.404684 579.2 
L 518.403739 640.8 
L 577.516369 640.8 
z
M 730.2 630.303037 
L 756.067611 640.8 
L 804.6 640.8 
L 804.6 622.614974 
L 730.2 591.338127 
L 670.444531 640.8 
L 717.518496 640.8 
z
" clip-path="url(#pdf5cf4da90)" style="fill: #f8f500"/>
    <path d="M 209.4 640.8 
L 283.8 640.8 
L 309.558713 640.8 
L 358.2 603.42988 
L 394.868261 579.2 
L 432.6 554.776662 
L 470.998913 579.2 
L 499.362296 640.8 
L 507 640.8 
L 518.403739 640.8 
L 569.404684 579.2 
L 581.4 562.791034 
L 638.990726 517.6 
L 655.8 515.492645 
L 669.988651 517.6 
L 730.2 534.386154 
L 804.6 530.188646 
L 804.6 517.6 
L 804.6 468.892358 
L 730.2 466.981582 
L 655.8 497.288805 
L 581.4 505.088648 
L 550.544224 517.6 
L 507 565.185573 
L 432.6 524.21416 
L 358.2 572.144505 
L 328.707542 579.2 
L 283.8 608.885415 
L 209.4 614.564337 
L 135 637.225773 
L 135 640.8 
z
M 730.2 640.8 
L 756.067611 640.8 
L 730.2 630.303037 
L 717.518496 640.8 
z
" clip-path="url(#pdf5cf4da90)" style="fill: #a4ff53"/>
    <path d="M 209.4 614.564337 
L 283.8 608.885415 
L 328.707542 579.2 
L 358.2 572.144505 
L 432.6 524.21416 
L 507 565.185573 
L 550.544224 517.6 
L 581.4 505.088648 
L 655.8 497.288805 
L 730.2 466.981582 
L 804.6 468.892358 
L 804.6 456 
L 804.6 428.392346 
L 730.2 438.783145 
L 699.525482 456 
L 655.8 479.084965 
L 581.4 484.353086 
L 507 513.693643 
L 432.6 502.191655 
L 394.007172 517.6 
L 358.2 540.561596 
L 283.8 565.681863 
L 230.006216 579.2 
L 209.4 586.335147 
L 174.820326 579.2 
L 135 550.534226 
L 135 579.2 
L 135 637.225773 
z
" clip-path="url(#pdf5cf4da90)" style="fill: #53ffa4"/>
    <path d="M 209.4 586.335147 
L 230.006216 579.2 
L 283.8 565.681863 
L 358.2 540.561596 
L 394.007172 517.6 
L 432.6 502.191655 
L 507 513.693643 
L 581.4 484.353086 
L 655.8 479.084965 
L 699.525482 456 
L 730.2 438.783145 
L 804.6 428.392346 
L 804.6 397.146754 
L 730.2 419.430314 
L 665.045391 456 
L 655.8 460.881125 
L 581.4 463.617524 
L 507 487.388953 
L 432.6 482.527764 
L 358.2 503.951382 
L 345.662787 517.6 
L 283.8 545.194859 
L 209.4 529.185285 
L 194.045187 517.6 
L 171.845988 456 
L 163.482465 394.4 
L 149.349161 332.8 
L 146.86961 271.2 
L 142.46265 209.6 
L 139.61225 148 
L 140.71173 86.4 
L 135 86.4 
L 135 148 
L 135 209.6 
L 135 271.2 
L 135 332.8 
L 135 394.4 
L 135 456 
L 135 517.6 
L 135 550.534226 
L 174.820326 579.2 
z
" clip-path="url(#pdf5cf4da90)" style="fill: #00e4f8"/>
    <path d="M 209.4 529.185285 
L 283.8 545.194859 
L 345.662787 517.6 
L 358.2 503.951382 
L 432.6 482.527764 
L 507 487.388953 
L 581.4 463.617524 
L 655.8 460.881125 
L 665.045391 456 
L 730.2 419.430314 
L 804.6 397.146754 
L 804.6 394.4 
L 804.6 366.642751 
L 748.306398 394.4 
L 730.2 400.077484 
L 655.8 404.803728 
L 581.4 422.29697 
L 524.411275 456 
L 507 461.084262 
L 432.6 462.863874 
L 366.014656 456 
L 358.2 453.987662 
L 351.926695 456 
L 299.734552 517.6 
L 283.8 524.707855 
L 261.810341 517.6 
L 241.194161 456 
L 225.716116 394.4 
L 209.4 357.68962 
L 202.909054 332.8 
L 209.4 277.581553 
L 210.181045 271.2 
L 209.4 268.78452 
L 192.297831 209.6 
L 199.232512 148 
L 184.905727 86.4 
L 140.71173 86.4 
L 139.61225 148 
L 142.46265 209.6 
L 146.86961 271.2 
L 149.349161 332.8 
L 163.482465 394.4 
L 171.845988 456 
L 194.045187 517.6 
z
" clip-path="url(#pdf5cf4da90)" style="fill: #007dff"/>
    <path d="M 283.8 524.707855 
L 299.734552 517.6 
L 351.926695 456 
L 358.2 453.987662 
L 366.014656 456 
L 432.6 462.863874 
L 507 461.084262 
L 524.411275 456 
L 581.4 422.29697 
L 655.8 404.803728 
L 730.2 400.077484 
L 748.306398 394.4 
L 804.6 366.642751 
L 804.6 336.210223 
L 730.2 333.64017 
L 728.606944 332.8 
L 655.8 305.060391 
L 614.68051 332.8 
L 581.4 359.375251 
L 507 338.827457 
L 432.6 367.274491 
L 391.285596 394.4 
L 358.2 404.866347 
L 330.713983 394.4 
L 320.208002 332.8 
L 283.8 312.733579 
L 265.946573 271.2 
L 261.675838 209.6 
L 264.619404 148 
L 245.51248 86.4 
L 209.4 86.4 
L 184.905727 86.4 
L 199.232512 148 
L 192.297831 209.6 
L 209.4 268.78452 
L 210.181045 271.2 
L 209.4 277.581553 
L 202.909054 332.8 
L 209.4 357.68962 
L 225.716116 394.4 
L 241.194161 456 
L 261.810341 517.6 
z
" clip-path="url(#pdf5cf4da90)" style="fill: #0018ff"/>
    <path d="M 358.2 404.866347 
L 391.285596 394.4 
L 432.6 367.274491 
L 507 338.827457 
L 581.4 359.375251 
L 614.68051 332.8 
L 655.8 305.060391 
L 728.606944 332.8 
L 730.2 333.64017 
L 804.6 336.210223 
L 804.6 332.8 
L 804.6 271.2 
L 804.6 209.6 
L 804.6 148 
L 804.6 86.4 
L 730.2 86.4 
L 655.8 86.4 
L 581.4 86.4 
L 507 86.4 
L 432.6 86.4 
L 358.2 86.4 
L 283.8 86.4 
L 245.51248 86.4 
L 264.619404 148 
L 261.675838 209.6 
L 265.946573 271.2 
L 283.8 312.733579 
L 320.208002 332.8 
L 330.713983 394.4 
z
" clip-path="url(#pdf5cf4da90)" style="fill: #0000b6"/>
   </g>
   <g id="matplotlib.axis_1">
    <g id="xtick_1">
     <g id="line2d_1">
      <defs>
       <path id="ma098a7d992" d="M 0 0 
L 0 3.5 
" style="stroke: #000000; stroke-width: 0.8"/>
      </defs>
      <g>
       <use xlink:href="#ma098a7d992" x="135" y="640.8" style="stroke: #000000; stroke-width: 0.8"/>
      </g>
     </g>
     <g id="text_1">
      <!-- $\mathdefault{1}$ -->
      <g transform="translate(130.703611 660.096205) scale(0.1725 -0.1725)">
       <defs>
        <path id="URWPalladioL-Roma-31" d="M 429 3584 
L 493 3584 
L 1318 3956 
C 1325 3962 1331 3962 1338 3962 
C 1376 3962 1389 3905 1389 3751 
L 1389 613 
C 1389 276 1318 205 973 205 
L 614 205 
L 614 0 
C 1600 0 1600 0 1670 0 
C 1754 0 1894 0 2112 0 
C 2189 0 2413 0 2675 0 
L 2675 205 
L 2342 205 
C 1990 205 1926 276 1926 612 
L 1926 4443 
L 1837 4475 
C 1421 4257 966 4065 384 3860 
L 429 3584 
z
" transform="scale(0.015625)"/>
       </defs>
       <use xlink:href="#URWPalladioL-Roma-31" transform="scale(0.996264)"/>
      </g>
     </g>
    </g>
    <g id="xtick_2">
     <g id="line2d_2">
      <g>
       <use xlink:href="#ma098a7d992" x="209.4" y="640.8" style="stroke: #000000; stroke-width: 0.8"/>
      </g>
     </g>
     <g id="text_2">
      <!-- $\mathdefault{2}$ -->
      <g transform="translate(205.103611 660.096205) scale(0.1725 -0.1725)">
       <defs>
        <path id="URWPalladioL-Roma-32" d="M 102 160 
L 102 0 
C 1299 0 1299 0 1530 0 
C 1760 0 1760 0 2995 0 
C 2982 125 2982 186 2982 269 
C 2982 348 2982 407 2995 539 
C 2259 539 1965 539 781 539 
L 1946 1761 
C 2566 2414 2758 2763 2758 3238 
C 2758 3966 2259 4416 1446 4416 
C 986 4416 672 4288 358 3969 
L 250 3099 
L 435 3099 
L 518 3393 
C 621 3763 851 3923 1280 3923 
C 1830 3923 2182 3577 2182 3035 
C 2182 2555 1914 2083 1190 1316 
L 102 160 
z
" transform="scale(0.015625)"/>
       </defs>
       <use xlink:href="#URWPalladioL-Roma-32" transform="scale(0.996264)"/>
      </g>
     </g>
    </g>
    <g id="xtick_3">
     <g id="line2d_3">
      <g>
       <use xlink:href="#ma098a7d992" x="283.8" y="640.8" style="stroke: #000000; stroke-width: 0.8"/>
      </g>
     </g>
     <g id="text_3">
      <!-- $\mathdefault{3}$ -->
      <g transform="translate(279.503611 660.096205) scale(0.1725 -0.1725)">
       <defs>
        <path id="URWPalladioL-Roma-33" d="M 275 3197 
L 474 3197 
L 589 3554 
C 659 3770 1062 3987 1395 3987 
C 1811 3987 2150 3649 2150 3248 
C 2150 2770 1773 2368 1318 2368 
C 1267 2368 1197 2368 1114 2381 
L 1018 2381 
L 941 2047 
L 986 2008 
C 1229 2118 1350 2150 1523 2150 
C 2054 2150 2362 1809 2362 1222 
C 2362 566 1971 135 1376 135 
C 1082 135 819 231 627 411 
C 474 553 390 701 269 1049 
L 96 985 
C 230 593 282 361 320 39 
C 659 -77 941 -128 1178 -128 
C 1690 -128 2278 161 2630 593 
C 2848 857 2957 1140 2957 1442 
C 2957 1751 2829 2022 2598 2182 
C 2438 2298 2291 2350 1971 2407 
C 2483 2803 2675 3096 2675 3472 
C 2675 4040 2202 4416 1491 4416 
C 1056 4416 768 4295 461 3989 
L 275 3197 
z
" transform="scale(0.015625)"/>
       </defs>
       <use xlink:href="#URWPalladioL-Roma-33" transform="scale(0.996264)"/>
      </g>
     </g>
    </g>
    <g id="xtick_4">
     <g id="line2d_4">
      <g>
       <use xlink:href="#ma098a7d992" x="358.2" y="640.8" style="stroke: #000000; stroke-width: 0.8"/>
      </g>
     </g>
     <g id="text_4">
      <!-- $\mathdefault{4}$ -->
      <g transform="translate(353.903611 660.096205) scale(0.1725 -0.1725)">
       <defs>
        <path id="URWPalladioL-Roma-34" d="M 1792 1152 
L 1792 673 
C 1792 289 1722 199 1408 199 
L 1011 199 
L 1011 0 
C 1862 0 1862 0 2016 0 
C 2170 0 2170 0 3021 0 
L 3021 199 
L 2714 199 
C 2400 199 2330 282 2330 669 
L 2330 1152 
C 2707 1152 2842 1152 3021 1133 
L 3021 1588 
C 2720 1563 2598 1563 2502 1563 
L 2483 1563 
L 2330 1563 
L 2330 2457 
C 2330 3600 2342 4152 2374 4416 
L 2298 4448 
L 1824 4275 
L 13 1299 
L 83 1152 
L 1792 1152 
z
M 1792 1563 
L 416 1563 
L 1792 3826 
L 1792 1563 
z
" transform="scale(0.015625)"/>
       </defs>
       <use xlink:href="#URWPalladioL-Roma-34" transform="scale(0.996264)"/>
      </g>
     </g>
    </g>
    <g id="xtick_5">
     <g id="line2d_5">
      <g>
       <use xlink:href="#ma098a7d992" x="432.6" y="640.8" style="stroke: #000000; stroke-width: 0.8"/>
      </g>
     </g>
     <g id="text_5">
      <!-- $\mathdefault{5}$ -->
      <g transform="translate(428.303611 660.096205) scale(0.1725 -0.1725)">
       <defs>
        <path id="URWPalladioL-Roma-35" d="M 813 3877 
C 1638 3877 1997 3877 2765 3877 
L 2797 3907 
C 2784 4016 2784 4064 2784 4144 
C 2784 4229 2784 4277 2797 4386 
L 2765 4416 
C 2285 4416 1997 4416 1651 4416 
C 1299 4416 1018 4416 538 4416 
L 506 4403 
C 512 4011 518 3729 518 3523 
C 518 2977 499 2360 480 2077 
L 608 2038 
C 909 2341 1082 2432 1395 2432 
C 2010 2432 2394 1993 2394 1296 
C 2394 580 1984 160 1286 160 
C 941 160 621 277 531 444 
L 237 973 
L 83 883 
C 230 516 307 310 397 27 
C 576 -71 832 -128 1107 -128 
C 1536 -128 1990 59 2342 368 
C 2733 716 2938 1154 2938 1630 
C 2938 2359 2419 2874 1690 2874 
C 1382 2874 1152 2791 755 2554 
L 813 3877 
z
" transform="scale(0.015625)"/>
       </defs>
       <use xlink:href="#URWPalladioL-Roma-35" transform="scale(0.996264)"/>
      </g>
     </g>
    </g>
    <g id="xtick_6">
     <g id="line2d_6">
      <g>
       <use xlink:href="#ma098a7d992" x="507" y="640.8" style="stroke: #000000; stroke-width: 0.8"/>
      </g>
     </g>
     <g id="text_6">
      <!-- $\mathdefault{6}$ -->
      <g transform="translate(502.703611 660.096205) scale(0.1725 -0.1725)">
       <defs>
        <path id="URWPalladioL-Roma-36" d="M 2662 4310 
L 2426 4419 
C 1811 4214 1549 4086 1222 3804 
C 563 3246 205 2464 205 1585 
C 205 526 717 -128 1542 -128 
C 2374 -128 2995 532 2995 1405 
C 2995 2143 2554 2624 1875 2624 
C 1555 2624 1363 2540 986 2239 
C 915 2181 909 2175 838 2124 
C 973 3284 1510 3913 2662 4259 
L 2662 4310 
z
M 1632 2239 
C 2118 2239 2445 1816 2445 1181 
C 2445 513 2118 83 1626 83 
C 1082 83 787 551 787 1412 
C 787 1636 813 1758 883 1867 
C 1024 2085 1325 2239 1632 2239 
z
" transform="scale(0.015625)"/>
       </defs>
       <use xlink:href="#URWPalladioL-Roma-36" transform="scale(0.996264)"/>
      </g>
     </g>
    </g>
    <g id="xtick_7">
     <g id="line2d_7">
      <g>
       <use xlink:href="#ma098a7d992" x="581.4" y="640.8" style="stroke: #000000; stroke-width: 0.8"/>
      </g>
     </g>
     <g id="text_7">
      <!-- $\mathdefault{7}$ -->
      <g transform="translate(577.103611 660.096205) scale(0.1725 -0.1725)">
       <defs>
        <path id="URWPalladioL-Roma-37" d="M 358 32 
L 416 -51 
C 666 -32 666 -32 710 -32 
C 755 -32 755 -32 1005 -51 
C 1274 649 1587 1317 2010 2087 
L 3181 4199 
L 3181 4372 
C 2490 4372 2266 4372 1747 4372 
C 1280 4372 966 4372 346 4372 
L 282 4359 
C 301 3750 301 3750 301 3685 
C 301 3614 301 3614 282 3031 
L 474 3031 
L 518 3390 
C 570 3789 614 3840 909 3840 
L 2618 3840 
C 2362 3313 2163 2941 1920 2549 
L 358 32 
z
" transform="scale(0.015625)"/>
       </defs>
       <use xlink:href="#URWPalladioL-Roma-37" transform="scale(0.996264)"/>
      </g>
     </g>
    </g>
    <g id="xtick_8">
     <g id="line2d_8">
      <g>
       <use xlink:href="#ma098a7d992" x="655.8" y="640.8" style="stroke: #000000; stroke-width: 0.8"/>
      </g>
     </g>
     <g id="text_8">
      <!-- $\mathdefault{8}$ -->
      <g transform="translate(651.503611 660.096205) scale(0.1725 -0.1725)">
       <defs>
        <path id="URWPalladioL-Roma-38" d="M 1075 2211 
C 813 2090 704 2019 563 1884 
C 320 1641 192 1352 192 1019 
C 192 359 723 -128 1446 -128 
C 2278 -128 2970 526 2970 1320 
C 2970 1833 2733 2109 2003 2442 
C 2586 2840 2790 3109 2790 3493 
C 2790 4044 2336 4416 1658 4416 
C 896 4416 339 3929 339 3257 
C 339 2821 512 2577 1075 2211 
z
M 1818 1891 
C 2221 1711 2464 1397 2464 1052 
C 2464 513 2061 90 1542 90 
C 998 90 646 475 646 1071 
C 646 1538 832 1833 1306 2122 
L 1818 1891 
z
M 1427 2712 
C 1024 2910 819 3167 819 3487 
C 819 3910 1126 4198 1581 4198 
C 2048 4198 2355 3891 2355 3422 
C 2355 3058 2195 2808 1779 2538 
L 1427 2712 
z
" transform="scale(0.015625)"/>
       </defs>
       <use xlink:href="#URWPalladioL-Roma-38" transform="scale(0.996264)"/>
      </g>
     </g>
    </g>
    <g id="xtick_9">
     <g id="line2d_9">
      <g>
       <use xlink:href="#ma098a7d992" x="730.2" y="640.8" style="stroke: #000000; stroke-width: 0.8"/>
      </g>
     </g>
     <g id="text_9">
      <!-- $\mathdefault{9}$ -->
      <g transform="translate(725.903611 660.096205) scale(0.1725 -0.1725)">
       <defs>
        <path id="URWPalladioL-Roma-39" d="M 614 -106 
C 1325 125 1632 272 1978 566 
C 2598 1098 2925 1835 2925 2693 
C 2925 3776 2406 4435 1562 4435 
C 742 4435 128 3795 128 2938 
C 128 2201 608 1664 1274 1664 
C 1491 1664 1741 1734 1856 1830 
L 2304 2202 
C 2253 1125 1555 336 397 54 
L 397 3 
L 614 -106 
z
M 1536 4224 
C 1824 4224 2035 4102 2176 3846 
C 2291 3641 2368 3328 2368 3040 
C 2368 2451 2029 2055 1536 2055 
C 1024 2055 678 2509 678 3174 
C 678 3821 1011 4224 1536 4224 
z
" transform="scale(0.015625)"/>
       </defs>
       <use xlink:href="#URWPalladioL-Roma-39" transform="scale(0.996264)"/>
      </g>
     </g>
    </g>
    <g id="xtick_10">
     <g id="line2d_10">
      <g>
       <use xlink:href="#ma098a7d992" x="804.6" y="640.8" style="stroke: #000000; stroke-width: 0.8"/>
      </g>
     </g>
     <g id="text_10">
      <!-- $\mathdefault{10}$ -->
      <g transform="translate(796.007223 660.096205) scale(0.1725 -0.1725)">
       <defs>
        <path id="URWPalladioL-Roma-30" d="M 1683 4416 
C 691 4416 186 3628 186 2077 
C 186 1326 320 680 544 366 
C 768 51 1126 -128 1523 -128 
C 2490 -128 2976 705 2976 2346 
C 2976 3749 2560 4416 1683 4416 
z
M 1568 4192 
C 2189 4192 2438 3564 2438 2025 
C 2438 661 2195 96 1606 96 
C 986 96 723 744 723 2308 
C 723 3660 960 4192 1568 4192 
z
" transform="scale(0.015625)"/>
       </defs>
       <use xlink:href="#URWPalladioL-Roma-31" transform="scale(0.996264)"/>
       <use xlink:href="#URWPalladioL-Roma-30" transform="translate(49.8132 0) scale(0.996264)"/>
      </g>
     </g>
    </g>
    <g id="text_11">
     <!-- Total Time -->
     <g transform="translate(416.582718 685.337382) scale(0.23 -0.23)">
      <defs>
       <path id="URWPalladioL-Roma-54" d="M 1632 4114 
C 1651 3896 1658 3749 1658 3473 
L 1658 763 
C 1658 256 1626 205 1331 205 
L 1024 205 
L 1024 0 
C 1402 0 1626 0 1958 0 
C 2291 0 2522 0 2899 0 
L 2899 205 
L 2592 205 
C 2298 205 2266 256 2266 763 
L 2266 3473 
C 2266 3762 2272 3903 2291 4114 
L 3283 4114 
C 3462 4114 3533 4057 3539 3904 
L 3565 3400 
L 3763 3400 
C 3763 3810 3776 4056 3808 4416 
C 3347 4416 3136 4416 2957 4416 
C 2707 4416 2522 4416 2426 4416 
L 1414 4416 
C 1350 4416 1005 4416 550 4416 
L 115 4416 
C 147 4056 160 3810 160 3400 
L 358 3400 
L 384 3904 
C 390 4057 461 4114 640 4114 
L 1632 4114 
z
" transform="scale(0.015625)"/>
       <path id="URWPalladioL-Roma-6f" d="M 1786 3008 
C 851 3008 205 2347 205 1392 
C 205 487 774 -128 1600 -128 
C 2586 -128 3290 558 3290 1520 
C 3290 2386 2662 3008 1786 3008 
z
M 1670 2796 
C 2259 2796 2694 2155 2694 1283 
C 2694 545 2368 83 1850 83 
C 1222 83 800 699 800 1610 
C 800 2379 1107 2796 1670 2796 
z
" transform="scale(0.015625)"/>
       <path id="URWPalladioL-Roma-74" d="M 627 2476 
L 627 619 
C 627 142 838 -64 1331 -64 
C 1478 -64 1632 -32 1670 13 
L 1978 353 
L 1894 463 
C 1734 372 1638 340 1517 340 
C 1267 340 1165 470 1165 788 
L 1165 2489 
L 1984 2489 
L 2042 2816 
L 1165 2816 
L 1165 3056 
C 1165 3321 1184 3547 1235 3951 
L 1158 4021 
C 1005 3925 813 3842 614 3778 
C 634 3585 640 3463 640 3271 
L 640 2822 
L 141 2598 
L 141 2476 
L 627 2476 
z
" transform="scale(0.015625)"/>
       <path id="URWPalladioL-Roma-61" d="M 2074 538 
L 2042 -1 
C 2458 -1 2458 -1 2541 -1 
C 2573 -1 2733 -1 3014 -1 
L 3014 192 
L 2765 192 
C 2611 192 2586 244 2586 558 
L 2586 1731 
C 2586 2668 2317 3008 1574 3008 
C 1299 3008 1043 2937 800 2791 
L 461 2585 
L 461 2171 
L 627 2126 
L 710 2323 
C 845 2623 909 2668 1203 2668 
C 1805 2668 2054 2431 2074 1852 
L 1440 1736 
C 570 1577 205 1277 205 722 
C 205 224 506 -64 1011 -64 
C 1126 -64 1235 -45 1280 -13 
L 2074 538 
z
M 2074 806 
C 1888 544 1485 302 1235 302 
C 979 302 755 538 755 812 
C 755 1048 883 1271 1075 1392 
C 1235 1488 1587 1577 2074 1648 
L 2074 806 
z
" transform="scale(0.015625)"/>
       <path id="URWPalladioL-Roma-6c" d="M 147 4256 
L 506 4256 
C 621 4256 666 4185 666 3992 
L 666 651 
C 666 244 646 199 429 199 
L 134 199 
L 134 0 
C 774 0 774 0 934 0 
C 1094 0 1094 0 1734 0 
L 1734 199 
L 1440 199 
C 1222 199 1203 244 1203 650 
L 1203 4621 
L 1146 4673 
C 864 4564 653 4512 147 4435 
L 147 4256 
z
" transform="scale(0.015625)"/>
       <path id="URWPalladioL-Roma-69" d="M 1203 2993 
L 1146 3019 
C 819 2884 486 2793 147 2755 
L 147 2576 
L 384 2576 
C 640 2576 666 2531 666 2105 
L 666 651 
C 666 244 646 199 429 199 
L 134 199 
L 134 0 
C 774 0 774 0 934 0 
C 1094 0 1094 0 1734 0 
L 1734 199 
L 1440 199 
C 1222 199 1203 244 1203 651 
L 1203 2993 
z
M 909 4416 
C 717 4416 550 4249 550 4056 
C 550 3870 717 3704 902 3704 
C 1088 3704 1261 3870 1261 4056 
C 1261 4236 1088 4416 909 4416 
z
" transform="scale(0.015625)"/>
       <path id="URWPalladioL-Roma-6d" d="M 115 2565 
L 352 2565 
C 608 2565 634 2520 634 2094 
L 634 643 
C 634 237 614 192 397 192 
L 102 192 
L 102 -7 
C 717 -7 736 -7 915 -7 
C 1094 -7 1261 -7 1677 -7 
L 1677 179 
L 1408 205 
C 1190 205 1171 250 1171 654 
L 1171 2014 
C 1171 2302 1594 2616 1978 2616 
C 2323 2616 2560 2287 2560 1798 
L 2560 643 
C 2560 237 2541 192 2323 192 
L 2029 192 
L 2029 -7 
C 2669 -7 2669 -7 2829 -7 
C 2989 -7 2989 -7 3629 -7 
L 3629 192 
L 3334 192 
C 3117 192 3098 237 3098 643 
L 3098 2011 
C 3098 2300 3520 2616 3904 2616 
C 4250 2616 4486 2291 4486 1806 
L 4486 -7 
C 4877 -7 4883 -7 4992 -7 
C 5075 -7 5075 -7 5562 -7 
L 5562 192 
L 5261 192 
C 5043 192 5024 237 5024 643 
L 5024 1970 
C 5024 2608 4653 3008 4064 3008 
C 3840 3008 3654 2950 3539 2847 
L 3053 2412 
C 2848 2834 2586 3008 2144 3008 
C 1907 3008 1728 2950 1613 2847 
L 1171 2437 
L 1171 2982 
L 1114 3008 
C 787 2873 454 2783 115 2745 
L 115 2565 
z
" transform="scale(0.015625)"/>
       <path id="URWPalladioL-Roma-65" d="M 2797 447 
L 2714 511 
C 2304 269 2157 212 1882 212 
C 1466 212 1120 398 941 711 
C 819 921 774 1101 762 1472 
L 1696 1472 
C 2138 1472 2413 1472 2854 1544 
C 2861 1634 2867 1693 2867 1771 
C 2867 2520 2394 3008 1677 3008 
C 1440 3008 1165 2924 902 2770 
C 378 2469 166 2071 166 1404 
C 166 1000 262 654 435 410 
C 691 71 1120 -128 1600 -128 
C 1837 -128 2074 -77 2336 37 
C 2509 108 2643 191 2669 230 
L 2797 447 
z
M 2298 1690 
C 1965 1690 1811 1690 1581 1690 
C 1286 1690 1120 1690 774 1722 
C 774 2027 800 2169 883 2337 
C 1018 2622 1293 2796 1600 2796 
C 1811 2796 1978 2711 2093 2534 
C 2234 2319 2278 2129 2298 1690 
z
" transform="scale(0.015625)"/>
      </defs>
      <use xlink:href="#URWPalladioL-Roma-54" transform="scale(0.996264)"/>
      <use xlink:href="#URWPalladioL-Roma-6f" transform="translate(51.904951 0) scale(0.996264)"/>
      <use xlink:href="#URWPalladioL-Roma-74" transform="translate(106.300531 0) scale(0.996264)"/>
      <use xlink:href="#URWPalladioL-Roma-61" transform="translate(138.777619 0) scale(0.996264)"/>
      <use xlink:href="#URWPalladioL-Roma-6c" transform="translate(188.590819 0) scale(0.996264)"/>
      <use xlink:href="#URWPalladioL-Roma-54" transform="translate(242.487781 0) scale(0.996264)"/>
      <use xlink:href="#URWPalladioL-Roma-69" transform="translate(298.07889 0) scale(0.996264)"/>
      <use xlink:href="#URWPalladioL-Roma-6d" transform="translate(327.069251 0) scale(0.996264)"/>
      <use xlink:href="#URWPalladioL-Roma-65" transform="translate(415.038926 0) scale(0.996264)"/>
     </g>
    </g>
   </g>
   <g id="matplotlib.axis_2">
    <g id="ytick_1">
     <g id="line2d_11">
      <defs>
       <path id="m2a5034be95" d="M 0 0 
L -3.5 0 
" style="stroke: #000000; stroke-width: 0.8"/>
      </defs>
      <g>
       <use xlink:href="#m2a5034be95" x="135" y="640.8" style="stroke: #000000; stroke-width: 0.8"/>
      </g>
     </g>
     <g id="text_12">
      <!-- $\mathdefault{1}$ -->
      <g transform="translate(119.407223 646.948102) scale(0.1725 -0.1725)">
       <use xlink:href="#URWPalladioL-Roma-31" transform="scale(0.996264)"/>
      </g>
     </g>
    </g>
    <g id="ytick_2">
     <g id="line2d_12">
      <g>
       <use xlink:href="#m2a5034be95" x="135" y="579.2" style="stroke: #000000; stroke-width: 0.8"/>
      </g>
     </g>
     <g id="text_13">
      <!-- $\mathdefault{2}$ -->
      <g transform="translate(119.407223 585.348102) scale(0.1725 -0.1725)">
       <use xlink:href="#URWPalladioL-Roma-32" transform="scale(0.996264)"/>
      </g>
     </g>
    </g>
    <g id="ytick_3">
     <g id="line2d_13">
      <g>
       <use xlink:href="#m2a5034be95" x="135" y="517.6" style="stroke: #000000; stroke-width: 0.8"/>
      </g>
     </g>
     <g id="text_14">
      <!-- $\mathdefault{3}$ -->
      <g transform="translate(119.407223 523.748102) scale(0.1725 -0.1725)">
       <use xlink:href="#URWPalladioL-Roma-33" transform="scale(0.996264)"/>
      </g>
     </g>
    </g>
    <g id="ytick_4">
     <g id="line2d_14">
      <g>
       <use xlink:href="#m2a5034be95" x="135" y="456" style="stroke: #000000; stroke-width: 0.8"/>
      </g>
     </g>
     <g id="text_15">
      <!-- $\mathdefault{4}$ -->
      <g transform="translate(119.407223 462.148102) scale(0.1725 -0.1725)">
       <use xlink:href="#URWPalladioL-Roma-34" transform="scale(0.996264)"/>
      </g>
     </g>
    </g>
    <g id="ytick_5">
     <g id="line2d_15">
      <g>
       <use xlink:href="#m2a5034be95" x="135" y="394.4" style="stroke: #000000; stroke-width: 0.8"/>
      </g>
     </g>
     <g id="text_16">
      <!-- $\mathdefault{5}$ -->
      <g transform="translate(119.407223 400.548102) scale(0.1725 -0.1725)">
       <use xlink:href="#URWPalladioL-Roma-35" transform="scale(0.996264)"/>
      </g>
     </g>
    </g>
    <g id="ytick_6">
     <g id="line2d_16">
      <g>
       <use xlink:href="#m2a5034be95" x="135" y="332.8" style="stroke: #000000; stroke-width: 0.8"/>
      </g>
     </g>
     <g id="text_17">
      <!-- $\mathdefault{6}$ -->
      <g transform="translate(119.407223 338.948102) scale(0.1725 -0.1725)">
       <use xlink:href="#URWPalladioL-Roma-36" transform="scale(0.996264)"/>
      </g>
     </g>
    </g>
    <g id="ytick_7">
     <g id="line2d_17">
      <g>
       <use xlink:href="#m2a5034be95" x="135" y="271.2" style="stroke: #000000; stroke-width: 0.8"/>
      </g>
     </g>
     <g id="text_18">
      <!-- $\mathdefault{7}$ -->
      <g transform="translate(119.407223 277.348102) scale(0.1725 -0.1725)">
       <use xlink:href="#URWPalladioL-Roma-37" transform="scale(0.996264)"/>
      </g>
     </g>
    </g>
    <g id="ytick_8">
     <g id="line2d_18">
      <g>
       <use xlink:href="#m2a5034be95" x="135" y="209.6" style="stroke: #000000; stroke-width: 0.8"/>
      </g>
     </g>
     <g id="text_19">
      <!-- $\mathdefault{8}$ -->
      <g transform="translate(119.407223 215.748102) scale(0.1725 -0.1725)">
       <use xlink:href="#URWPalladioL-Roma-38" transform="scale(0.996264)"/>
      </g>
     </g>
    </g>
    <g id="ytick_9">
     <g id="line2d_19">
      <g>
       <use xlink:href="#m2a5034be95" x="135" y="148" style="stroke: #000000; stroke-width: 0.8"/>
      </g>
     </g>
     <g id="text_20">
      <!-- $\mathdefault{9}$ -->
      <g transform="translate(119.407223 154.148102) scale(0.1725 -0.1725)">
       <use xlink:href="#URWPalladioL-Roma-39" transform="scale(0.996264)"/>
      </g>
     </g>
    </g>
    <g id="ytick_10">
     <g id="line2d_20">
      <g>
       <use xlink:href="#m2a5034be95" x="135" y="86.4" style="stroke: #000000; stroke-width: 0.8"/>
      </g>
     </g>
     <g id="text_21">
      <!-- $\mathdefault{10}$ -->
      <g transform="translate(110.814446 92.548102) scale(0.1725 -0.1725)">
       <use xlink:href="#URWPalladioL-Roma-31" transform="scale(0.996264)"/>
       <use xlink:href="#URWPalladioL-Roma-30" transform="translate(49.8132 0) scale(0.996264)"/>
      </g>
     </g>
    </g>
    <g id="text_22">
     <!-- Number of Time Intervals -->
     <g transform="translate(100.352807 495.15963) rotate(-90) scale(0.23 -0.23)">
      <defs>
       <path id="URWPalladioL-Roma-4e" d="M 877 4423 
C 518 4423 461 4423 109 4423 
L 109 4224 
L 390 4224 
C 685 4224 717 4166 717 3663 
L 717 766 
C 717 262 685 205 390 205 
L 109 205 
L 109 0 
C 742 0 742 0 851 0 
C 947 0 947 0 1619 0 
L 1619 205 
L 1338 205 
C 1043 205 1011 262 1011 764 
L 1011 3738 
L 4038 -13 
L 4614 -115 
C 4614 -90 4614 -83 4608 -38 
C 4602 32 4595 84 4595 122 
L 4595 3665 
C 4595 4166 4627 4224 4922 4224 
L 5203 4224 
L 5203 4423 
C 4531 4423 4531 4423 4435 4423 
C 4326 4423 4326 4423 3693 4423 
L 3693 4224 
L 3974 4224 
C 4269 4224 4301 4166 4301 3665 
L 4301 639 
L 1222 4423 
L 877 4423 
z
" transform="scale(0.015625)"/>
       <path id="URWPalladioL-Roma-75" d="M 3219 3009 
L 3162 3035 
C 2835 2900 2502 2810 2163 2772 
L 2163 2592 
L 2400 2592 
C 2656 2592 2682 2547 2682 2121 
L 2682 1070 
C 2682 928 2592 747 2445 599 
C 2266 418 2061 327 1811 327 
C 1587 327 1408 398 1306 521 
C 1216 624 1171 824 1171 1107 
L 1171 3009 
L 1114 3035 
C 787 2900 454 2810 115 2772 
L 115 2592 
L 352 2592 
C 608 2592 634 2547 634 2122 
L 634 1039 
C 634 587 672 387 787 227 
C 928 33 1171 -64 1536 -64 
C 1824 -64 2080 26 2253 186 
L 2682 585 
C 2682 401 2675 298 2656 0 
C 3085 0 3091 0 3187 0 
C 3277 0 3277 0 3718 0 
L 3718 186 
L 3456 212 
C 3238 212 3219 251 3219 664 
L 3219 3009 
z
" transform="scale(0.015625)"/>
       <path id="URWPalladioL-Roma-62" d="M 960 4620 
L 902 4672 
C 621 4563 410 4511 -96 4434 
L -96 4255 
L 262 4255 
C 378 4255 422 4184 422 3991 
L 422 989 
C 422 591 416 416 371 -33 
L 474 -71 
L 730 160 
C 986 -7 1216 -71 1555 -71 
C 1805 -71 1971 -26 2106 70 
L 2746 531 
C 3027 735 3251 1266 3251 1733 
C 3251 2476 2771 3008 2093 3008 
C 1792 3008 1478 2892 1312 2725 
L 960 2367 
L 960 4620 
z
M 960 1977 
C 960 2066 1024 2181 1126 2297 
C 1306 2482 1555 2591 1818 2591 
C 2355 2591 2694 2156 2694 1472 
C 2694 755 2310 256 1766 256 
C 1434 256 960 460 960 601 
L 960 1977 
z
" transform="scale(0.015625)"/>
       <path id="URWPalladioL-Roma-72" d="M 147 2565 
L 384 2565 
C 640 2565 666 2520 666 2094 
L 666 643 
C 666 237 646 192 429 192 
L 134 192 
L 134 -7 
C 595 -7 762 -7 922 -7 
C 1050 -7 1050 -7 1837 -7 
L 1837 192 
L 1504 192 
C 1216 192 1203 211 1203 638 
L 1203 1751 
C 1203 2139 1459 2463 1773 2463 
C 1965 2463 2099 2373 2202 2169 
L 2336 2169 
L 2394 2937 
C 2323 2982 2208 3008 2093 3008 
C 1901 3008 1696 2905 1562 2745 
L 1203 2322 
L 1203 2982 
L 1146 3008 
C 819 2873 486 2783 147 2745 
L 147 2565 
z
" transform="scale(0.015625)"/>
       <path id="URWPalladioL-Roma-66" d="M 2182 4601 
C 2048 4652 1971 4672 1888 4672 
C 1683 4672 1459 4563 1318 4404 
L 947 3985 
C 762 3775 678 3490 678 3070 
L 678 2803 
L 237 2604 
L 237 2476 
L 678 2476 
L 678 651 
C 678 244 659 199 442 199 
L 147 199 
L 147 0 
C 787 0 787 0 947 0 
C 1107 0 1107 0 1747 0 
L 1747 199 
L 1453 199 
C 1235 199 1216 245 1216 653 
L 1216 2489 
L 2010 2489 
L 2054 2816 
L 1216 2816 
L 1216 3350 
C 1216 4073 1299 4248 1664 4248 
C 1837 4248 1952 4204 2106 4071 
L 2182 4109 
L 2182 4601 
z
" transform="scale(0.015625)"/>
       <path id="URWPalladioL-Roma-49" d="M 1382 3663 
C 1382 4172 1414 4224 1709 4224 
L 2016 4224 
L 2016 4423 
C 1549 4423 1408 4423 1075 4423 
C 755 4423 602 4423 141 4423 
L 141 4224 
L 448 4224 
C 742 4224 774 4172 774 3663 
L 774 766 
C 774 256 742 205 448 205 
L 141 205 
L 141 0 
C 518 0 742 0 1075 0 
C 1408 0 1638 0 2016 0 
L 2016 205 
L 1709 205 
C 1414 205 1382 256 1382 766 
L 1382 3663 
z
" transform="scale(0.015625)"/>
       <path id="URWPalladioL-Roma-6e" d="M 2624 -7 
C 3014 -7 3021 -7 3130 -7 
C 3219 -7 3219 -7 3661 -7 
L 3661 179 
L 3398 205 
C 3181 205 3162 244 3162 654 
L 3162 1892 
C 3162 2642 2810 3008 2093 3008 
C 1856 3008 1722 2963 1587 2847 
L 1101 2424 
L 1101 2982 
L 1043 3008 
C 717 2873 384 2783 45 2745 
L 45 2565 
L 282 2565 
C 538 2565 563 2520 563 2094 
L 563 643 
C 563 237 544 192 326 192 
L 38 192 
L 38 -7 
C 474 -7 646 -7 832 -7 
C 1018 -7 1190 -7 1626 -7 
L 1626 192 
L 1338 192 
C 1120 192 1101 237 1101 643 
L 1101 2011 
C 1101 2300 1523 2616 1914 2616 
C 2342 2616 2624 2297 2624 1806 
L 2624 -7 
z
" transform="scale(0.015625)"/>
       <path id="URWPalladioL-Roma-76" d="M 3450 2752 
L 3450 2932 
C 3066 2932 2950 2932 2848 2932 
C 2746 2932 2630 2932 2246 2932 
L 2246 2752 
L 2509 2752 
C 2611 2752 2662 2694 2662 2591 
C 2662 2489 2618 2317 2541 2124 
L 2272 1445 
C 2195 1259 2118 1080 1875 549 
L 1114 2393 
C 1075 2482 1056 2566 1056 2636 
C 1056 2707 1114 2752 1216 2752 
L 1530 2752 
L 1530 2932 
C 902 2932 902 2932 781 2932 
C 659 2932 352 2932 38 2932 
L 38 2752 
L 256 2752 
C 352 2739 384 2701 454 2541 
L 1555 -32 
L 1875 -32 
C 1914 77 1978 243 1978 256 
C 2048 447 2131 664 2138 664 
L 2893 2324 
C 3034 2625 3123 2739 3251 2752 
L 3450 2752 
z
" transform="scale(0.015625)"/>
       <path id="URWPalladioL-Roma-73" d="M 262 917 
C 262 475 243 282 192 26 
C 525 -83 774 -128 1069 -128 
C 1907 -128 2502 321 2502 949 
C 2502 1148 2445 1295 2323 1424 
C 2157 1584 1946 1661 1382 1770 
C 858 1873 685 2001 685 2296 
C 685 2616 909 2796 1299 2796 
C 1728 2796 2054 2572 2054 2270 
L 2054 2123 
L 2234 2123 
C 2240 2495 2246 2648 2266 2847 
C 1926 2963 1696 3008 1434 3008 
C 691 3008 237 2655 237 2078 
C 237 1770 378 1552 672 1417 
C 845 1340 1184 1238 1619 1141 
C 1907 1077 2029 943 2029 699 
C 2029 353 1709 109 1254 109 
C 787 109 454 333 454 654 
L 454 917 
L 262 917 
z
" transform="scale(0.015625)"/>
      </defs>
      <use xlink:href="#URWPalladioL-Roma-4e" transform="scale(0.996264)"/>
      <use xlink:href="#URWPalladioL-Roma-75" transform="translate(82.788907 0) scale(0.996264)"/>
      <use xlink:href="#URWPalladioL-Roma-6d" transform="translate(142.862642 0) scale(0.996264)"/>
      <use xlink:href="#URWPalladioL-Roma-62" transform="translate(230.832316 0) scale(0.996264)"/>
      <use xlink:href="#URWPalladioL-Roma-65" transform="translate(285.924715 0) scale(0.996264)"/>
      <use xlink:href="#URWPalladioL-Roma-72" transform="translate(333.64501 0) scale(0.996264)"/>
      <use xlink:href="#URWPalladioL-Roma-6f" transform="translate(397.903507 0) scale(0.996264)"/>
      <use xlink:href="#URWPalladioL-Roma-66" transform="translate(452.299087 0) scale(0.996264)"/>
      <use xlink:href="#URWPalladioL-Roma-54" transform="translate(510.380917 0) scale(0.996264)"/>
      <use xlink:href="#URWPalladioL-Roma-69" transform="translate(565.972026 0) scale(0.996264)"/>
      <use xlink:href="#URWPalladioL-Roma-6d" transform="translate(594.962388 0) scale(0.996264)"/>
      <use xlink:href="#URWPalladioL-Roma-65" transform="translate(682.932062 0) scale(0.996264)"/>
      <use xlink:href="#URWPalladioL-Roma-49" transform="translate(755.558957 0) scale(0.996264)"/>
      <use xlink:href="#URWPalladioL-Roma-6e" transform="translate(789.133036 0) scale(0.996264)"/>
      <use xlink:href="#URWPalladioL-Roma-74" transform="translate(847.115097 0) scale(0.996264)"/>
      <use xlink:href="#URWPalladioL-Roma-65" transform="translate(879.592185 0) scale(0.996264)"/>
      <use xlink:href="#URWPalladioL-Roma-72" transform="translate(927.31248 0) scale(0.996264)"/>
      <use xlink:href="#URWPalladioL-Roma-76" transform="translate(966.664376 0) scale(0.996264)"/>
      <use xlink:href="#URWPalladioL-Roma-61" transform="translate(1022.95229 0) scale(0.996264)"/>
      <use xlink:href="#URWPalladioL-Roma-6c" transform="translate(1072.76549 0) scale(0.996264)"/>
      <use xlink:href="#URWPalladioL-Roma-73" transform="translate(1101.755851 0) scale(0.996264)"/>
     </g>
    </g>
   </g>
   <g id="QuadContourSet_2">
    <path clip-path="url(#pdf5cf4da90)" style="fill: none; stroke: #000000; stroke-width: 1.5"/>
    <path clip-path="url(#pdf5cf4da90)" style="fill: none; stroke: #000000; stroke-width: 1.5"/>
    <path d="M 804.6 585.845235 
L 789.130818 579.2 
L 804.6 575.138229 
" clip-path="url(#pdf5cf4da90)" style="fill: none; stroke: #000000; stroke-width: 1.5"/>
    <path d="M 350.16864 640.8 
L 358.2 634.629668 
L 432.6 593.147354 
L 459.771355 640.8 
M 577.516369 640.8 
L 581.4 636.409072 
L 621.060846 579.2 
L 655.8 550.934756 
L 730.2 568.555699 
L 804.6 552.663437 
M 804.6 622.614974 
L 730.2 591.338127 
L 670.444531 640.8 
" clip-path="url(#pdf5cf4da90)" style="fill: none; stroke: #000000; stroke-width: 1.5"/>
    <path d="M 309.558713 640.8 
L 358.2 603.42988 
L 394.868261 579.2 
L 432.6 554.776662 
L 470.998913 579.2 
L 499.362296 640.8 
M 518.403739 640.8 
L 569.404684 579.2 
L 581.4 562.791034 
L 638.990726 517.6 
L 655.8 515.492645 
L 669.988651 517.6 
L 730.2 534.386154 
L 804.6 530.188646 
M 756.067611 640.8 
L 730.2 630.303037 
L 717.518496 640.8 
" clip-path="url(#pdf5cf4da90)" style="fill: none; stroke: #000000; stroke-width: 1.5"/>
    <path d="M 135 637.225773 
L 209.4 614.564337 
L 283.8 608.885415 
L 328.707542 579.2 
L 358.2 572.144505 
L 432.6 524.21416 
L 507 565.185573 
L 550.544224 517.6 
L 581.4 505.088648 
L 655.8 497.288805 
L 730.2 466.981582 
L 804.6 468.892358 
" clip-path="url(#pdf5cf4da90)" style="fill: none; stroke: #000000; stroke-width: 1.5"/>
    <path d="M 135 550.534226 
L 174.820326 579.2 
L 209.4 586.335147 
L 230.006216 579.2 
L 283.8 565.681863 
L 358.2 540.561596 
L 394.007172 517.6 
L 432.6 502.191655 
L 507 513.693643 
L 581.4 484.353086 
L 655.8 479.084965 
L 699.525482 456 
L 730.2 438.783145 
L 804.6 428.392346 
" clip-path="url(#pdf5cf4da90)" style="fill: none; stroke: #000000; stroke-width: 1.5"/>
    <path d="M 140.71173 86.4 
L 139.61225 148 
L 142.46265 209.6 
L 146.86961 271.2 
L 149.349161 332.8 
L 163.482465 394.4 
L 171.845988 456 
L 194.045187 517.6 
L 209.4 529.185285 
L 283.8 545.194859 
L 345.662787 517.6 
L 358.2 503.951382 
L 432.6 482.527764 
L 507 487.388953 
L 581.4 463.617524 
L 655.8 460.881125 
L 665.045391 456 
L 730.2 419.430314 
L 804.6 397.146754 
" clip-path="url(#pdf5cf4da90)" style="fill: none; stroke: #000000; stroke-width: 1.5"/>
    <path d="M 184.905727 86.4 
L 199.232512 148 
L 192.297831 209.6 
L 209.4 268.78452 
L 210.181045 271.2 
L 209.4 277.581553 
L 202.909054 332.8 
L 209.4 357.68962 
L 225.716116 394.4 
L 241.194161 456 
L 261.810341 517.6 
L 283.8 524.707855 
L 299.734552 517.6 
L 351.926695 456 
L 358.2 453.987662 
L 366.014656 456 
L 432.6 462.863874 
L 507 461.084262 
L 524.411275 456 
L 581.4 422.29697 
L 655.8 404.803728 
L 730.2 400.077484 
L 748.306398 394.4 
L 804.6 366.642751 
" clip-path="url(#pdf5cf4da90)" style="fill: none; stroke: #000000; stroke-width: 1.5"/>
    <path d="M 245.51248 86.4 
L 264.619404 148 
L 261.675838 209.6 
L 265.946573 271.2 
L 283.8 312.733579 
L 320.208002 332.8 
L 330.713983 394.4 
L 358.2 404.866347 
L 391.285596 394.4 
L 432.6 367.274491 
L 507 338.827457 
L 581.4 359.375251 
L 614.68051 332.8 
L 655.8 305.060391 
L 728.606944 332.8 
L 730.2 333.64017 
L 804.6 336.210223 
" clip-path="url(#pdf5cf4da90)" style="fill: none; stroke: #000000; stroke-width: 1.5"/>
    <path clip-path="url(#pdf5cf4da90)" style="fill: none; stroke: #000000; stroke-width: 1.5"/>
   </g>
   <g id="patch_3">
    <path d="M 135 640.8 
L 135 86.4 
" style="fill: none; stroke: #000000; stroke-width: 0.8; stroke-linejoin: miter; stroke-linecap: square"/>
   </g>
   <g id="patch_4">
    <path d="M 804.6 640.8 
L 804.6 86.4 
" style="fill: none; stroke: #000000; stroke-width: 0.8; stroke-linejoin: miter; stroke-linecap: square"/>
   </g>
   <g id="patch_5">
    <path d="M 135 640.8 
L 804.6 640.8 
" style="fill: none; stroke: #000000; stroke-width: 0.8; stroke-linejoin: miter; stroke-linecap: square"/>
   </g>
   <g id="patch_6">
    <path d="M 135 86.4 
L 804.6 86.4 
" style="fill: none; stroke: #000000; stroke-width: 0.8; stroke-linejoin: miter; stroke-linecap: square"/>
   </g>
   <g id="text_23">
    <!-- Fidelity vs. Total Time \&amp; Number of Time Intervals (Spin: 1/2) -->
    <g transform="translate(152.592662 76.4) scale(0.23 -0.23)">
     <defs>
      <path id="URWPalladioL-Roma-46" d="M 1382 2100 
C 1562 2112 1754 2112 2042 2112 
C 2515 2112 2688 2094 2803 2040 
L 2854 1890 
L 2886 1536 
L 3078 1536 
C 3059 2132 3059 2132 3059 2247 
C 3059 2350 3059 2350 3078 2991 
L 2886 2991 
L 2854 2642 
C 2848 2581 2829 2521 2803 2467 
C 2688 2414 2509 2394 2086 2394 
C 1818 2394 1600 2394 1382 2394 
L 1382 4117 
C 1574 4160 1690 4160 2067 4160 
C 2374 4160 2733 4124 2931 4076 
C 3085 4039 3104 4008 3104 3868 
L 3104 3465 
L 3328 3465 
C 3328 3843 3360 4146 3430 4423 
C 3117 4423 2925 4423 2650 4423 
L 1965 4423 
C 1651 4423 1427 4423 1267 4423 
C 1082 4423 1082 4423 141 4423 
L 141 4224 
L 448 4224 
C 742 4224 774 4172 774 3663 
L 774 766 
C 774 256 742 205 448 205 
L 141 205 
L 141 0 
C 518 0 742 0 1075 0 
C 1408 0 1638 0 2016 0 
L 2016 205 
L 1709 205 
C 1414 205 1382 256 1382 766 
L 1382 2100 
z
" transform="scale(0.015625)"/>
      <path id="URWPalladioL-Roma-64" d="M 2637 2802 
C 2278 2956 2099 3008 1875 3008 
C 1702 3008 1549 2969 1389 2887 
L 826 2593 
C 461 2401 224 1935 224 1392 
C 224 881 397 460 710 204 
C 928 19 1229 -64 1645 -64 
C 1773 -64 1920 -38 1952 -13 
L 2662 583 
L 2630 -7 
C 2944 -7 3046 -7 3123 -7 
C 3174 -7 3264 -7 3398 -7 
C 3443 -7 3571 -7 3706 -7 
L 3706 192 
L 3411 192 
C 3194 192 3174 237 3174 643 
L 3174 4607 
L 3117 4659 
C 2835 4550 2624 4498 2118 4421 
L 2118 4242 
L 2477 4242 
C 2592 4242 2637 4171 2637 3978 
L 2637 2802 
z
M 2637 1424 
C 2637 1009 2624 946 2541 799 
C 2362 499 2048 302 1747 302 
C 1184 302 781 844 781 1603 
C 781 2298 1126 2706 1702 2706 
C 1946 2706 2202 2623 2426 2470 
C 2560 2381 2637 2298 2637 2246 
L 2637 1424 
z
" transform="scale(0.015625)"/>
      <path id="URWPalladioL-Roma-79" d="M 1901 564 
C 1760 808 1690 956 1574 1270 
L 1165 2347 
C 1126 2456 1101 2552 1101 2618 
C 1101 2710 1171 2764 1318 2764 
L 1562 2764 
L 1562 2944 
C 941 2944 941 2944 819 2944 
C 698 2944 698 2944 77 2944 
L 77 2777 
L 192 2764 
C 352 2745 429 2674 525 2451 
L 1222 775 
C 1402 340 1466 186 1581 -134 
L 1434 -524 
C 1229 -1062 979 -1362 736 -1362 
C 634 -1362 518 -1311 410 -1215 
L 326 -1215 
L 173 -1696 
C 294 -1760 397 -1792 518 -1792 
C 947 -1792 1222 -1562 1466 -1005 
L 2765 1990 
C 3021 2572 3142 2745 3302 2764 
L 3482 2777 
L 3482 2944 
C 2976 2944 2976 2944 2874 2944 
C 2771 2944 2771 2944 2266 2944 
L 2266 2777 
L 2432 2764 
C 2611 2751 2701 2694 2701 2604 
C 2701 2559 2688 2501 2662 2437 
L 1901 564 
z
" transform="scale(0.015625)"/>
      <path id="URWPalladioL-Roma-2e" d="M 794 744 
C 602 744 429 564 429 372 
C 429 179 602 0 787 0 
C 992 0 1171 173 1171 372 
C 1171 564 992 744 794 744 
z
" transform="scale(0.015625)"/>
      <path id="URWPalladioL-Roma-26" d="M 2675 2207 
C 3053 2175 3155 2162 3232 2143 
C 3328 2117 3405 1892 3405 1629 
C 3405 1398 3328 1211 3098 903 
C 2528 1486 2150 1958 1792 2541 
C 2061 2740 2176 2836 2304 2965 
C 2586 3267 2714 3543 2714 3838 
C 2714 4205 2483 4416 2086 4416 
C 1914 4416 1779 4372 1664 4269 
L 1229 3883 
C 1133 3800 1075 3595 1075 3331 
C 1075 3068 1133 2818 1267 2477 
C 922 2278 781 2164 614 1978 
C 390 1715 275 1421 275 1101 
C 275 384 832 -128 1594 -128 
C 2061 -128 2432 13 2886 366 
C 3258 77 3738 -128 4045 -128 
C 4160 -128 4224 -115 4262 -90 
L 4819 314 
L 4781 474 
C 4589 385 4499 353 4390 353 
C 4077 353 3834 442 3290 756 
C 3667 1174 3808 1478 3808 1877 
C 3808 1972 3802 2029 3776 2124 
C 4230 2124 4422 2102 4672 2060 
C 4672 2211 4691 2320 4749 2496 
L 3507 2496 
C 3341 2496 3206 2496 2886 2496 
L 2675 2207 
z
M 1363 2257 
C 1651 1738 1965 1334 2688 526 
C 2387 321 2150 231 1894 231 
C 1325 231 832 744 832 1340 
C 832 1712 973 1949 1363 2257 
z
M 1690 2760 
C 1568 3120 1523 3344 1523 3569 
C 1523 3897 1658 4077 1914 4077 
C 2125 4077 2285 3891 2285 3646 
C 2285 3383 2080 3061 1760 2811 
C 1722 2786 1722 2786 1690 2760 
z
" transform="scale(0.015625)"/>
      <path id="URWPalladioL-Roma-28" d="M 1926 -1244 
C 1466 -673 1299 -366 1133 212 
C 998 673 934 1161 934 1706 
C 934 2238 998 2693 1120 3110 
C 1286 3642 1459 3944 1926 4489 
L 1805 4656 
C 1139 4059 877 3707 634 3078 
C 467 2648 384 2193 384 1706 
C 384 1020 544 372 851 -205 
C 1075 -635 1280 -885 1805 -1379 
L 1926 -1244 
z
" transform="scale(0.015625)"/>
      <path id="URWPalladioL-Roma-53" d="M 2861 3371 
C 2861 3711 2886 3928 2950 4274 
C 2438 4480 2150 4544 1798 4544 
C 845 4544 154 3941 154 3102 
C 154 2788 237 2557 422 2384 
C 640 2186 934 2083 1555 2000 
C 2048 1929 2272 1859 2438 1711 
C 2605 1577 2682 1391 2682 1147 
C 2682 571 2202 154 1536 154 
C 1024 154 525 404 493 666 
L 442 1096 
L 237 1096 
C 243 980 243 878 243 840 
C 243 545 230 404 192 116 
C 557 -45 928 -128 1299 -128 
C 2413 -128 3219 545 3219 1474 
C 3219 1775 3136 1987 2957 2153 
C 2733 2364 2464 2448 1747 2544 
C 966 2646 691 2858 691 3352 
C 691 3890 1094 4274 1658 4274 
C 1907 4274 2144 4223 2317 4127 
C 2528 4018 2598 3922 2618 3737 
L 2656 3371 
L 2861 3371 
z
" transform="scale(0.015625)"/>
      <path id="URWPalladioL-Roma-70" d="M 64 2565 
L 301 2565 
C 557 2565 582 2520 582 2095 
L 582 -1142 
C 582 -1548 563 -1593 346 -1593 
L 51 -1593 
L 51 -1792 
C 691 -1792 691 -1792 851 -1792 
C 1011 -1792 1011 -1792 1651 -1792 
L 1651 -1593 
L 1357 -1593 
C 1139 -1593 1120 -1547 1120 -1138 
L 1120 89 
C 1312 -26 1517 -71 1805 -71 
C 1990 -71 2157 -32 2259 32 
L 2989 505 
C 3245 672 3546 1330 3546 1740 
C 3546 2451 2957 3008 2214 3008 
C 1978 3008 1747 2943 1645 2847 
L 1120 2367 
L 1120 2982 
L 1062 3008 
C 736 2873 403 2783 64 2745 
L 64 2565 
z
M 1120 1964 
C 1120 2053 1152 2124 1235 2233 
C 1421 2469 1683 2591 2003 2591 
C 2605 2591 2989 2169 2989 1504 
C 2989 787 2560 256 1984 256 
C 1632 256 1370 372 1120 633 
L 1120 1964 
z
" transform="scale(0.015625)"/>
      <path id="URWPalladioL-Roma-3a" d="M 787 744 
C 595 744 422 564 422 372 
C 422 179 595 0 781 0 
C 986 0 1165 173 1165 372 
C 1165 564 986 744 787 744 
z
M 787 2944 
C 595 2944 422 2765 422 2572 
C 422 2380 595 2200 781 2200 
C 986 2200 1165 2373 1165 2566 
C 1165 2765 986 2944 787 2944 
z
" transform="scale(0.015625)"/>
      <path id="URWPalladioL-Roma-2f" d="M 3322 4640 
L 2938 4640 
L 557 -768 
L 941 -768 
L 3322 4640 
z
" transform="scale(0.015625)"/>
      <path id="URWPalladioL-Roma-29" d="M 326 -1379 
C 768 -962 954 -750 1152 -436 
C 1542 186 1747 930 1747 1699 
C 1747 2193 1664 2648 1498 3078 
C 1254 3700 992 4053 326 4656 
L 205 4489 
C 672 3937 845 3636 1005 3110 
C 1133 2693 1197 2238 1197 1706 
C 1197 1161 1133 673 998 212 
C 832 -366 666 -673 205 -1244 
L 326 -1379 
z
" transform="scale(0.015625)"/>
     </defs>
     <use xlink:href="#URWPalladioL-Roma-46" transform="scale(0.996264)"/>
     <use xlink:href="#URWPalladioL-Roma-69" transform="translate(55.391677 0) scale(0.996264)"/>
     <use xlink:href="#URWPalladioL-Roma-64" transform="translate(84.382038 0) scale(0.996264)"/>
     <use xlink:href="#URWPalladioL-Roma-65" transform="translate(145.253669 0) scale(0.996264)"/>
     <use xlink:href="#URWPalladioL-Roma-6c" transform="translate(192.973964 0) scale(0.996264)"/>
     <use xlink:href="#URWPalladioL-Roma-69" transform="translate(221.964326 0) scale(0.996264)"/>
     <use xlink:href="#URWPalladioL-Roma-74" transform="translate(250.954687 0) scale(0.996264)"/>
     <use xlink:href="#URWPalladioL-Roma-79" transform="translate(283.431775 0) scale(0.996264)"/>
     <use xlink:href="#URWPalladioL-Roma-76" transform="translate(363.730052 0) scale(0.996264)"/>
     <use xlink:href="#URWPalladioL-Roma-73" transform="translate(420.017965 0) scale(0.996264)"/>
     <use xlink:href="#URWPalladioL-Roma-2e" transform="translate(462.259432 0) scale(0.996264)"/>
     <use xlink:href="#URWPalladioL-Roma-54" transform="translate(518.050064 0) scale(0.996264)"/>
     <use xlink:href="#URWPalladioL-Roma-6f" transform="translate(569.955015 0) scale(0.996264)"/>
     <use xlink:href="#URWPalladioL-Roma-74" transform="translate(624.350595 0) scale(0.996264)"/>
     <use xlink:href="#URWPalladioL-Roma-61" transform="translate(656.827683 0) scale(0.996264)"/>
     <use xlink:href="#URWPalladioL-Roma-6c" transform="translate(706.640883 0) scale(0.996264)"/>
     <use xlink:href="#URWPalladioL-Roma-54" transform="translate(760.537845 0) scale(0.996264)"/>
     <use xlink:href="#URWPalladioL-Roma-69" transform="translate(816.128954 0) scale(0.996264)"/>
     <use xlink:href="#URWPalladioL-Roma-6d" transform="translate(845.119316 0) scale(0.996264)"/>
     <use xlink:href="#URWPalladioL-Roma-65" transform="translate(933.08899 0) scale(0.996264)"/>
     <use xlink:href="#URWPalladioL-Roma-26" transform="translate(1005.715885 0) scale(0.996264)"/>
     <use xlink:href="#URWPalladioL-Roma-4e" transform="translate(1108.130856 0) scale(0.996264)"/>
     <use xlink:href="#URWPalladioL-Roma-75" transform="translate(1190.919763 0) scale(0.996264)"/>
     <use xlink:href="#URWPalladioL-Roma-6d" transform="translate(1250.993497 0) scale(0.996264)"/>
     <use xlink:href="#URWPalladioL-Roma-62" transform="translate(1338.963172 0) scale(0.996264)"/>
     <use xlink:href="#URWPalladioL-Roma-65" transform="translate(1394.055571 0) scale(0.996264)"/>
     <use xlink:href="#URWPalladioL-Roma-72" transform="translate(1441.775866 0) scale(0.996264)"/>
     <use xlink:href="#URWPalladioL-Roma-6f" transform="translate(1506.034363 0) scale(0.996264)"/>
     <use xlink:href="#URWPalladioL-Roma-66" transform="translate(1560.429943 0) scale(0.996264)"/>
     <use xlink:href="#URWPalladioL-Roma-54" transform="translate(1618.511773 0) scale(0.996264)"/>
     <use xlink:href="#URWPalladioL-Roma-69" transform="translate(1674.102882 0) scale(0.996264)"/>
     <use xlink:href="#URWPalladioL-Roma-6d" transform="translate(1703.093243 0) scale(0.996264)"/>
     <use xlink:href="#URWPalladioL-Roma-65" transform="translate(1791.062918 0) scale(0.996264)"/>
     <use xlink:href="#URWPalladioL-Roma-49" transform="translate(1863.689813 0) scale(0.996264)"/>
     <use xlink:href="#URWPalladioL-Roma-6e" transform="translate(1897.263892 0) scale(0.996264)"/>
     <use xlink:href="#URWPalladioL-Roma-74" transform="translate(1955.245953 0) scale(0.996264)"/>
     <use xlink:href="#URWPalladioL-Roma-65" transform="translate(1987.723041 0) scale(0.996264)"/>
     <use xlink:href="#URWPalladioL-Roma-72" transform="translate(2035.443336 0) scale(0.996264)"/>
     <use xlink:href="#URWPalladioL-Roma-76" transform="translate(2074.795232 0) scale(0.996264)"/>
     <use xlink:href="#URWPalladioL-Roma-61" transform="translate(2131.083145 0) scale(0.996264)"/>
     <use xlink:href="#URWPalladioL-Roma-6c" transform="translate(2180.896346 0) scale(0.996264)"/>
     <use xlink:href="#URWPalladioL-Roma-73" transform="translate(2209.886707 0) scale(0.996264)"/>
     <use xlink:href="#URWPalladioL-Roma-28" transform="translate(2277.034774 0) scale(0.996264)"/>
     <use xlink:href="#URWPalladioL-Roma-53" transform="translate(2310.210004 0) scale(0.996264)"/>
     <use xlink:href="#URWPalladioL-Roma-70" transform="translate(2362.513818 0) scale(0.996264)"/>
     <use xlink:href="#URWPalladioL-Roma-69" transform="translate(2422.388212 0) scale(0.996264)"/>
     <use xlink:href="#URWPalladioL-Roma-6e" transform="translate(2451.378574 0) scale(0.996264)"/>
     <use xlink:href="#URWPalladioL-Roma-3a" transform="translate(2509.360634 0) scale(0.996264)"/>
     <use xlink:href="#URWPalladioL-Roma-31" transform="translate(2565.151267 0) scale(0.996264)"/>
     <use xlink:href="#URWPalladioL-Roma-2f" transform="translate(2614.964467 0) scale(0.996264)"/>
     <use xlink:href="#URWPalladioL-Roma-32" transform="translate(2675.33748 0) scale(0.996264)"/>
     <use xlink:href="#URWPalladioL-Roma-29" transform="translate(2725.15068 0) scale(0.996264)"/>
    </g>
   </g>
  </g>
  <g id="axes_2">
   <g id="patch_7">
    <path d="M 846.45 640.8 
L 874.17 640.8 
L 874.17 86.4 
L 846.45 86.4 
z
" style="fill: #ffffff"/>
   </g>
   <g id="QuadMesh_1">
    <path d="M 846.45 640.8 
L 874.17 640.8 
L 874.17 585.36 
L 846.45 585.36 
L 846.45 640.8 
" clip-path="url(#p4560f62354)" style="fill: #b60000"/>
    <path d="M 846.45 585.36 
L 874.17 585.36 
L 874.17 529.92 
L 846.45 529.92 
L 846.45 585.36 
" clip-path="url(#p4560f62354)" style="fill: #ff3800"/>
    <path d="M 846.45 529.92 
L 874.17 529.92 
L 874.17 474.48 
L 846.45 474.48 
L 846.45 529.92 
" clip-path="url(#p4560f62354)" style="fill: #ff9800"/>
    <path d="M 846.45 474.48 
L 874.17 474.48 
L 874.17 419.04 
L 846.45 419.04 
L 846.45 474.48 
" clip-path="url(#p4560f62354)" style="fill: #f8f500"/>
    <path d="M 846.45 419.04 
L 874.17 419.04 
L 874.17 363.6 
L 846.45 363.6 
L 846.45 419.04 
" clip-path="url(#p4560f62354)" style="fill: #a4ff53"/>
    <path d="M 846.45 363.6 
L 874.17 363.6 
L 874.17 308.16 
L 846.45 308.16 
L 846.45 363.6 
" clip-path="url(#p4560f62354)" style="fill: #53ffa4"/>
    <path d="M 846.45 308.16 
L 874.17 308.16 
L 874.17 252.72 
L 846.45 252.72 
L 846.45 308.16 
" clip-path="url(#p4560f62354)" style="fill: #00e4f8"/>
    <path d="M 846.45 252.72 
L 874.17 252.72 
L 874.17 197.28 
L 846.45 197.28 
L 846.45 252.72 
" clip-path="url(#p4560f62354)" style="fill: #007dff"/>
    <path d="M 846.45 197.28 
L 874.17 197.28 
L 874.17 141.84 
L 846.45 141.84 
L 846.45 197.28 
" clip-path="url(#p4560f62354)" style="fill: #0018ff"/>
    <path d="M 846.45 141.84 
L 874.17 141.84 
L 874.17 86.4 
L 846.45 86.4 
L 846.45 141.84 
" clip-path="url(#p4560f62354)" style="fill: #0000b6"/>
   </g>
   <g id="matplotlib.axis_3"/>
   <g id="matplotlib.axis_4">
    <g id="ytick_11">
     <g id="line2d_21">
      <defs>
       <path id="m41b0c756ea" d="M 0 0 
L 3.5 0 
" style="stroke: #000000; stroke-width: 0.8"/>
      </defs>
      <g>
       <use xlink:href="#m41b0c756ea" x="874.17" y="640.8" style="stroke: #000000; stroke-width: 0.8"/>
      </g>
     </g>
     <g id="text_24">
      <!-- $\mathdefault{0.0}$ -->
      <g transform="translate(881.17 646.948102) scale(0.1725 -0.1725)">
       <use xlink:href="#URWPalladioL-Roma-30" transform="scale(0.996264)"/>
       <use xlink:href="#URWPalladioL-Roma-2e" transform="translate(49.8132 0) scale(0.996264)"/>
       <use xlink:href="#URWPalladioL-Roma-30" transform="translate(74.719801 0) scale(0.996264)"/>
      </g>
     </g>
    </g>
    <g id="ytick_12">
     <g id="line2d_22">
      <g>
       <use xlink:href="#m41b0c756ea" x="874.17" y="585.36" style="stroke: #000000; stroke-width: 0.8"/>
      </g>
     </g>
     <g id="text_25">
      <!-- $\mathdefault{0.1}$ -->
      <g transform="translate(881.17 591.508102) scale(0.1725 -0.1725)">
       <use xlink:href="#URWPalladioL-Roma-30" transform="scale(0.996264)"/>
       <use xlink:href="#URWPalladioL-Roma-2e" transform="translate(49.8132 0) scale(0.996264)"/>
       <use xlink:href="#URWPalladioL-Roma-31" transform="translate(74.719801 0) scale(0.996264)"/>
      </g>
     </g>
    </g>
    <g id="ytick_13">
     <g id="line2d_23">
      <g>
       <use xlink:href="#m41b0c756ea" x="874.17" y="529.92" style="stroke: #000000; stroke-width: 0.8"/>
      </g>
     </g>
     <g id="text_26">
      <!-- $\mathdefault{0.2}$ -->
      <g transform="translate(881.17 536.068102) scale(0.1725 -0.1725)">
       <use xlink:href="#URWPalladioL-Roma-30" transform="scale(0.996264)"/>
       <use xlink:href="#URWPalladioL-Roma-2e" transform="translate(49.8132 0) scale(0.996264)"/>
       <use xlink:href="#URWPalladioL-Roma-32" transform="translate(74.719801 0) scale(0.996264)"/>
      </g>
     </g>
    </g>
    <g id="ytick_14">
     <g id="line2d_24">
      <g>
       <use xlink:href="#m41b0c756ea" x="874.17" y="474.48" style="stroke: #000000; stroke-width: 0.8"/>
      </g>
     </g>
     <g id="text_27">
      <!-- $\mathdefault{0.3}$ -->
      <g transform="translate(881.17 480.628102) scale(0.1725 -0.1725)">
       <use xlink:href="#URWPalladioL-Roma-30" transform="scale(0.996264)"/>
       <use xlink:href="#URWPalladioL-Roma-2e" transform="translate(49.8132 0) scale(0.996264)"/>
       <use xlink:href="#URWPalladioL-Roma-33" transform="translate(74.719801 0) scale(0.996264)"/>
      </g>
     </g>
    </g>
    <g id="ytick_15">
     <g id="line2d_25">
      <g>
       <use xlink:href="#m41b0c756ea" x="874.17" y="419.04" style="stroke: #000000; stroke-width: 0.8"/>
      </g>
     </g>
     <g id="text_28">
      <!-- $\mathdefault{0.4}$ -->
      <g transform="translate(881.17 425.188102) scale(0.1725 -0.1725)">
       <use xlink:href="#URWPalladioL-Roma-30" transform="scale(0.996264)"/>
       <use xlink:href="#URWPalladioL-Roma-2e" transform="translate(49.8132 0) scale(0.996264)"/>
       <use xlink:href="#URWPalladioL-Roma-34" transform="translate(74.719801 0) scale(0.996264)"/>
      </g>
     </g>
    </g>
    <g id="ytick_16">
     <g id="line2d_26">
      <g>
       <use xlink:href="#m41b0c756ea" x="874.17" y="363.6" style="stroke: #000000; stroke-width: 0.8"/>
      </g>
     </g>
     <g id="text_29">
      <!-- $\mathdefault{0.5}$ -->
      <g transform="translate(881.17 369.748102) scale(0.1725 -0.1725)">
       <use xlink:href="#URWPalladioL-Roma-30" transform="scale(0.996264)"/>
       <use xlink:href="#URWPalladioL-Roma-2e" transform="translate(49.8132 0) scale(0.996264)"/>
       <use xlink:href="#URWPalladioL-Roma-35" transform="translate(74.719801 0) scale(0.996264)"/>
      </g>
     </g>
    </g>
    <g id="ytick_17">
     <g id="line2d_27">
      <g>
       <use xlink:href="#m41b0c756ea" x="874.17" y="308.16" style="stroke: #000000; stroke-width: 0.8"/>
      </g>
     </g>
     <g id="text_30">
      <!-- $\mathdefault{0.6}$ -->
      <g transform="translate(881.17 314.308102) scale(0.1725 -0.1725)">
       <use xlink:href="#URWPalladioL-Roma-30" transform="scale(0.996264)"/>
       <use xlink:href="#URWPalladioL-Roma-2e" transform="translate(49.8132 0) scale(0.996264)"/>
       <use xlink:href="#URWPalladioL-Roma-36" transform="translate(74.719801 0) scale(0.996264)"/>
      </g>
     </g>
    </g>
    <g id="ytick_18">
     <g id="line2d_28">
      <g>
       <use xlink:href="#m41b0c756ea" x="874.17" y="252.72" style="stroke: #000000; stroke-width: 0.8"/>
      </g>
     </g>
     <g id="text_31">
      <!-- $\mathdefault{0.7}$ -->
      <g transform="translate(881.17 258.868102) scale(0.1725 -0.1725)">
       <use xlink:href="#URWPalladioL-Roma-30" transform="scale(0.996264)"/>
       <use xlink:href="#URWPalladioL-Roma-2e" transform="translate(49.8132 0) scale(0.996264)"/>
       <use xlink:href="#URWPalladioL-Roma-37" transform="translate(74.719801 0) scale(0.996264)"/>
      </g>
     </g>
    </g>
    <g id="ytick_19">
     <g id="line2d_29">
      <g>
       <use xlink:href="#m41b0c756ea" x="874.17" y="197.28" style="stroke: #000000; stroke-width: 0.8"/>
      </g>
     </g>
     <g id="text_32">
      <!-- $\mathdefault{0.8}$ -->
      <g transform="translate(881.17 203.428102) scale(0.1725 -0.1725)">
       <use xlink:href="#URWPalladioL-Roma-30" transform="scale(0.996264)"/>
       <use xlink:href="#URWPalladioL-Roma-2e" transform="translate(49.8132 0) scale(0.996264)"/>
       <use xlink:href="#URWPalladioL-Roma-38" transform="translate(74.719801 0) scale(0.996264)"/>
      </g>
     </g>
    </g>
    <g id="ytick_20">
     <g id="line2d_30">
      <g>
       <use xlink:href="#m41b0c756ea" x="874.17" y="141.84" style="stroke: #000000; stroke-width: 0.8"/>
      </g>
     </g>
     <g id="text_33">
      <!-- $\mathdefault{0.9}$ -->
      <g transform="translate(881.17 147.988102) scale(0.1725 -0.1725)">
       <use xlink:href="#URWPalladioL-Roma-30" transform="scale(0.996264)"/>
       <use xlink:href="#URWPalladioL-Roma-2e" transform="translate(49.8132 0) scale(0.996264)"/>
       <use xlink:href="#URWPalladioL-Roma-39" transform="translate(74.719801 0) scale(0.996264)"/>
      </g>
     </g>
    </g>
    <g id="ytick_21">
     <g id="line2d_31">
      <g>
       <use xlink:href="#m41b0c756ea" x="874.17" y="86.4" style="stroke: #000000; stroke-width: 0.8"/>
      </g>
     </g>
     <g id="text_34">
      <!-- $\mathdefault{1.0}$ -->
      <g transform="translate(881.17 92.548102) scale(0.1725 -0.1725)">
       <use xlink:href="#URWPalladioL-Roma-31" transform="scale(0.996264)"/>
       <use xlink:href="#URWPalladioL-Roma-2e" transform="translate(49.8132 0) scale(0.996264)"/>
       <use xlink:href="#URWPalladioL-Roma-30" transform="translate(74.719801 0) scale(0.996264)"/>
      </g>
     </g>
    </g>
   </g>
   <g id="LineCollection_1"/>
   <g id="patch_8">
    <path d="M 846.45 640.8 
L 860.31 640.8 
L 874.17 640.8 
L 874.17 86.4 
L 860.31 86.4 
L 846.45 86.4 
L 846.45 640.8 
z
" style="fill: none; stroke: #000000; stroke-width: 0.8; stroke-linejoin: miter; stroke-linecap: square"/>
   </g>
  </g>
 </g>
 <defs>
  <clipPath id="pdf5cf4da90">
   <rect x="135" y="86.4" width="669.6" height="554.4"/>
  </clipPath>
  <clipPath id="p4560f62354">
   <rect x="846.45" y="86.4" width="27.72" height="554.4"/>
  </clipPath>
 </defs>
</svg>
